<svg version="1.1" xmlns="http://www.w3.org/2000/svg" xmlns:xlink="http://www.w3.org/1999/xlink" width="1163" height="906"><defs/><g><g/><g/><g/><g/><g/><g/><g/><g/><g/><g/><g/><g/><g/><g/><g/><g/><g/><g/><g/><g><rect fill="white" stroke="none" x="0" y="0" width="1163" height="906"/></g><g><text fill="black" stroke="none" font-family="sans-serif" font-size="16.5pt" font-style="normal" font-weight="normal" text-decoration="normal" x="514.3354315422038" y="26.3876361" text-anchor="start" dominant-baseline="alphabetic" xml:space="preserve">Register ACE</text></g><g/><g><path fill="none" stroke="black" paint-order="fill stroke markers" d=" M 42.82594614384766 139.67855375599999 L 42.82594614384766 906.679176396" stroke-miterlimit="10" stroke-width="1.4659797833333332" stroke-dasharray="13.532121076923076,5.863919133333333"/><path fill="none" stroke="black" paint-order="fill stroke markers" d=" M 218.840962944694 139.67855375599999 L 218.840962944694 906.679176396" stroke-miterlimit="10" stroke-width="1.4659797833333332" stroke-dasharray="13.532121076923076,5.863919133333333"/><path fill="none" stroke="black" paint-order="fill stroke markers" d=" M 409.1851378644857 139.67855375599999 L 409.1851378644857 906.679176396" stroke-miterlimit="10" stroke-width="1.4659797833333332" stroke-dasharray="13.532121076923076,5.863919133333333"/><path fill="none" stroke="black" paint-order="fill stroke markers" d=" M 599.5293127842774 139.67855375599999 L 599.5293127842774 906.679176396" stroke-miterlimit="10" stroke-width="1.4659797833333332" stroke-dasharray="13.532121076923076,5.863919133333333"/><path fill="none" stroke="black" paint-order="fill stroke markers" d=" M 789.873487704069 139.67855375599999 L 789.873487704069 906.679176396" stroke-miterlimit="10" stroke-width="1.4659797833333332" stroke-dasharray="13.532121076923076,5.863919133333333"/><path fill="none" stroke="black" paint-order="fill stroke markers" d=" M 1044.0687826189778 139.67855375599999 L 1044.0687826189778 906.679176396" stroke-miterlimit="10" stroke-width="1.4659797833333332" stroke-dasharray="13.532121076923076,5.863919133333333"/><path fill="none" stroke="black" paint-order="fill stroke markers" d=" M 1125.7774883516927 139.67855375599999 L 1125.7774883516927 906.679176396" stroke-miterlimit="10" stroke-width="1.4659797833333332" stroke-dasharray="13.532121076923076,5.863919133333333"/></g><g><g><path fill="white" stroke="black" paint-order="fill stroke markers" d=" M 52.853247861847656 65.265419954 A 10.027301717999999 10.027301717999999 0 1 1 52.85324284819722 65.25539265395321 M 42.82594614384766 75.29272167199998 L 42.82594614384766 96.75466569999998 M 30.15988081584766 83.033094928 L 55.49201147184766 83.033094928 M 42.82594614384766 96.75466569999998 L 30.15988081584766 116.80926913599998 M 42.82594614384766 96.75466569999998 L 55.49201147184766 116.80926913599998" stroke-miterlimit="10" stroke-width="2.990598758" stroke-dasharray=""/></g><g><g/><text fill="black" stroke="none" font-family="sans-serif" font-size="11pt" font-style="normal" font-weight="normal" text-decoration="normal" x="8.795878700000003" y="134.401026536" text-anchor="start" dominant-baseline="alphabetic" xml:space="preserve">Customer</text></g><g><path fill="white" stroke="black" paint-order="fill stroke markers" d=" M 253.76060138369402 89.19021001799997 A 26.123759739 26.123759739 0 1 1 253.76058832181525 89.16408626261492 M 185.416623884694 61.57115089999997 L 185.416623884694 116.80926913599997 M 183.921324505694 89.19021001799997 L 201.513081905694 89.19021001799997" stroke-miterlimit="10" stroke-width="2.990598758" stroke-dasharray=""/></g><g><g/><text fill="black" stroke="none" font-family="sans-serif" font-size="11pt" font-style="normal" font-weight="normal" text-decoration="normal" x="177.18383556432292" y="134.401026536" text-anchor="start" dominant-baseline="alphabetic" xml:space="preserve">CustomerUI</text></g><g><path fill="white" stroke="black" paint-order="fill stroke markers" d=" M 435.30889760348566 89.19021001799997 A 26.123759739 26.123759739 0 1 1 435.3088845416069 89.16408626261492 M 405.6667863844857 63.06645027899997 L 416.2218408244857 54.27057157899998 M 405.6667863844857 63.06645027899997 L 416.2218408244857 71.86232897899997" stroke-miterlimit="10" stroke-width="2.990598758" stroke-dasharray=""/></g><g><g/><text fill="black" stroke="none" font-family="sans-serif" font-size="11pt" font-style="normal" font-weight="normal" text-decoration="normal" x="354.8365355695638" y="134.401026536" text-anchor="start" dominant-baseline="alphabetic" xml:space="preserve">HospitalSystem</text></g><path fill="none" stroke="none"/><g><path fill="white" stroke="black" paint-order="fill stroke markers" d=" M 551.3549299554727 92.18080877599999 L 647.7036956130821 92.18080877599999 L 647.7036956130821 139.67855375599999 L 551.3549299554727 139.67855375599999 L 551.3549299554727 92.18080877599999 Z" stroke-miterlimit="10" stroke-width="2.814681184" stroke-dasharray=""/></g><g><g/><text fill="black" stroke="none" font-family="sans-serif" font-size="11pt" font-style="normal" font-weight="normal" text-decoration="normal" x="570.4419867344727" y="122.08679635600001" text-anchor="start" dominant-baseline="alphabetic" xml:space="preserve">Hospital</text></g><path fill="none" stroke="none"/><g><path fill="white" stroke="black" paint-order="fill stroke markers" d=" M 714.3190008103229 92.18080877599999 L 865.4279745978151 92.18080877599999 L 865.4279745978151 139.67855375599999 L 714.3190008103229 139.67855375599999 L 714.3190008103229 92.18080877599999 Z" stroke-miterlimit="10" stroke-width="2.814681184" stroke-dasharray=""/></g><g><g/><text fill="black" stroke="none" font-family="sans-serif" font-size="11pt" font-style="normal" font-weight="normal" text-decoration="normal" x="733.4060575893229" y="122.08679635600001" text-anchor="start" dominant-baseline="alphabetic" xml:space="preserve">AccountMapper</text></g><g><path fill="white" stroke="black" paint-order="fill stroke markers" d=" M 1018.3848168149779 105.19870925199999 L 1018.3848168149779 68.25601871199999 L 1069.752748422978 68.25601871199999 L 1069.752748422978 105.19870925199999" stroke-miterlimit="10" stroke-width="2.990598758" stroke-dasharray=""/><path fill="white" stroke="black" paint-order="fill stroke markers" d=" M 1069.752748422978 66.97182042179999 L 1069.7514642353892 67.08792408555635 L 1069.747611801041 67.20401613904309 L 1069.741191505174 67.3200849731516 L 1069.7322039898115 67.43611898109519 L 1069.7206501536982 67.55210655956978 L 1069.7065311522078 67.66803610991414 L 1069.689848397229 67.78389603926989 L 1069.6706035570232 67.8996747617406 L 1069.6487985560582 68.01536069955054 L 1069.6244355748163 68.1309422842023 L 1069.597517049575 68.24640795763378 L 1069.5680456721643 68.3617461733738 L 1069.536024389698 68.47694539769695 L 1069.501456404277 68.59199411077678 L 1069.4643451726713 68.70688080783783 L 1069.4246944059732 68.82159400030618 L 1069.3825080692263 68.93612221695814 L 1069.337790381029 69.0504540050675 L 1069.2905458131129 69.16457793155072 L 1069.2407790898956 69.27848258411025 L 1069.1884951880077 69.39215657237577 L 1069.1336993357959 69.50558852904317 L 1069.0763970127998 69.61876711101131 L 1069.016593949204 69.73168100051632 L 1068.9542961252648 69.84431890626333 L 1068.889509770713 69.95666956455563 L 1068.8222413641297 70.06872174042103 L 1068.7524976323 70.18046422873529 L 1068.6802855495384 70.29188585534273 L 1068.6056123369933 70.40297547817353 L 1068.5284854619238 70.51372198835797 L 1068.4489126369529 70.62411431133734 L 1068.366901819297 70.73414140797132 L 1068.2824612099694 70.84379227564195 L 1068.1955992529606 70.95305594935381 L 1068.106324634394 71.06192150283061 L 1068.0146462816574 71.1703780496077 L 1067.920573362509 71.27841474412082 L 1067.8241152841629 71.38602078279051 L 1067.7252816923462 71.4931854051026 L 1067.624082470336 71.59989789468413 L 1067.5205277379698 71.7061475803751 L 1067.4146278506348 71.81192383729548 L 1067.3063933982314 71.9172160879077 L 1067.195835204115 72.02201380307447 L 1067.0829643240122 72.12630650311159 L 1066.9677920449174 72.23008375883597 L 1066.8503298839626 72.33333519260853 L 1066.7305895872657 72.43605047937191 L 1066.608583128757 72.53821934768304 L 1066.48432270898 72.63983158074024 L 1066.357820753874 72.74087701740487 L 1066.2290899135282 72.84134555321748 L 1066.0981430609202 72.94122714140819 L 1065.9649932906257 73.04051179390143 L 1065.8296539175105 73.13918958231469 L 1065.6921384753998 73.23725063895135 L 1065.5524607157226 73.33468515778748 L 1065.410634606139 73.43148339545236 L 1065.2666743291413 73.52763567220293 L 1065.1205942806375 73.6231323728916 L 1064.9724090685106 73.71796394792793 L 1064.8221335111584 73.8121209142334 L 1064.6697826360114 73.90559385618985 L 1064.51537167803 73.998373426581 L 1064.358916078182 74.09045034752711 L 1064.2004314818957 74.18181541141281 L 1064.0399337375 74.27245948180787 L 1063.8774388946347 74.36237349438078 L 1063.7129632026492 74.45154845780519 L 1063.5465231089754 74.53997545465909 L 1063.3781352574838 74.62764564231648 L 1063.2078164868196 74.71455025383165 L 1063.0355838287178 74.80068059881587 L 1062.8614545063006 74.88602806430642 L 1062.685445932355 74.97058411562787 L 1062.507575707592 75.05434029724555 L 1062.327861618886 75.13728823361109 L 1062.1463216374955 75.21941962999999 L 1061.9629739172678 75.30072627334106 L 1061.777836792822 75.38120003303769 L 1061.5909287777165 75.46083286178099 L 1061.4022685625966 75.53961679635444 L 1061.2118750133272 75.61754395843025 L 1061.019767169104 75.69460655535714 L 1060.8259642405517 75.77079688093964 L 1060.6304856078013 75.84610731620869 L 1060.4333508185537 75.9205303301835 L 1060.234579586123 75.99405848062472 L 1060.034191787467 76.06668441477855 L 1059.8322074611988 76.13840087011211 L 1059.6286468055823 76.20920067503964 L 1059.4235301765139 76.27907674963963 L 1059.2168780854852 76.34802210636286 L 1059.0087111975333 76.4160298507311 L 1058.7990503291733 76.48309318202661 L 1058.5879164463176 76.54920539397213 L 1058.3753306621784 76.61435987540155 L 1058.1613142351569 76.67855011092104 L 1057.9458885667175 76.74176968156053 L 1057.7290751992475 76.80401226541565 L 1057.510895813903 76.86527163827986 L 1057.2913722284409 76.92554167426694 L 1057.0705263950365 76.98481634642351 L 1056.8483803980894 77.04308972733178 L 1056.624956452014 77.10035598970217 L 1056.4002768990185 77.15660940695618 L 1056.1743642068714 77.21184435379898 L 1055.9472409666535 77.26605530678191 L 1055.7189298904993 77.31923684485484 L 1055.4894538093265 77.37138364990828 L 1055.258835670552 77.42249050730518 L 1055.0270985357972 77.4725523064024 L 1054.7942655785826 77.52156404106174 L 1054.56036008201 77.56952081015058 L 1054.325405436434 77.61641781803196 L 1054.0894251371235 77.6622503750442 L 1053.8524427819116 77.70701389796976 L 1053.6144820688364 77.75070391049368 L 1053.375566793771 77.7933160436511 L 1053.1357208480435 77.83484603626422 L 1052.8949682160492 77.87528973536838 L 1052.6533329728502 77.91464309662739 L 1052.4108392817695 77.9529021847379 L 1052.1675113919744 77.99006317382297 L 1051.9233736360509 78.02612234781469 L 1051.6784504275709 78.0610761008257 L 1051.4327662586516 78.09492093750981 L 1051.186345697505 78.12765347341158 L 1050.9392133859817 78.15927043530469 L 1050.691394037107 78.18976866151928 L 1050.4429124326095 78.21914510225817 L 1050.1937934204425 78.24739681990175 L 1049.9440619122993 78.27452098930179 L 1049.6937428811227 78.30051489806398 L 1049.4428613586076 78.32537594681908 L 1049.1914424326967 78.34910164948295 L 1048.9395112450736 78.37168963350508 L 1048.6870929886466 78.39313764010592 L 1048.4342129050312 78.41344352450264 L 1048.180896282025 78.43260525612375 L 1047.9271684510793 78.45062091881205 L 1047.6730547847658 78.46748871101629 L 1047.4185806942392 78.48320694597129 L 1047.1637716266966 78.49777405186667 L 1046.9086530628322 78.51118857200397 L 1046.6532505142902 78.52344916494236 L 1046.3975895211122 78.53455460463276 L 1046.1416956491848 78.54450378054045 L 1045.8855944876818 78.55329569775614 L 1045.6293116465058 78.56092947709544 L 1045.3728727537275 78.56740435518677 L 1045.1163034530225 78.57271968454769 L 1044.8596294011072 78.57687493364975 L 1044.6028762651724 78.57986968697145 L 1044.3460697203184 78.58170364504 L 1044.0892354469852 78.58237662446106 L 1043.832399128386 78.58188855793732 L 1043.5755864479393 78.58023949427498 L 1043.3188230866983 78.57742959837903 L 1043.0621347207857 78.57345915123673 L 1042.8055470188242 78.56832854988951 L 1042.5490856393699 78.56203830739318 L 1042.2927762283473 78.5545890527668 L 1042.0366444164836 78.54598153092958 L 1041.7807158167468 78.53621660262655 L 1041.5250160217834 78.5252952443424 L 1041.2695706013599 78.51321854820387 L 1041.0144050998056 78.4999877218705 L 1040.759545033458 78.48560408841388 L 1040.505015888111 78.4700690861854 L 1040.2508431164674 78.45338426867232 L 1039.9970521355924 78.4355513043425 L 1039.7436683243727 78.41657197647748 L 1039.4907170209783 78.39644818299428 L 1039.2382235203286 78.37518193625543 L 1038.9862130715633 78.35277536286792 L 1038.7347108755173 78.32923070347039 L 1038.4837420822007 78.30455031250918 L 1038.2333317882833 78.2787366580028 L 1037.9835050345864 78.2517923212952 L 1037.7342868035767 78.2237199967976 L 1037.48570201687 78.19452249171906 L 1037.2377755327375 78.16420272578573 L 1036.990532143621 78.13276373094897 L 1036.7439965736537 78.10020865108203 L 1036.498193476187 78.0665407416658 L 1036.2531474313257 78.03176336946316 L 1036.00888294347 77.99588001218234 L 1035.7654244388657 77.95889425812916 L 1035.5227962631595 77.92080980584822 L 1035.2810226789675 77.881630463753 L 1035.0401278634465 77.84136014974506 L 1034.800135905877 77.80000289082224 L 1034.561070805255 77.75756282267598 L 1034.3229564678913 77.71404418927773 L 1034.0858167050212 77.66945134245454 L 1033.8496752304236 77.62378874145395 L 1033.6145556580489 77.57706095249802 L 1033.3804814996581 77.52927264832667 L 1033.1474761624727 77.48042860773052 L 1032.9155629468319 77.43053371507293 L 1032.6847650438638 77.37959295980157 L 1032.4551055331667 77.32761143594954 L 1032.2266073805001 77.27459434162587 L 1031.9992934354889 77.22054697849586 L 1031.7731864293382 77.16547475125074 L 1031.54830897256 77.10938316706736 L 1031.324683552713 77.0522778350574 L 1031.1023325321526 76.99416446570646 L 1030.8812781457952 76.93504887030305 L 1030.6615424988959 76.87493696035746 L 1030.4431475648357 76.81383474701059 L 1030.2261151829266 76.75174834043284 L 1030.0104670562253 76.68868394921314 L 1029.7962247493651 76.62464787973806 L 1029.5834096863982 76.5596465355612 L 1029.3720431486533 76.49368641676277 L 1029.1621462726084 76.42677411929971 L 1028.9537400477757 76.358916334346 L 1028.7468453146046 76.2901198476236 L 1028.5414827623954 76.22039153872383 L 1028.3376729272327 76.14973838041949 L 1028.1354361899298 76.07816743796754 L 1027.9347927739923 76.00568586840255 L 1027.7357627435943 75.9323009198211 L 1027.5383660015727 75.8580199306569 L 1027.342622287438 75.78285032894695 L 1027.1485511753976 75.70679963158878 L 1026.9561720724018 75.62987544358876 L 1026.7655042162 75.55208545730159 L 1026.5765666734192 75.47343745166106 L 1026.3893783376561 75.3939392914022 L 1026.2039579275884 75.31359892627479 L 1026.0203239851023 75.2324243902484 L 1025.8384948734395 75.15042380070896 L 1025.6584887753593 75.06760535764712 L 1025.4803236913217 74.98397734283817 L 1025.3040174376865 74.89954811901389 L 1025.1295876449321 74.8143261290263 L 1024.9570517558925 74.72831989500338 L 1024.786427024013 74.64153801749687 L 1024.6177305116241 74.5539891746222 L 1024.450979088237 74.46568212119071 L 1024.2861894288549 74.37662568783415 L 1024.1233780123064 74.28682878012162 L 1023.9625611195972 74.19630037766909 L 1023.803754832283 74.10504953324134 L 1023.64697503086 74.0130853718468 L 1023.4922373931776 73.92041708982494 L 1023.3395573928708 73.82705395392676 L 1023.1889502978122 73.73300530038806 L 1023.0404311685861 73.63828053399578 L 1022.8940148569814 73.54288912714766 L 1022.7497160045073 73.44684061890487 L 1022.6075490409287 73.3501446140382 L 1022.4675281828237 73.25281078206757 L 1022.3296674321614 73.15484885629505 L 1022.1939805749018 73.05626863283157 L 1022.0604811796178 72.95707996961737 L 1021.9291825961374 72.85729278543607 L 1021.8000979542097 72.75691705892295 L 1021.6732401621914 72.65596282756702 L 1021.5486219057558 72.5544401867073 L 1021.4262556466249 72.45235928852324 L 1021.3061536213224 72.34973034101961 L 1021.188327839951 72.24656360700563 L 1021.0727900849904 72.14286940306874 L 1020.9595519101199 72.03865809854291 L 1020.8486246390628 71.93394011447177 L 1020.7400193644535 71.82872592256643 L 1020.6337469467292 71.72302604415843 L 1020.5298180130428 71.61685104914753 L 1020.4282429562014 71.51021155494473 L 1020.329031933626 71.4031182254106 L 1020.2321948663358 71.29558176978884 L 1020.1377414379573 71.1876129416354 L 1020.0456810937544 71.07922253774314 L 1019.9560230396849 70.9704213970621 L 1019.8687762414793 70.86122039961568 L 1019.783949423745 70.75163046541265 L 1019.7015510690927 70.64166255335508 L 1019.6215894172896 70.53132766014255 L 1019.5440724644341 70.42063681917243 L 1019.4690079621568 70.30960109943658 L 1019.3964034168454 70.19823160441445 L 1019.326266088894 70.0865394709627 L 1019.2586029919769 69.97453586820164 L 1019.1934208923475 69.86223199639821 L 1019.1307263081612 69.74963908584596 L 1019.0705255088245 69.63676839574217 L 1019.0128245143669 69.52363121306175 L 1018.95762909484 69.41023885142872 L 1018.9049447697395 69.29660264998472 L 1018.8547768074542 69.18273397225522 L 1018.8071302247383 69.0686442050131 L 1018.7620097862107 68.95434475714 L 1018.7194200038774 68.83984705848547 L 1018.6793651366812 68.72516255872397 L 1018.6418491900755 68.61030272620987 L 1018.6068759156236 68.49527904683073 L 1018.5744488106238 68.38010302285863 L 1018.5445711177597 68.2647861718 L 1018.5172458247756 68.14934002524383 L 1018.4924756641781 68.03377612770858 L 1018.4702631129625 67.9181060354877 L 1018.4506103923654 67.80234131549402 L 1018.4335194676428 67.68649354410306 L 1018.4189920478725 67.57057430599544 L 1018.4070295857846 67.45459519299835 L 1018.3976332776152 67.33856780292646 L 1018.3908040629875 67.22250373842208 L 1018.3865426248171 67.10641460579494 L 1018.3848493892443 66.99031201386155 L 1018.3857245255913 66.87420757278437 L 1018.3891679463452 66.75811289291076 L 1018.3951793071667 66.64203958361193 L 1018.4037580069248 66.52599925212212 L 1018.4149031877566 66.41000350237775 L 1018.4286137351535 66.29406393385715 L 1018.444888278072 66.17819214042055 L 1018.4637251890714 66.06239970915072 L 1018.4851225844762 65.94669821919432 L 1018.5090783245649 65.8310992406039 L 1018.5355900137835 65.71561433318102 L 1018.5646550009848 65.60025504532017 L 1018.5962703796946 65.48503291285398 L 1018.6304329884014 65.36995945789971 L 1018.6671394108726 65.25504618770695 L 1018.7063859764967 65.14030459350695 L 1018.7481687606497 65.02574614936354 L 1018.7924835850881 64.91138231102563 L 1018.8393260183665 64.79722451478179 L 1018.8886913762803 64.68328417631649 L 1018.9405747223352 64.56957268956862 L 1018.9949708682396 64.45610142559212 L 1019.0518743744243 64.3428817314188 L 1019.1112795505861 64.22992492892377 L 1019.173180456257 64.1172423136931 L 1019.2375709013977 64.00484515389444 L 1019.3044444470177 63.89274468915009 L 1019.373794405818 63.78095212941312 L 1019.4456138428604 63.66947865384635 L 1019.5198955762613 63.558335409704426 L 1019.5966321779091 63.447533511219156 L 1019.6758159742077 63.337084038488044 L 1019.7574390468433 63.226998036366325 L 1019.8414932335767 63.11728651336247 L 1019.9279701290593 63.00796044053737 L 1020.0168610856737 62.899030750407185 L 1020.108157214398 62.790508335850156 L 1020.2018493856958 62.682404049017315 L 1020.2979282304279 62.57472870024724 L 1020.3963841407899 62.4674930569851 L 1020.4972072712727 62.36070784270584 L 1020.6003875396475 62.25438373584191 L 1020.7059146279731 62.148531368715396 L 1020.8137779836289 62.04316132647479 L 1020.9239668203692 61.938284146036516 L 1021.036470119402 61.83391031503122 L 1021.1512766304912 61.73005027075502 L 1021.2683748730815 61.6267143991258 L 1021.3877531374461 61.52391303364461 L 1021.509399485858 61.42165645436233 L 1021.6333017537837 61.31995488685167 L 1021.7594475510999 61.21881850118463 L 1021.8878242633318 61.1182574109155 L 1022.0184190529152 61.018281672069506 L 1022.1512188604798 60.91890128213721 L 1022.2862104061559 60.82012617907481 L 1022.4233801909011 60.72196624031029 L 1022.5627144978514 60.62443128175571 L 1022.7041993936921 60.52753105682567 L 1022.8478207300516 60.431275255461905 L 1022.9935641449158 60.33567350316434 L 1023.1414150640649 60.24073536002853 L 1023.29135870253 60.14647031978968 L 1023.4433800660723 60.05288780887326 L 1023.5974639526821 59.959997185452366 L 1023.7535949540992 59.86780773851195 L 1023.9117574573536 59.77632868691987 L 1024.0719356463264 59.68556917850505 L 1024.2341135033328 59.59553828914271 L 1024.398274810722 59.50624502184675 L 1024.5644031524996 59.41769830586949 L 1024.7324819159705 59.32990699580875 L 1024.9024942933981 59.24287987072236 L 1025.0744232836864 59.15662563325033 L 1025.2482516940797 59.0711529087445 L 1025.4239621418817 58.986470244406114 L 1025.6015370561943 58.90258610843103 L 1025.7809586796736 58.81950888916295 L 1025.9622090703072 58.737246894254554 L 1026.145270103207 58.65580834983679 L 1026.330123472422 58.57520139969624 L 1026.5167506927694 58.49543410446074 L 1026.7051331016828 58.41651444079334 L 1026.8952518610783 58.33845030059465 L 1027.0870879592385 58.26124949021362 L 1027.2806222127133 58.18491972966697 L 1027.4758352682386 58.10946865186714 L 1027.6727076046714 58.03490380185903 L 1027.8712195349424 57.96123263606552 L 1028.071351208024 57.88846252154177 L 1028.2730826109155 57.816600735238616 L 1028.4763935706446 57.74565446327479 L 1028.681263756285 57.67563080021837 L 1028.8876726809888 57.60653674837731 L 1029.0955997040355 57.53837921709922 L 1029.3050240328962 57.47116502208042 L 1029.5159247253123 57.40490088468441 L 1029.7282806913904 57.3395934312697 L 1029.942070695711 57.27524919252721 L 1030.1572733594514 57.21187460282721 L 1030.3738671625251 57.14947599957584 L 1030.591830445732 57.088059622581426 L 1030.8111414129257 57.02763161343051 L 1031.031778133192 56.96819801487362 L 1031.2537185430424 56.9097647702211 L 1031.4769404486212 56.85233772274873 L 1031.7014215279241 56.79592261511338 L 1031.92713933303 56.74052508877882 L 1032.1540712923465 56.6861506834515 L 1032.3821947128667 56.63280483652666 L 1032.6114867824388 56.58049288254453 L 1032.8419245720468 56.52922005265691 L 1033.0734850381036 56.47899147410408 L 1033.306145024756 56.42981216970201 L 1033.539881266199 56.38168705734017 L 1033.7746703890032 56.334620949489704 L 1034.0104889144518 56.28861855272216 L 1034.2473132608893 56.24368446723889 L 1034.4851197460778 56.199823186410995 L 1034.7238845895674 56.157039096329996 L 1034.9635839150724 56.11533647536926 L 1035.2041937528602 56.07471949375613 L 1035.4456900421476 56.035192213154914 L 1035.6880486335067 55.99675858626073 L 1035.9312452912804 55.959422456404255 L 1036.1752556960057 55.923187557167346 L 1036.4200554468453 55.88805751200974 L 1036.6656200640282 55.85403583390668 L 1036.9119249912974 55.82112592499761 L 1037.1589455983653 55.78933107624601 L 1037.406657183377 55.758654467110254 L 1037.6550349753807 55.72909916522569 L 1037.9040541368038 55.70066812609789 L 1038.153689765938 55.67336419280706 L 1038.4039168994282 55.64719009572377 L 1038.6547105147695 55.62214845223594 L 1038.9060455328097 55.598241766487035 L 1039.1578968202562 55.57547242912571 L 1039.4102391921901 55.55384271706673 L 1039.6630474145848 55.533354793263264 L 1039.9162962068283 55.51401070649064 L 1040.1699602442527 55.4958123911414 L 1040.4240141606656 55.47876166703191 L 1040.678432550887 55.46286023922039 L 1040.93318997329 55.44810969783636 L 1041.1882609523443 55.434511517921656 L 1041.443619981165 55.42206705928295 L 1041.699241524062 55.41077756635575 L 1041.9551000190936 55.40064416807991 L 1042.211169880624 55.39166787778682 L 1042.4674255018801 55.38384959309805 L 1042.7238412575136 55.37719009583553 L 1042.9803915061625 55.37169005194345 L 1043.2370505930155 55.36735001142162 L 1043.4937928523782 55.36417040827046 L 1043.7505926102383 55.36215156044765 L 1044.007424186834 55.36129366983628 L 1044.264261899222 55.3615968222247 L 1044.5210800638447 55.363060987297914 L 1044.7778529990999 55.36568601864066 L 1045.034555027908 55.369471653751965 L 1045.2911604802798 55.37441751407148 L 1045.5476436958843 55.3805231050173 L 1045.8039790266137 55.38778781603543 L 1046.060140839148 55.39621092066079 L 1046.3161035175199 55.40579157658996 L 1046.5718414656747 55.41652882576533 L 1046.8273291100306 55.428421594470926 L 1047.0825409020363 55.44146869343979 L 1047.337451320725 55.45566881797289 L 1047.5920348752675 55.47102054806961 L 1047.8462661075205 55.48752234856974 L 1048.1001195945723 55.50517256930697 L 1048.353569951286 55.52396944527395 L 1048.6065918328375 55.54391109679874 L 1048.8591599372487 55.56499552973279 L 1049.1112490079202 55.587220635650404 L 1049.3628338361548 55.61058419205949 L 1049.6138892636795 55.63508386262389 L 1049.8643901851606 55.660717197396956 L 1050.1143115507145 55.687481633066575 L 1050.3636283684134 55.715374493211485 L 1050.612315706783 55.744392988568904 L 1050.8603486972968 55.7745342173135 L 1051.1077025368622 55.8057951653475 L 1051.3543524903016 55.83817270660215 L 1051.6002738928253 55.871663603350314 L 1051.8454421524978 55.90626450653023 L 1052.0898327526975 55.941971956080394 L 1052.3334212545678 55.97878238128563 L 1052.576183299462 56.01669210113408 L 1052.8180946113775 56.055697324685354 L 1053.0591309993847 56.095794151449596 L 1053.299268360046 56.136978571777554 L 1053.5384826798252 56.17924646726151 L 1053.7767500374896 56.22259361114713 L 1054.0140466065022 56.267015668756166 L 1054.2503486574037 56.31250819791986 L 1054.4856325601859 56.35906664942321 L 1054.7198747866548 56.40668636745987 L 1054.9530519127827 56.455362590097714 L 1055.1851406210515 56.505090449755045 L 1055.4161177027836 56.55586497368733 L 1055.6459600604635 56.60768108448449 L 1055.8746447100468 56.66053360057863 L 1056.102148783259 56.71441723676219 L 1056.3284495298828 56.76932660471643 L 1056.5535243200318 56.82525621355034 L 1056.7773506464146 56.88220047034963 L 1056.999906126585 56.940153680736074 L 1057.2211685051807 56.999110049436936 L 1057.441115656148 57.05906368086447 L 1057.6597255849554 57.120008579705484 L 1057.8769764307915 57.1819386515209 L 1058.0928464687536 57.244847703355134 L 1058.3073141120171 57.308729444355436 L 1058.5203579139968 57.373577486400926 L 1058.73195657049 57.439385344741446 L 1058.9420889218072 57.506146438646006 L 1059.1507339548887 57.57385409206084 L 1059.3578708054047 57.642501534277045 L 1059.563478759843 57.712081900607586 L 1059.7675372575793 57.78258823307383 L 1059.970025892934 57.854013481101276 L 1060.1709244172125 57.92635050222464 L 1060.3702127407294 57.99959206280211 L 1060.5678709348188 58.07373083873863 L 1060.7638792338255 58.14875941621842 L 1060.9582180370835 58.224670292446234 L 1061.150867910874 58.30145587639771 L 1061.3418095903705 58.379108489578456 L 1061.531023981564 58.45762036679186 L 1061.7184921631729 58.53698365691561 L 1061.9041953885355 58.61719042368684 L 1062.0881150874839 58.698232646495725 L 1062.2702328682017 58.7801022211875 L 1062.450530519062 58.86279096087293 L 1062.6289900104507 58.94629059674695 L 1062.805593496567 59.03059277891555 L 1062.9803233172095 59.115689077230776 L 1063.1531619995417 59.2015709821337 L 1063.3240922598395 59.2882299055054 L 1063.4930970052192 59.375657181525774 L 1063.660159335347 59.46384406754005 L 1063.8252625441296 59.55278174493313 L 1063.988390121383 59.642461320011385 L 1064.149525754486 59.73287382489204 L 1064.3086533300093 59.82401021839995 L 1064.465756935328 59.91586138697171 L 1064.6208208602125 60.008418145567006 L 1064.7738295983995 60.10167123858711 L 1064.9247678491427 60.195611340800426 L 1065.0736205187427 60.29022905827503 L 1065.220372722057 60.385514929318006 L 1065.365009783987 60.48145942542166 L 1065.5075172409472 60.57805295221634 L 1065.647880842311 60.67528585042985 L 1065.7860865518348 60.77314839685341 L 1065.9221205490633 60.87163080531391 L 1066.0559692307097 60.97072322765259 L 1066.1876192120174 61.07041575470979 L 1066.3170573280981 61.170698417315876 L 1066.4442706352481 61.271561187288164 L 1066.5692464122428 61.3729939784337 L 1066.6919721616084 61.47498664755789 L 1066.8124356108724 61.577528995478836 L 1066.93062471379 61.68061076804718 L 1067.0465276515497 61.78422165717158 L 1067.1601328339543 61.88835130184945 L 1067.2714289005798 61.99298928920311 L 1067.380404721913 62.09812515552101 L 1067.487049400462 62.203748387304145 L 1067.591352271848 62.30984842231735 L 1067.693302905871 62.416414650645535 L 1067.7928911075521 62.52343641575468 L 1067.8901069181545 62.63090301555746 L 1067.984940616178 62.73880370348344 L 1068.0773827183318 62.847127689553744 L 1068.1674239804827 62.95586414146005 L 1068.2550553985795 63.065002185647764 L 1068.3402682095539 63.174530908403426 L 1068.4230538921952 63.28443935694603 L 1068.5034041680042 63.39471654052231 L 1068.5813110020206 63.50535143150581 L 1068.6567666036256 63.61633296649962 L 1068.729763427322 63.72765004744274 L 1068.8002941734885 63.83929154271982 L 1068.868351789109 63.951246288274376 L 1068.9339294684787 64.06350308872516 L 1068.9970206538844 64.17605071848564 L 1069.0576190362601 64.28887792288667 L 1069.115718555818 64.40197341930181 L 1069.1713134026545 64.51532589827566 L 1069.2243980173314 64.6289240246548 L 1069.2749670914313 64.74275643872124 L 1069.3230155680892 64.85681175732844 L 1069.3685386424972 64.97107857503958 L 1069.4115317623862 65.08554546526814 L 1069.4519906284793 65.20020098142045 L 1069.4899111949244 65.31503365804045 L 1069.525289669696 65.43003201195617 L 1069.558122514976 65.54518454342806 L 1069.5884064475079 65.66047973729893 L 1069.616138438923 65.77590606414547 L 1069.6413157160453 65.89145198143119 L 1069.6639357611684 66.00710593466063 L 1069.6839963123066 66.12285635853486 L 1069.7014953634214 66.23869167810795 L 1069.716431164622 66.35460030994449 L 1069.7288022223413 66.47057066327784 L 1069.7386072994834 66.58659114116935 L 1069.745845415549 66.70265014166789 L 1069.7505158467325 66.81873605897015 L 1069.7526181259943 66.9348372845811 M 1069.752748422978 103.91451096179999 L 1069.7514642353892 104.03061462555635 L 1069.747611801041 104.14670667904309 L 1069.741191505174 104.2627755131516 L 1069.7322039898115 104.37880952109519 L 1069.7206501536982 104.49479709956978 L 1069.7065311522078 104.61072664991414 L 1069.689848397229 104.72658657926989 L 1069.6706035570232 104.8423653017406 L 1069.6487985560582 104.95805123955054 L 1069.6244355748163 105.0736328242023 L 1069.597517049575 105.18909849763378 L 1069.5680456721643 105.3044367133738 L 1069.536024389698 105.41963593769695 L 1069.501456404277 105.53468465077678 L 1069.4643451726713 105.64957134783783 L 1069.4246944059732 105.76428454030618 L 1069.3825080692263 105.87881275695814 L 1069.337790381029 105.9931445450675 L 1069.2905458131129 106.10726847155073 L 1069.2407790898956 106.22117312411025 L 1069.1884951880077 106.33484711237577 L 1069.1336993357959 106.44827906904317 L 1069.0763970127998 106.56145765101131 L 1069.016593949204 106.67437154051632 L 1068.9542961252648 106.78700944626333 L 1068.889509770713 106.89936010455563 L 1068.8222413641297 107.01141228042103 L 1068.7524976323 107.12315476873529 L 1068.6802855495384 107.23457639534273 L 1068.6056123369933 107.34566601817353 L 1068.5284854619238 107.45641252835797 L 1068.4489126369529 107.56680485133734 L 1068.366901819297 107.67683194797132 L 1068.2824612099694 107.78648281564195 L 1068.1955992529606 107.89574648935381 L 1068.106324634394 108.00461204283062 L 1068.0146462816574 108.1130685896077 L 1067.920573362509 108.22110528412082 L 1067.8241152841629 108.32871132279051 L 1067.7252816923462 108.4358759451026 L 1067.624082470336 108.54258843468413 L 1067.5205277379698 108.6488381203751 L 1067.4146278506348 108.75461437729548 L 1067.3063933982314 108.8599066279077 L 1067.195835204115 108.96470434307447 L 1067.0829643240122 109.0689970431116 L 1066.9677920449174 109.17277429883598 L 1066.8503298839626 109.27602573260853 L 1066.7305895872657 109.37874101937192 L 1066.608583128757 109.48090988768304 L 1066.48432270898 109.58252212074024 L 1066.357820753874 109.68356755740487 L 1066.2290899135282 109.78403609321748 L 1066.0981430609202 109.88391768140819 L 1065.9649932906257 109.98320233390143 L 1065.8296539175105 110.08188012231469 L 1065.6921384753998 110.17994117895135 L 1065.5524607157226 110.27737569778748 L 1065.410634606139 110.37417393545236 L 1065.2666743291413 110.47032621220293 L 1065.1205942806375 110.5658229128916 L 1064.9724090685106 110.66065448792793 L 1064.8221335111584 110.7548114542334 L 1064.6697826360114 110.84828439618985 L 1064.51537167803 110.941063966581 L 1064.358916078182 111.03314088752711 L 1064.2004314818957 111.12450595141281 L 1064.0399337375 111.21515002180787 L 1063.8774388946347 111.30506403438078 L 1063.7129632026492 111.39423899780519 L 1063.5465231089754 111.48266599465909 L 1063.3781352574838 111.57033618231648 L 1063.2078164868196 111.65724079383165 L 1063.0355838287178 111.74337113881587 L 1062.8614545063006 111.82871860430642 L 1062.685445932355 111.91327465562787 L 1062.507575707592 111.99703083724555 L 1062.327861618886 112.07997877361109 L 1062.1463216374955 112.16211016999999 L 1061.9629739172678 112.24341681334106 L 1061.777836792822 112.32389057303769 L 1061.5909287777165 112.40352340178099 L 1061.4022685625966 112.48230733635444 L 1061.2118750133272 112.56023449843025 L 1061.019767169104 112.63729709535714 L 1060.8259642405517 112.71348742093964 L 1060.6304856078013 112.78879785620869 L 1060.4333508185537 112.8632208701835 L 1060.234579586123 112.93674902062472 L 1060.034191787467 113.00937495477855 L 1059.8322074611988 113.08109141011211 L 1059.6286468055823 113.15189121503964 L 1059.4235301765139 113.22176728963963 L 1059.2168780854852 113.29071264636286 L 1059.0087111975333 113.35872039073111 L 1058.7990503291733 113.42578372202661 L 1058.5879164463176 113.49189593397213 L 1058.3753306621784 113.55705041540155 L 1058.1613142351569 113.62124065092104 L 1057.9458885667175 113.68446022156053 L 1057.7290751992475 113.74670280541565 L 1057.510895813903 113.80796217827987 L 1057.2913722284409 113.86823221426694 L 1057.0705263950365 113.92750688642352 L 1056.8483803980894 113.98578026733178 L 1056.624956452014 114.04304652970217 L 1056.4002768990185 114.09929994695618 L 1056.1743642068714 114.15453489379898 L 1055.9472409666535 114.20874584678191 L 1055.7189298904993 114.26192738485484 L 1055.4894538093265 114.31407418990828 L 1055.258835670552 114.36518104730519 L 1055.0270985357972 114.4152428464024 L 1054.7942655785826 114.46425458106174 L 1054.56036008201 114.51221135015058 L 1054.325405436434 114.55910835803196 L 1054.0894251371235 114.6049409150442 L 1053.8524427819116 114.64970443796976 L 1053.6144820688364 114.69339445049368 L 1053.375566793771 114.7360065836511 L 1053.1357208480435 114.77753657626423 L 1052.8949682160492 114.81798027536838 L 1052.6533329728502 114.85733363662739 L 1052.4108392817695 114.8955927247379 L 1052.1675113919744 114.93275371382298 L 1051.9233736360509 114.96881288781469 L 1051.6784504275709 115.0037666408257 L 1051.4327662586516 115.03761147750981 L 1051.186345697505 115.07034401341159 L 1050.9392133859817 115.10196097530469 L 1050.691394037107 115.13245920151928 L 1050.4429124326095 115.16183564225817 L 1050.1937934204425 115.19008735990175 L 1049.9440619122993 115.21721152930179 L 1049.6937428811227 115.24320543806398 L 1049.4428613586076 115.26806648681908 L 1049.1914424326967 115.29179218948295 L 1048.9395112450736 115.31438017350509 L 1048.6870929886466 115.33582818010592 L 1048.4342129050312 115.35613406450264 L 1048.180896282025 115.37529579612375 L 1047.9271684510793 115.39331145881205 L 1047.6730547847658 115.41017925101629 L 1047.4185806942392 115.42589748597129 L 1047.1637716266966 115.44046459186667 L 1046.9086530628322 115.45387911200397 L 1046.6532505142902 115.46613970494236 L 1046.3975895211122 115.47724514463276 L 1046.1416956491848 115.48719432054045 L 1045.8855944876818 115.49598623775614 L 1045.6293116465058 115.50362001709544 L 1045.3728727537275 115.51009489518677 L 1045.1163034530225 115.5154102245477 L 1044.8596294011072 115.51956547364975 L 1044.6028762651724 115.52256022697145 L 1044.3460697203184 115.52439418504 L 1044.0892354469852 115.52506716446106 L 1043.832399128386 115.52457909793732 L 1043.5755864479393 115.52293003427498 L 1043.3188230866983 115.52012013837903 L 1043.0621347207857 115.51614969123673 L 1042.8055470188242 115.51101908988952 L 1042.5490856393699 115.50472884739318 L 1042.2927762283473 115.4972795927668 L 1042.0366444164836 115.48867207092958 L 1041.7807158167468 115.47890714262655 L 1041.5250160217834 115.4679857843424 L 1041.2695706013599 115.45590908820387 L 1041.0144050998056 115.4426782618705 L 1040.759545033458 115.42829462841388 L 1040.505015888111 115.4127596261854 L 1040.2508431164674 115.39607480867232 L 1039.9970521355924 115.3782418443425 L 1039.7436683243727 115.35926251647749 L 1039.4907170209783 115.33913872299428 L 1039.2382235203286 115.31787247625543 L 1038.9862130715633 115.29546590286792 L 1038.7347108755173 115.27192124347039 L 1038.4837420822007 115.24724085250918 L 1038.2333317882833 115.2214271980028 L 1037.9835050345864 115.1944828612952 L 1037.7342868035767 115.1664105367976 L 1037.48570201687 115.13721303171906 L 1037.2377755327375 115.10689326578573 L 1036.990532143621 115.07545427094897 L 1036.7439965736537 115.04289919108203 L 1036.498193476187 115.0092312816658 L 1036.2531474313257 114.97445390946316 L 1036.00888294347 114.93857055218234 L 1035.7654244388657 114.90158479812916 L 1035.5227962631595 114.86350034584822 L 1035.2810226789675 114.824321003753 L 1035.0401278634465 114.78405068974506 L 1034.800135905877 114.74269343082224 L 1034.561070805255 114.70025336267598 L 1034.3229564678913 114.65673472927773 L 1034.0858167050212 114.61214188245454 L 1033.8496752304236 114.56647928145395 L 1033.6145556580489 114.51975149249802 L 1033.3804814996581 114.47196318832667 L 1033.1474761624727 114.42311914773052 L 1032.9155629468319 114.37322425507293 L 1032.6847650438638 114.32228349980157 L 1032.4551055331667 114.27030197594954 L 1032.2266073805001 114.21728488162587 L 1031.9992934354889 114.16323751849586 L 1031.7731864293382 114.10816529125074 L 1031.54830897256 114.05207370706736 L 1031.324683552713 113.9949683750574 L 1031.1023325321526 113.93685500570646 L 1030.8812781457952 113.87773941030305 L 1030.6615424988959 113.81762750035746 L 1030.4431475648357 113.75652528701059 L 1030.2261151829266 113.69443888043284 L 1030.0104670562253 113.63137448921314 L 1029.7962247493651 113.56733841973806 L 1029.5834096863982 113.5023370755612 L 1029.3720431486533 113.43637695676277 L 1029.1621462726084 113.36946465929971 L 1028.9537400477757 113.301606874346 L 1028.7468453146046 113.2328103876236 L 1028.5414827623954 113.16308207872383 L 1028.3376729272327 113.0924289204195 L 1028.1354361899298 113.02085797796754 L 1027.9347927739923 112.94837640840255 L 1027.7357627435943 112.8749914598211 L 1027.5383660015727 112.8007104706569 L 1027.342622287438 112.72554086894695 L 1027.1485511753976 112.64949017158878 L 1026.9561720724018 112.57256598358876 L 1026.7655042162 112.49477599730159 L 1026.5765666734192 112.41612799166106 L 1026.3893783376561 112.3366298314022 L 1026.2039579275884 112.2562894662748 L 1026.0203239851023 112.1751149302484 L 1025.8384948734395 112.09311434070896 L 1025.6584887753593 112.01029589764713 L 1025.4803236913217 111.92666788283817 L 1025.3040174376865 111.84223865901389 L 1025.1295876449321 111.7570166690263 L 1024.9570517558925 111.67101043500338 L 1024.786427024013 111.58422855749687 L 1024.6177305116241 111.4966797146222 L 1024.450979088237 111.40837266119071 L 1024.2861894288549 111.31931622783415 L 1024.1233780123064 111.22951932012163 L 1023.9625611195972 111.13899091766909 L 1023.803754832283 111.04774007324134 L 1023.64697503086 110.9557759118468 L 1023.4922373931776 110.86310762982494 L 1023.3395573928708 110.76974449392677 L 1023.1889502978122 110.67569584038806 L 1023.0404311685861 110.58097107399578 L 1022.8940148569814 110.48557966714766 L 1022.7497160045073 110.38953115890487 L 1022.6075490409287 110.2928351540382 L 1022.4675281828237 110.19550132206757 L 1022.3296674321614 110.09753939629505 L 1022.1939805749018 109.99895917283158 L 1022.0604811796178 109.89977050961737 L 1021.9291825961374 109.79998332543607 L 1021.8000979542097 109.69960759892295 L 1021.6732401621914 109.59865336756702 L 1021.5486219057558 109.4971307267073 L 1021.4262556466249 109.39504982852324 L 1021.3061536213224 109.29242088101961 L 1021.188327839951 109.18925414700563 L 1021.0727900849904 109.08555994306874 L 1020.9595519101199 108.98134863854291 L 1020.8486246390628 108.87663065447177 L 1020.7400193644535 108.77141646256644 L 1020.6337469467292 108.66571658415843 L 1020.5298180130428 108.55954158914753 L 1020.4282429562014 108.45290209494473 L 1020.329031933626 108.3458087654106 L 1020.2321948663358 108.23827230978884 L 1020.1377414379573 108.1303034816354 L 1020.0456810937544 108.02191307774314 L 1019.9560230396849 107.9131119370621 L 1019.8687762414793 107.80391093961568 L 1019.783949423745 107.69432100541265 L 1019.7015510690927 107.58435309335508 L 1019.6215894172896 107.47401820014255 L 1019.5440724644341 107.36332735917243 L 1019.4690079621568 107.25229163943658 L 1019.3964034168454 107.14092214441445 L 1019.326266088894 107.0292300109627 L 1019.2586029919769 106.91722640820164 L 1019.1934208923475 106.80492253639821 L 1019.1307263081612 106.69232962584596 L 1019.0705255088245 106.57945893574217 L 1019.0128245143669 106.46632175306175 L 1018.95762909484 106.35292939142872 L 1018.9049447697395 106.23929318998472 L 1018.8547768074542 106.12542451225522 L 1018.8071302247383 106.0113347450131 L 1018.7620097862107 105.89703529714001 L 1018.7194200038774 105.78253759848548 L 1018.6793651366812 105.66785309872397 L 1018.6418491900755 105.55299326620987 L 1018.6068759156236 105.43796958683073 L 1018.5744488106238 105.32279356285864 L 1018.5445711177597 105.2074767118 L 1018.5172458247756 105.09203056524383 L 1018.4924756641781 104.97646666770858 L 1018.4702631129625 104.8607965754877 L 1018.4506103923654 104.74503185549402 L 1018.4335194676428 104.62918408410306 L 1018.4189920478725 104.51326484599544 L 1018.4070295857846 104.39728573299836 L 1018.3976332776152 104.28125834292646 L 1018.3908040629875 104.16519427842208 L 1018.3865426248171 104.04910514579494 L 1018.3848493892443 103.93300255386156" stroke-miterlimit="10" stroke-width="2.990598758" stroke-dasharray=""/></g><g><g/><text fill="black" stroke="none" font-family="sans-serif" font-size="11pt" font-style="normal" font-weight="normal" text-decoration="normal" x="1011.3665731463216" y="134.401026536" text-anchor="start" dominant-baseline="alphabetic" xml:space="preserve">Database</text></g><g><path fill="white" stroke="black" paint-order="fill stroke markers" d=" M 1151.9012480906927 86.79773101159998 A 26.123759739 26.123759739 0 1 1 1151.901235028814 86.77160725621492 M 1098.1584292336927 115.31396975699997 L 1150.4059487116926 115.31396975699997" stroke-miterlimit="10" stroke-width="2.990598758" stroke-dasharray=""/></g><g><g/><text fill="black" stroke="none" font-family="sans-serif" font-size="11pt" font-style="normal" font-weight="normal" text-decoration="normal" x="1096.8440548189778" y="134.401026536" text-anchor="start" dominant-baseline="alphabetic" xml:space="preserve">Account</text></g></g><g><path fill="white" stroke="black" paint-order="fill stroke markers" d=" M 210.045084244694 197.73135317599997 L 227.63684164469402 197.73135317599997 L 227.63684164469402 889.087418996 L 210.045084244694 889.087418996 L 210.045084244694 197.73135317599997" stroke-miterlimit="10" stroke-width="1.4659797833333332" stroke-dasharray=""/><path fill="white" stroke="black" paint-order="fill stroke markers" d=" M 400.3892591644857 349.02046681599995 L 417.9810165644857 349.02046681599995 L 417.9810165644857 889.087418996 L 400.3892591644857 889.087418996 L 400.3892591644857 349.02046681599995" stroke-miterlimit="10" stroke-width="1.4659797833333332" stroke-dasharray=""/><path fill="white" stroke="black" paint-order="fill stroke markers" d=" M 590.7334340842774 451.05265973599995 L 608.3251914842774 451.05265973599995 L 608.3251914842774 889.087418996 L 590.7334340842774 889.087418996 L 590.7334340842774 451.05265973599995" stroke-miterlimit="10" stroke-width="1.4659797833333332" stroke-dasharray=""/><path fill="white" stroke="black" paint-order="fill stroke markers" d=" M 781.077609004069 553.084852656 L 798.669366404069 553.084852656 L 798.669366404069 889.087418996 L 781.077609004069 889.087418996 L 781.077609004069 553.084852656" stroke-miterlimit="10" stroke-width="1.4659797833333332" stroke-dasharray=""/><path fill="white" stroke="black" paint-order="fill stroke markers" d=" M 789.873487704069 674.467978716 L 807.465245104069 674.467978716 L 807.465245104069 772.9818201559999 L 789.873487704069 772.9818201559999 L 789.873487704069 674.467978716" stroke-miterlimit="10" stroke-width="1.4659797833333332" stroke-dasharray=""/><g><g><rect fill="white" stroke="none" x="76.53832873270834" y="174.86206855599997" width="99.794372923125" height="22.86928462"/></g><text fill="black" stroke="none" font-family="sans-serif" font-size="11pt" font-style="normal" font-weight="normal" text-decoration="normal" x="79.17709234270833" y="190.69465021599999" text-anchor="start" dominant-baseline="alphabetic" xml:space="preserve">addAccount()</text></g><g><path fill="none" stroke="black" paint-order="fill stroke markers" d=" M 42.82594614384766 197.73135317599997 L 207.11312467802733 197.73135317599997" stroke-miterlimit="10" stroke-width="1.4659797833333332" stroke-dasharray=""/><g transform="translate(210.045084244694,197.73135317599997) translate(-210.045084244694,-197.73135317599997)"><path fill="black" stroke="none" paint-order="stroke fill markers" d=" M 195.38528641136068 190.4014542593333 L 210.045084244694 197.73135317599997 L 195.38528641136068 205.06125209266665 Z"/></g></g><g><g><rect fill="white" stroke="none" x="63.64285906718099" y="224.11898927599995" width="125.58531225417968" height="22.86928462"/></g><text fill="black" stroke="none" font-family="sans-serif" font-size="11pt" font-style="normal" font-weight="normal" text-decoration="normal" x="66.28162267718099" y="239.95157093599997" text-anchor="start" dominant-baseline="alphabetic" xml:space="preserve">return c : CusInfo</text></g><g><path fill="none" stroke="black" paint-order="fill stroke markers" d=" M 42.82594614384766 246.98827389599995 L 207.11312467802733 246.98827389599995" stroke-miterlimit="10" stroke-width="1.4659797833333332" stroke-dasharray=""/><g transform="translate(210.045084244694,246.98827389599995) translate(-210.045084244694,-246.98827389599995)"><path fill="black" stroke="none" paint-order="stroke fill markers" d=" M 195.38528641136068 239.65837497933327 L 210.045084244694 246.98827389599995 L 195.38528641136068 254.31817281266663 Z"/></g></g><g><g><rect fill="white" stroke="none" x="248.45375456802736" y="273.37590999599996" width="94.89816320632812" height="22.86928462"/></g><g><rect fill="white" stroke="none" x="248.45375456802736" y="290.96766739599997" width="106.37271154617187" height="22.86928462"/></g><g><rect fill="white" stroke="none" x="248.45375456802736" y="308.559424796" width="104.88380468582031" height="22.86928462"/></g><g><rect fill="white" stroke="none" x="248.45375456802736" y="326.151182196" width="131.118591673125" height="22.86928462"/></g><text fill="black" stroke="none" font-family="sans-serif" font-size="11pt" font-style="normal" font-weight="normal" text-decoration="normal" x="251.09251817802738" y="289.208491656" text-anchor="start" dominant-baseline="alphabetic" xml:space="preserve">addAccount(</text><text fill="black" stroke="none" font-family="sans-serif" font-size="11pt" font-style="normal" font-weight="normal" text-decoration="normal" x="251.09251817802738" y="306.800249056" text-anchor="start" dominant-baseline="alphabetic" xml:space="preserve">name : String, </text><text fill="black" stroke="none" font-family="sans-serif" font-size="11pt" font-style="normal" font-weight="normal" text-decoration="normal" x="251.09251817802738" y="324.392006456" text-anchor="start" dominant-baseline="alphabetic" xml:space="preserve">Email : String, </text><text fill="black" stroke="none" font-family="sans-serif" font-size="11pt" font-style="normal" font-weight="normal" text-decoration="normal" x="251.09251817802738" y="341.983763856" text-anchor="start" dominant-baseline="alphabetic" xml:space="preserve">password : String)</text></g><g><path fill="none" stroke="black" paint-order="fill stroke markers" d=" M 227.63684164469402 349.02046681599995 L 397.45729959781903 349.02046681599995" stroke-miterlimit="10" stroke-width="1.4659797833333332" stroke-dasharray=""/><g transform="translate(400.3892591644857,349.02046681599995) translate(-400.3892591644857,-349.02046681599995)"><path fill="black" stroke="none" paint-order="stroke fill markers" d=" M 385.7294613311523 341.6905678993333 L 400.3892591644857 349.02046681599995 L 385.7294613311523 356.3503657326666 Z"/></g></g><g><g><rect fill="white" stroke="none" x="438.79792948781903" y="375.40810291599996" width="94.89816320632812" height="22.86928462"/></g><g><rect fill="white" stroke="none" x="438.79792948781903" y="392.99986031599997" width="106.37271154617187" height="22.86928462"/></g><g><rect fill="white" stroke="none" x="438.79792948781903" y="410.591617716" width="104.88380468582031" height="22.86928462"/></g><g><rect fill="white" stroke="none" x="438.79792948781903" y="428.183375116" width="131.118591673125" height="22.86928462"/></g><text fill="black" stroke="none" font-family="sans-serif" font-size="11pt" font-style="normal" font-weight="normal" text-decoration="normal" x="441.43669309781905" y="391.240684576" text-anchor="start" dominant-baseline="alphabetic" xml:space="preserve">addAccount(</text><text fill="black" stroke="none" font-family="sans-serif" font-size="11pt" font-style="normal" font-weight="normal" text-decoration="normal" x="441.43669309781905" y="408.832441976" text-anchor="start" dominant-baseline="alphabetic" xml:space="preserve">name : String, </text><text fill="black" stroke="none" font-family="sans-serif" font-size="11pt" font-style="normal" font-weight="normal" text-decoration="normal" x="441.43669309781905" y="426.424199376" text-anchor="start" dominant-baseline="alphabetic" xml:space="preserve">Email : String, </text><text fill="black" stroke="none" font-family="sans-serif" font-size="11pt" font-style="normal" font-weight="normal" text-decoration="normal" x="441.43669309781905" y="444.015956776" text-anchor="start" dominant-baseline="alphabetic" xml:space="preserve">password : String)</text></g><g><path fill="none" stroke="black" paint-order="fill stroke markers" d=" M 417.9810165644857 451.05265973599995 L 587.8014745176107 451.05265973599995" stroke-miterlimit="10" stroke-width="1.4659797833333332" stroke-dasharray=""/><g transform="translate(590.7334340842774,451.05265973599995) translate(-590.7334340842774,-451.05265973599995)"><path fill="black" stroke="none" paint-order="stroke fill markers" d=" M 576.0736362509441 443.7227608193333 L 590.7334340842774 451.05265973599995 L 576.0736362509441 458.3825586526666 Z"/></g></g><g><g><rect fill="white" stroke="none" x="629.1421044076108" y="477.44029583599996" width="94.89816320632812" height="22.86928462"/></g><g><rect fill="white" stroke="none" x="629.1421044076108" y="495.03205323599997" width="106.37271154617187" height="22.86928462"/></g><g><rect fill="white" stroke="none" x="629.1421044076108" y="512.6238106359999" width="104.88380468582031" height="22.86928462"/></g><g><rect fill="white" stroke="none" x="629.1421044076108" y="530.2155680359999" width="131.118591673125" height="22.86928462"/></g><text fill="black" stroke="none" font-family="sans-serif" font-size="11pt" font-style="normal" font-weight="normal" text-decoration="normal" x="631.7808680176107" y="493.272877496" text-anchor="start" dominant-baseline="alphabetic" xml:space="preserve">addAccount(</text><text fill="black" stroke="none" font-family="sans-serif" font-size="11pt" font-style="normal" font-weight="normal" text-decoration="normal" x="631.7808680176107" y="510.864634896" text-anchor="start" dominant-baseline="alphabetic" xml:space="preserve">name : String, </text><text fill="black" stroke="none" font-family="sans-serif" font-size="11pt" font-style="normal" font-weight="normal" text-decoration="normal" x="631.7808680176107" y="528.456392296" text-anchor="start" dominant-baseline="alphabetic" xml:space="preserve">Email : String, </text><text fill="black" stroke="none" font-family="sans-serif" font-size="11pt" font-style="normal" font-weight="normal" text-decoration="normal" x="631.7808680176107" y="546.048149696" text-anchor="start" dominant-baseline="alphabetic" xml:space="preserve">password : String)</text></g><g><path fill="none" stroke="black" paint-order="fill stroke markers" d=" M 608.3251914842774 553.084852656 L 778.1456494374023 553.084852656" stroke-miterlimit="10" stroke-width="1.4659797833333332" stroke-dasharray=""/><g transform="translate(781.077609004069,553.084852656) translate(-781.077609004069,-553.084852656)"><path fill="black" stroke="none" paint-order="stroke fill markers" d=" M 766.4178111707357 545.7549537393332 L 781.077609004069 553.084852656 L 766.4178111707357 560.4147515726667 Z"/></g></g><g><g><rect fill="white" stroke="none" x="872.5742516363867" y="579.472488756" width="97.58964575027343" height="22.86928462"/></g><text fill="black" stroke="none" font-family="sans-serif" font-size="11pt" font-style="normal" font-weight="normal" text-decoration="normal" x="875.2130152463867" y="595.3050704159999" text-anchor="start" dominant-baseline="alphabetic" xml:space="preserve">oid := getId()</text></g><g><path fill="none" stroke="black" paint-order="fill stroke markers" d=" M 798.669366404069 602.341773376 L 1041.1368230523112 602.341773376" stroke-miterlimit="10" stroke-width="1.4659797833333332" stroke-dasharray=""/><g transform="translate(1044.0687826189778,602.341773376) translate(-1044.0687826189778,-602.341773376)"><path fill="black" stroke="none" paint-order="stroke fill markers" d=" M 1029.4089847856444 595.0118744593333 L 1044.0687826189778 602.341773376 L 1029.4089847856444 609.6716722926667 Z"/></g></g><g><g><rect fill="white" stroke="none" x="828.2821580274024" y="628.729409476" width="197.75424230789062" height="22.86928462"/></g><text fill="black" stroke="none" font-family="sans-serif" font-size="11pt" font-style="normal" font-weight="normal" text-decoration="normal" x="830.9209216374023" y="644.561991136" text-anchor="start" dominant-baseline="alphabetic" xml:space="preserve">performUpdate(sql : String)</text></g><g><path fill="none" stroke="black" paint-order="fill stroke markers" d=" M 798.669366404069 651.5986940959999 L 877.832274704069 651.5986940959999 L 877.832274704069 674.467978716 L 810.3972046707357 674.467978716" stroke-miterlimit="10" stroke-width="1.4659797833333332" stroke-dasharray=""/><g transform="translate(807.465245104069,674.467978716) translate(-807.465245104069,-674.467978716)"><path fill="black" stroke="none" paint-order="stroke fill markers" d=" M 822.1250429374023 667.1380797993332 L 807.465245104069 674.467978716 L 822.1250429374023 681.7978776326667 Z"/></g></g><g><g><rect fill="white" stroke="none" x="828.2821580274024" y="700.855614816" width="194.96971166824218" height="22.86928462"/></g><text fill="black" stroke="none" font-family="sans-serif" font-size="11pt" font-style="normal" font-weight="normal" text-decoration="normal" x="830.9209216374023" y="716.6881964759999" text-anchor="start" dominant-baseline="alphabetic" xml:space="preserve">executeUpdate(sql : String)</text></g><g><path fill="none" stroke="black" paint-order="fill stroke markers" d=" M 807.465245104069 723.724899436 L 1041.1368230523112 723.724899436" stroke-miterlimit="10" stroke-width="1.4659797833333332" stroke-dasharray=""/><g transform="translate(1044.0687826189778,723.724899436) translate(-1044.0687826189778,-723.724899436)"><path fill="black" stroke="none" paint-order="stroke fill markers" d=" M 1029.4089847856444 716.3950005193333 L 1044.0687826189778 723.724899436 L 1029.4089847856444 731.0547983526667 Z"/></g></g><g><g><rect fill="white" stroke="none" x="828.2821580274024" y="750.112535536" width="114.57600439285156" height="22.86928462"/></g><text fill="black" stroke="none" font-family="sans-serif" font-size="11pt" font-style="normal" font-weight="normal" text-decoration="normal" x="830.9209216374023" y="765.945117196" text-anchor="start" dominant-baseline="alphabetic" xml:space="preserve">return ErrorInfo</text></g><g><path fill="none" stroke="black" paint-order="fill stroke markers" d=" M 807.465245104069 772.9818201559999 L 877.832274704069 772.9818201559999 L 877.832274704069 795.8511047759999 L 801.6013259707357 795.8511047759999" stroke-miterlimit="10" stroke-width="1.4659797833333332" stroke-dasharray="7.0367029599999995"/><g transform="translate(798.669366404069,795.8511047759999) translate(-798.669366404069,-795.8511047759999)"><path fill="black" stroke="none" paint-order="stroke fill markers" d=" M 813.3291642374023 788.5212058593332 L 798.669366404069 795.8511047759999 L 813.3291642374023 803.1810036926666 Z"/></g></g><g><g><rect fill="white" stroke="none" x="453.79792948781903" y="822.238740876" width="101.118591673125" height="22.86928462"/></g><text fill="black" stroke="none" font-family="sans-serif" font-size="11pt" font-style="normal" font-weight="normal" text-decoration="normal" x="456.43669309781905" y="838.0713225359999" text-anchor="start" dominant-baseline="alphabetic" xml:space="preserve">Register Error</text></g><g><path fill="none" stroke="black" paint-order="fill stroke markers" d=" M 781.077609004069 845.108025496 L 230.5688012113607 845.108025496" stroke-miterlimit="10" stroke-width="1.4659797833333332" stroke-dasharray="7.0367029599999995"/><g transform="translate(227.63684164469402,845.108025496) translate(-227.63684164469402,-845.108025496)"><path fill="black" stroke="none" paint-order="stroke fill markers" d=" M 242.29663947802734 837.7781265793333 L 227.63684164469402 845.108025496 L 242.29663947802734 852.4379244126667 Z"/></g></g></g><g/><g/><g/><g/><g/><g/><g/></g></svg>