<svg version="1.1" xmlns="http://www.w3.org/2000/svg" xmlns:xlink="http://www.w3.org/1999/xlink" width="1209" height="1286"><defs/><g><g/><g/><g/><g/><g/><g/><g/><g/><g/><g/><g/><g/><g/><g/><g/><g/><g/><g/><g/><g/><g/><g/><g/><g/><g/><g/><g/><g/><g><rect fill="white" stroke="none" x="0" y="0" width="1209" height="1286"/></g><g><text fill="black" stroke="none" font-family="sans-serif" font-size="16.5pt" font-style="normal" font-weight="normal" text-decoration="normal" x="537.934250113973" y="26.3876361" text-anchor="start" dominant-baseline="alphabetic" xml:space="preserve">Register BCE</text></g><g/><g><path fill="none" stroke="black" paint-order="fill stroke markers" d=" M 42.82594614384766 139.67855375599999 L 42.82594614384766 1286.4500351472" stroke-miterlimit="10" stroke-width="1.4659797833333332" stroke-dasharray="13.532121076923076,5.863919133333333"/><path fill="none" stroke="black" paint-order="fill stroke markers" d=" M 218.840962944694 139.67855375599999 L 218.840962944694 1286.4500351472" stroke-miterlimit="10" stroke-width="1.4659797833333332" stroke-dasharray="13.532121076923076,5.863919133333333"/><path fill="none" stroke="black" paint-order="fill stroke markers" d=" M 417.9810165644857 139.67855375599999 L 417.9810165644857 1286.4500351472" stroke-miterlimit="10" stroke-width="1.4659797833333332" stroke-dasharray="13.532121076923076,5.863919133333333"/><path fill="none" stroke="black" paint-order="fill stroke markers" d=" M 617.1210701842774 139.67855375599999 L 617.1210701842774 1286.4500351472" stroke-miterlimit="10" stroke-width="1.4659797833333332" stroke-dasharray="13.532121076923076,5.863919133333333"/><path fill="none" stroke="black" paint-order="fill stroke markers" d=" M 807.465245104069 139.67855375599999 L 807.465245104069 1286.4500351472" stroke-miterlimit="10" stroke-width="1.4659797833333332" stroke-dasharray="13.532121076923076,5.863919133333333"/><path fill="none" stroke="black" paint-order="fill stroke markers" d=" M 1061.6605400189778 139.67855375599999 L 1061.6605400189778 1286.4500351472" stroke-miterlimit="10" stroke-width="1.4659797833333332" stroke-dasharray="13.532121076923076,5.863919133333333"/><path fill="none" stroke="black" paint-order="fill stroke markers" d=" M 1171.2993442452312 955.7249960272 L 1171.2993442452312 1286.4500351472" stroke-miterlimit="10" stroke-width="1.4659797833333332" stroke-dasharray="13.532121076923076,5.863919133333333"/></g><g><g><path fill="white" stroke="black" paint-order="fill stroke markers" d=" M 52.853247861847656 65.265419954 A 10.027301717999999 10.027301717999999 0 1 1 52.85324284819722 65.25539265395321 M 42.82594614384766 75.29272167199998 L 42.82594614384766 96.75466569999998 M 30.15988081584766 83.033094928 L 55.49201147184766 83.033094928 M 42.82594614384766 96.75466569999998 L 30.15988081584766 116.80926913599998 M 42.82594614384766 96.75466569999998 L 55.49201147184766 116.80926913599998" stroke-miterlimit="10" stroke-width="2.990598758" stroke-dasharray=""/></g><g><g/><text fill="black" stroke="none" font-family="sans-serif" font-size="11pt" font-style="normal" font-weight="normal" text-decoration="normal" x="8.795878700000003" y="134.401026536" text-anchor="start" dominant-baseline="alphabetic" xml:space="preserve">Customer</text></g><g><path fill="white" stroke="black" paint-order="fill stroke markers" d=" M 253.76060138369402 89.19021001799997 A 26.123759739 26.123759739 0 1 1 253.76058832181525 89.16408626261492 M 185.416623884694 61.57115089999997 L 185.416623884694 116.80926913599997 M 183.921324505694 89.19021001799997 L 201.513081905694 89.19021001799997" stroke-miterlimit="10" stroke-width="2.990598758" stroke-dasharray=""/></g><g><g/><text fill="black" stroke="none" font-family="sans-serif" font-size="11pt" font-style="normal" font-weight="normal" text-decoration="normal" x="177.18383556432292" y="134.401026536" text-anchor="start" dominant-baseline="alphabetic" xml:space="preserve">CustomerUI</text></g><g><path fill="white" stroke="black" paint-order="fill stroke markers" d=" M 444.10477630348566 89.19021001799997 A 26.123759739 26.123759739 0 1 1 444.1047632416069 89.16408626261492 M 414.4626650844857 63.06645027899997 L 425.0177195244857 54.27057157899998 M 414.4626650844857 63.06645027899997 L 425.0177195244857 71.86232897899997" stroke-miterlimit="10" stroke-width="2.990598758" stroke-dasharray=""/></g><g><g/><text fill="black" stroke="none" font-family="sans-serif" font-size="11pt" font-style="normal" font-weight="normal" text-decoration="normal" x="363.6324142695638" y="134.401026536" text-anchor="start" dominant-baseline="alphabetic" xml:space="preserve">HospitalSystem</text></g><path fill="none" stroke="none"/><g><path fill="white" stroke="black" paint-order="fill stroke markers" d=" M 568.9466873554727 92.18080877599999 L 665.2954530130821 92.18080877599999 L 665.2954530130821 139.67855375599999 L 568.9466873554727 139.67855375599999 L 568.9466873554727 92.18080877599999 Z" stroke-miterlimit="10" stroke-width="2.814681184" stroke-dasharray=""/></g><g><g/><text fill="black" stroke="none" font-family="sans-serif" font-size="11pt" font-style="normal" font-weight="normal" text-decoration="normal" x="588.0337441344727" y="122.08679635600001" text-anchor="start" dominant-baseline="alphabetic" xml:space="preserve">Hospital</text></g><path fill="none" stroke="none"/><g><path fill="white" stroke="black" paint-order="fill stroke markers" d=" M 731.9107582103229 92.18080877599999 L 883.0197319978151 92.18080877599999 L 883.0197319978151 139.67855375599999 L 731.9107582103229 139.67855375599999 L 731.9107582103229 92.18080877599999 Z" stroke-miterlimit="10" stroke-width="2.814681184" stroke-dasharray=""/></g><g><g/><text fill="black" stroke="none" font-family="sans-serif" font-size="11pt" font-style="normal" font-weight="normal" text-decoration="normal" x="750.9978149893229" y="122.08679635600001" text-anchor="start" dominant-baseline="alphabetic" xml:space="preserve">AccountMapper</text></g><g><path fill="white" stroke="black" paint-order="fill stroke markers" d=" M 1035.9765742149777 105.19870925199999 L 1035.9765742149777 68.25601871199999 L 1087.344505822978 68.25601871199999 L 1087.344505822978 105.19870925199999" stroke-miterlimit="10" stroke-width="2.990598758" stroke-dasharray=""/><path fill="white" stroke="black" paint-order="fill stroke markers" d=" M 1087.344505822978 66.97182042179999 L 1087.3432216353892 67.08792408555635 L 1087.339369201041 67.20401613904309 L 1087.332948905174 67.3200849731516 L 1087.3239613898115 67.43611898109519 L 1087.3124075536982 67.55210655956978 L 1087.2982885522079 67.66803610991414 L 1087.281605797229 67.78389603926989 L 1087.2623609570232 67.8996747617406 L 1087.2405559560582 68.01536069955054 L 1087.2161929748163 68.1309422842023 L 1087.189274449575 68.24640795763378 L 1087.1598030721643 68.3617461733738 L 1087.127781789698 68.47694539769695 L 1087.093213804277 68.59199411077678 L 1087.0561025726713 68.70688080783783 L 1087.0164518059732 68.82159400030618 L 1086.9742654692263 68.93612221695814 L 1086.929547781029 69.0504540050675 L 1086.882303213113 69.16457793155072 L 1086.8325364898956 69.27848258411025 L 1086.7802525880077 69.39215657237577 L 1086.725456735796 69.50558852904317 L 1086.6681544127998 69.61876711101131 L 1086.608351349204 69.73168100051632 L 1086.5460535252648 69.84431890626333 L 1086.481267170713 69.95666956455563 L 1086.4139987641297 70.06872174042103 L 1086.3442550323 70.18046422873529 L 1086.2720429495384 70.29188585534273 L 1086.1973697369933 70.40297547817353 L 1086.1202428619238 70.51372198835797 L 1086.0406700369529 70.62411431133734 L 1085.958659219297 70.73414140797132 L 1085.8742186099694 70.84379227564195 L 1085.7873566529606 70.95305594935381 L 1085.698082034394 71.06192150283061 L 1085.6064036816574 71.1703780496077 L 1085.512330762509 71.27841474412082 L 1085.4158726841629 71.38602078279051 L 1085.3170390923462 71.4931854051026 L 1085.215839870336 71.59989789468413 L 1085.1122851379698 71.7061475803751 L 1085.0063852506348 71.81192383729548 L 1084.8981507982314 71.9172160879077 L 1084.787592604115 72.02201380307447 L 1084.6747217240122 72.12630650311159 L 1084.5595494449174 72.23008375883597 L 1084.4420872839626 72.33333519260853 L 1084.3223469872657 72.43605047937191 L 1084.200340528757 72.53821934768304 L 1084.07608010898 72.63983158074024 L 1083.949578153874 72.74087701740487 L 1083.8208473135282 72.84134555321748 L 1083.6899004609202 72.94122714140819 L 1083.5567506906257 73.04051179390143 L 1083.4214113175105 73.13918958231469 L 1083.2838958753998 73.23725063895135 L 1083.1442181157227 73.33468515778748 L 1083.002392006139 73.43148339545236 L 1082.8584317291413 73.52763567220293 L 1082.7123516806375 73.6231323728916 L 1082.5641664685106 73.71796394792793 L 1082.4138909111584 73.8121209142334 L 1082.2615400360114 73.90559385618985 L 1082.10712907803 73.998373426581 L 1081.950673478182 74.09045034752711 L 1081.7921888818958 74.18181541141281 L 1081.6316911375 74.27245948180787 L 1081.4691962946347 74.36237349438078 L 1081.3047206026492 74.45154845780519 L 1081.1382805089754 74.53997545465909 L 1080.9698926574838 74.62764564231648 L 1080.7995738868196 74.71455025383165 L 1080.6273412287178 74.80068059881587 L 1080.4532119063006 74.88602806430642 L 1080.277203332355 74.97058411562787 L 1080.099333107592 75.05434029724555 L 1079.919619018886 75.13728823361109 L 1079.7380790374955 75.21941962999999 L 1079.5547313172679 75.30072627334106 L 1079.369594192822 75.38120003303769 L 1079.1826861777165 75.46083286178099 L 1078.9940259625967 75.53961679635444 L 1078.8036324133273 75.61754395843025 L 1078.611524569104 75.69460655535714 L 1078.4177216405517 75.77079688093964 L 1078.2222430078014 75.84610731620869 L 1078.0251082185537 75.9205303301835 L 1077.826336986123 75.99405848062472 L 1077.625949187467 76.06668441477855 L 1077.4239648611988 76.13840087011211 L 1077.2204042055823 76.20920067503964 L 1077.0152875765139 76.27907674963963 L 1076.8086354854852 76.34802210636286 L 1076.6004685975333 76.4160298507311 L 1076.3908077291733 76.48309318202661 L 1076.1796738463177 76.54920539397213 L 1075.9670880621784 76.61435987540155 L 1075.7530716351569 76.67855011092104 L 1075.5376459667175 76.74176968156053 L 1075.3208325992475 76.80401226541565 L 1075.102653213903 76.86527163827986 L 1074.8831296284409 76.92554167426694 L 1074.6622837950365 76.98481634642351 L 1074.4401377980894 77.04308972733178 L 1074.216713852014 77.10035598970217 L 1073.9920342990185 77.15660940695618 L 1073.7661216068714 77.21184435379898 L 1073.5389983666535 77.26605530678191 L 1073.3106872904993 77.31923684485484 L 1073.0812112093265 77.37138364990828 L 1072.850593070552 77.42249050730518 L 1072.6188559357972 77.4725523064024 L 1072.3860229785826 77.52156404106174 L 1072.15211748201 77.56952081015058 L 1071.917162836434 77.61641781803196 L 1071.6811825371235 77.6622503750442 L 1071.4442001819116 77.70701389796976 L 1071.2062394688364 77.75070391049368 L 1070.967324193771 77.7933160436511 L 1070.7274782480436 77.83484603626422 L 1070.4867256160492 77.87528973536838 L 1070.2450903728502 77.91464309662739 L 1070.0025966817695 77.9529021847379 L 1069.7592687919744 77.99006317382297 L 1069.515131036051 78.02612234781469 L 1069.2702078275709 78.0610761008257 L 1069.0245236586516 78.09492093750981 L 1068.778103097505 78.12765347341158 L 1068.5309707859817 78.15927043530469 L 1068.283151437107 78.18976866151928 L 1068.0346698326096 78.21914510225817 L 1067.7855508204425 78.24739681990175 L 1067.5358193122993 78.27452098930179 L 1067.2855002811227 78.30051489806398 L 1067.0346187586076 78.32537594681908 L 1066.7831998326967 78.34910164948295 L 1066.5312686450736 78.37168963350508 L 1066.2788503886466 78.39313764010592 L 1066.0259703050313 78.41344352450264 L 1065.772653682025 78.43260525612375 L 1065.5189258510793 78.45062091881205 L 1065.2648121847658 78.46748871101629 L 1065.0103380942392 78.48320694597129 L 1064.7555290266966 78.49777405186667 L 1064.5004104628322 78.51118857200397 L 1064.2450079142902 78.52344916494236 L 1063.9893469211122 78.53455460463276 L 1063.7334530491848 78.54450378054045 L 1063.4773518876818 78.55329569775614 L 1063.2210690465058 78.56092947709544 L 1062.9646301537275 78.56740435518677 L 1062.7080608530225 78.57271968454769 L 1062.4513868011072 78.57687493364975 L 1062.1946336651724 78.57986968697145 L 1061.9378271203184 78.58170364504 L 1061.6809928469852 78.58237662446106 L 1061.424156528386 78.58188855793732 L 1061.1673438479393 78.58023949427498 L 1060.9105804866983 78.57742959837903 L 1060.6538921207857 78.57345915123673 L 1060.3973044188242 78.56832854988951 L 1060.1408430393699 78.56203830739318 L 1059.8845336283473 78.5545890527668 L 1059.6284018164836 78.54598153092958 L 1059.3724732167468 78.53621660262655 L 1059.1167734217834 78.5252952443424 L 1058.8613280013599 78.51321854820387 L 1058.6061624998056 78.4999877218705 L 1058.351302433458 78.48560408841388 L 1058.096773288111 78.4700690861854 L 1057.8426005164674 78.45338426867232 L 1057.5888095355924 78.4355513043425 L 1057.3354257243727 78.41657197647748 L 1057.0824744209783 78.39644818299428 L 1056.8299809203286 78.37518193625543 L 1056.5779704715633 78.35277536286792 L 1056.3264682755173 78.32923070347039 L 1056.0754994822007 78.30455031250918 L 1055.8250891882833 78.2787366580028 L 1055.5752624345864 78.2517923212952 L 1055.3260442035767 78.2237199967976 L 1055.07745941687 78.19452249171906 L 1054.8295329327375 78.16420272578573 L 1054.582289543621 78.13276373094897 L 1054.3357539736537 78.10020865108203 L 1054.089950876187 78.0665407416658 L 1053.8449048313257 78.03176336946316 L 1053.60064034347 77.99588001218234 L 1053.3571818388657 77.95889425812916 L 1053.1145536631595 77.92080980584822 L 1052.8727800789675 77.881630463753 L 1052.6318852634465 77.84136014974506 L 1052.391893305877 77.80000289082224 L 1052.152828205255 77.75756282267598 L 1051.9147138678914 77.71404418927773 L 1051.6775741050212 77.66945134245454 L 1051.4414326304236 77.62378874145395 L 1051.2063130580489 77.57706095249802 L 1050.9722388996581 77.52927264832667 L 1050.7392335624727 77.48042860773052 L 1050.5073203468319 77.43053371507293 L 1050.2765224438638 77.37959295980157 L 1050.0468629331667 77.32761143594954 L 1049.8183647805001 77.27459434162587 L 1049.5910508354889 77.22054697849586 L 1049.3649438293382 77.16547475125074 L 1049.14006637256 77.10938316706736 L 1048.916440952713 77.0522778350574 L 1048.6940899321526 76.99416446570646 L 1048.4730355457953 76.93504887030305 L 1048.2532998988959 76.87493696035746 L 1048.0349049648357 76.81383474701059 L 1047.8178725829266 76.75174834043284 L 1047.6022244562253 76.68868394921314 L 1047.3879821493651 76.62464787973806 L 1047.1751670863982 76.5596465355612 L 1046.9638005486534 76.49368641676277 L 1046.7539036726084 76.42677411929971 L 1046.5454974477757 76.358916334346 L 1046.3386027146046 76.2901198476236 L 1046.1332401623954 76.22039153872383 L 1045.9294303272327 76.14973838041949 L 1045.7271935899298 76.07816743796754 L 1045.5265501739923 76.00568586840255 L 1045.3275201435943 75.9323009198211 L 1045.1301234015727 75.8580199306569 L 1044.934379687438 75.78285032894695 L 1044.7403085753976 75.70679963158878 L 1044.5479294724018 75.62987544358876 L 1044.3572616162 75.55208545730159 L 1044.1683240734192 75.47343745166106 L 1043.9811357376561 75.3939392914022 L 1043.7957153275884 75.31359892627479 L 1043.6120813851023 75.2324243902484 L 1043.4302522734395 75.15042380070896 L 1043.2502461753593 75.06760535764712 L 1043.0720810913217 74.98397734283817 L 1042.8957748376865 74.89954811901389 L 1042.7213450449321 74.8143261290263 L 1042.5488091558925 74.72831989500338 L 1042.378184424013 74.64153801749687 L 1042.2094879116241 74.5539891746222 L 1042.042736488237 74.46568212119071 L 1041.8779468288549 74.37662568783415 L 1041.7151354123064 74.28682878012162 L 1041.5543185195972 74.19630037766909 L 1041.395512232283 74.10504953324134 L 1041.23873243086 74.0130853718468 L 1041.0839947931777 73.92041708982494 L 1040.9313147928708 73.82705395392676 L 1040.7807076978122 73.73300530038806 L 1040.6321885685861 73.63828053399578 L 1040.4857722569814 73.54288912714766 L 1040.3414734045073 73.44684061890487 L 1040.1993064409287 73.3501446140382 L 1040.0592855828238 73.25281078206757 L 1039.9214248321614 73.15484885629505 L 1039.7857379749018 73.05626863283157 L 1039.6522385796177 72.95707996961737 L 1039.5209399961375 72.85729278543607 L 1039.3918553542098 72.75691705892295 L 1039.2649975621914 72.65596282756702 L 1039.140379305756 72.5544401867073 L 1039.018013046625 72.45235928852324 L 1038.8979110213224 72.34973034101961 L 1038.780085239951 72.24656360700563 L 1038.6645474849904 72.14286940306874 L 1038.55130931012 72.03865809854291 L 1038.4403820390628 71.93394011447177 L 1038.3317767644535 71.82872592256643 L 1038.2255043467292 71.72302604415843 L 1038.1215754130428 71.61685104914753 L 1038.0200003562015 71.51021155494473 L 1037.9207893336259 71.4031182254106 L 1037.823952266336 71.29558176978884 L 1037.7294988379574 71.1876129416354 L 1037.6374384937544 71.07922253774314 L 1037.5477804396849 70.9704213970621 L 1037.4605336414793 70.86122039961568 L 1037.3757068237448 70.75163046541265 L 1037.2933084690928 70.64166255335508 L 1037.2133468172897 70.53132766014255 L 1037.135829864434 70.42063681917243 L 1037.0607653621569 70.30960109943658 L 1036.9881608168455 70.19823160441445 L 1036.918023488894 70.0865394709627 L 1036.850360391977 69.97453586820164 L 1036.7851782923474 69.86223199639821 L 1036.7224837081612 69.74963908584596 L 1036.6622829088244 69.63676839574217 L 1036.604581914367 69.52363121306175 L 1036.54938649484 69.41023885142872 L 1036.4967021697396 69.29660264998472 L 1036.446534207454 69.18273397225522 L 1036.3988876247383 69.0686442050131 L 1036.3537671862107 68.95434475714 L 1036.3111774038773 68.83984705848547 L 1036.271122536681 68.72516255872397 L 1036.2336065900754 68.61030272620987 L 1036.1986333156235 68.49527904683073 L 1036.1662062106238 68.38010302285863 L 1036.1363285177597 68.2647861718 L 1036.1090032247757 68.14934002524383 L 1036.084233064178 68.03377612770858 L 1036.0620205129626 67.9181060354877 L 1036.0423677923654 67.80234131549402 L 1036.0252768676428 67.68649354410306 L 1036.0107494478725 67.57057430599544 L 1035.9987869857846 67.45459519299835 L 1035.9893906776151 67.33856780292646 L 1035.9825614629874 67.22250373842208 L 1035.9783000248171 67.10641460579494 L 1035.9766067892444 66.99031201386155 L 1035.9774819255913 66.87420757278437 L 1035.9809253463452 66.75811289291076 L 1035.9869367071667 66.64203958361193 L 1035.9955154069248 66.52599925212212 L 1036.0066605877566 66.41000350237775 L 1036.0203711351535 66.29406393385715 L 1036.0366456780719 66.17819214042055 L 1036.0554825890713 66.06239970915072 L 1036.0768799844764 65.94669821919432 L 1036.100835724565 65.8310992406039 L 1036.1273474137834 65.71561433318102 L 1036.156412400985 65.60025504532017 L 1036.1880277796947 65.48503291285398 L 1036.2221903884013 65.36995945789971 L 1036.2588968108726 65.25504618770695 L 1036.2981433764967 65.14030459350695 L 1036.3399261606496 65.02574614936354 L 1036.3842409850881 64.91138231102563 L 1036.4310834183666 64.79722451478179 L 1036.4804487762804 64.68328417631649 L 1036.5323321223352 64.56957268956862 L 1036.5867282682398 64.45610142559212 L 1036.6436317744244 64.3428817314188 L 1036.7030369505862 64.22992492892377 L 1036.764937856257 64.1172423136931 L 1036.8293283013977 64.00484515389444 L 1036.8962018470177 63.89274468915009 L 1036.965551805818 63.78095212941312 L 1037.0373712428604 63.66947865384635 L 1037.1116529762614 63.558335409704426 L 1037.1883895779092 63.447533511219156 L 1037.2675733742076 63.337084038488044 L 1037.3491964468433 63.226998036366325 L 1037.4332506335766 63.11728651336247 L 1037.5197275290593 63.00796044053737 L 1037.6086184856736 62.899030750407185 L 1037.699914614398 62.790508335850156 L 1037.7936067856958 62.682404049017315 L 1037.889685630428 62.57472870024724 L 1037.98814154079 62.4674930569851 L 1038.0889646712728 62.36070784270584 L 1038.1921449396475 62.25438373584191 L 1038.2976720279732 62.148531368715396 L 1038.405535383629 62.04316132647479 L 1038.5157242203693 61.938284146036516 L 1038.6282275194021 61.83391031503122 L 1038.7430340304913 61.73005027075502 L 1038.8601322730815 61.6267143991258 L 1038.979510537446 61.52391303364461 L 1039.101156885858 61.42165645436233 L 1039.2250591537838 61.31995488685167 L 1039.3512049510998 61.21881850118463 L 1039.4795816633318 61.1182574109155 L 1039.610176452915 61.018281672069506 L 1039.74297626048 60.91890128213721 L 1039.877967806156 60.82012617907481 L 1040.015137590901 60.72196624031029 L 1040.1544718978514 60.62443128175571 L 1040.295956793692 60.52753105682567 L 1040.4395781300516 60.431275255461905 L 1040.5853215449158 60.33567350316434 L 1040.7331724640649 60.24073536002853 L 1040.88311610253 60.14647031978968 L 1041.0351374660722 60.05288780887326 L 1041.1892213526821 59.959997185452366 L 1041.3453523540993 59.86780773851195 L 1041.5035148573536 59.77632868691987 L 1041.6636930463264 59.68556917850505 L 1041.8258709033328 59.59553828914271 L 1041.990032210722 59.50624502184675 L 1042.1561605524996 59.41769830586949 L 1042.3242393159705 59.32990699580875 L 1042.4942516933982 59.24287987072236 L 1042.6661806836864 59.15662563325033 L 1042.8400090940797 59.0711529087445 L 1043.0157195418817 58.986470244406114 L 1043.1932944561943 58.90258610843103 L 1043.3727160796736 58.81950888916295 L 1043.5539664703072 58.737246894254554 L 1043.737027503207 58.65580834983679 L 1043.921880872422 58.57520139969624 L 1044.1085080927694 58.49543410446074 L 1044.2968905016828 58.41651444079334 L 1044.4870092610784 58.33845030059465 L 1044.6788453592385 58.26124949021362 L 1044.8723796127133 58.18491972966697 L 1045.0675926682386 58.10946865186714 L 1045.2644650046714 58.03490380185903 L 1045.4629769349424 57.96123263606552 L 1045.663108608024 57.88846252154177 L 1045.8648400109155 57.816600735238616 L 1046.0681509706446 57.74565446327479 L 1046.273021156285 57.67563080021837 L 1046.4794300809888 57.60653674837731 L 1046.6873571040355 57.53837921709922 L 1046.8967814328962 57.47116502208042 L 1047.1076821253123 57.40490088468441 L 1047.3200380913904 57.3395934312697 L 1047.533828095711 57.27524919252721 L 1047.7490307594514 57.21187460282721 L 1047.9656245625251 57.14947599957584 L 1048.183587845732 57.088059622581426 L 1048.4028988129257 57.02763161343051 L 1048.623535533192 56.96819801487362 L 1048.8454759430424 56.9097647702211 L 1049.0686978486212 56.85233772274873 L 1049.2931789279241 56.79592261511338 L 1049.51889673303 56.74052508877882 L 1049.7458286923465 56.6861506834515 L 1049.9739521128668 56.63280483652666 L 1050.2032441824388 56.58049288254453 L 1050.4336819720468 56.52922005265691 L 1050.6652424381036 56.47899147410408 L 1050.897902424756 56.42981216970201 L 1051.131638666199 56.38168705734017 L 1051.3664277890032 56.334620949489704 L 1051.6022463144518 56.28861855272216 L 1051.8390706608893 56.24368446723889 L 1052.0768771460778 56.199823186410995 L 1052.3156419895674 56.157039096329996 L 1052.5553413150724 56.11533647536926 L 1052.7959511528602 56.07471949375613 L 1053.0374474421476 56.035192213154914 L 1053.2798060335067 55.99675858626073 L 1053.5230026912805 55.959422456404255 L 1053.7670130960057 55.923187557167346 L 1054.0118128468453 55.88805751200974 L 1054.2573774640282 55.85403583390668 L 1054.5036823912974 55.82112592499761 L 1054.7507029983653 55.78933107624601 L 1054.998414583377 55.758654467110254 L 1055.2467923753807 55.72909916522569 L 1055.4958115368038 55.70066812609789 L 1055.745447165938 55.67336419280706 L 1055.9956742994282 55.64719009572377 L 1056.2464679147695 55.62214845223594 L 1056.4978029328097 55.598241766487035 L 1056.7496542202562 55.57547242912571 L 1057.0019965921902 55.55384271706673 L 1057.2548048145848 55.533354793263264 L 1057.5080536068283 55.51401070649064 L 1057.7617176442527 55.4958123911414 L 1058.0157715606656 55.47876166703191 L 1058.270189950887 55.46286023922039 L 1058.52494737329 55.44810969783636 L 1058.7800183523443 55.434511517921656 L 1059.035377381165 55.42206705928295 L 1059.290998924062 55.41077756635575 L 1059.5468574190936 55.40064416807991 L 1059.802927280624 55.39166787778682 L 1060.0591829018801 55.38384959309805 L 1060.3155986575136 55.37719009583553 L 1060.5721489061625 55.37169005194345 L 1060.8288079930155 55.36735001142162 L 1061.0855502523782 55.36417040827046 L 1061.3423500102383 55.36215156044765 L 1061.599181586834 55.36129366983628 L 1061.856019299222 55.3615968222247 L 1062.1128374638447 55.363060987297914 L 1062.3696103990999 55.36568601864066 L 1062.626312427908 55.369471653751965 L 1062.8829178802798 55.37441751407148 L 1063.1394010958843 55.3805231050173 L 1063.3957364266137 55.38778781603543 L 1063.651898239148 55.39621092066079 L 1063.9078609175199 55.40579157658996 L 1064.1635988656747 55.41652882576533 L 1064.4190865100306 55.428421594470926 L 1064.6742983020363 55.44146869343979 L 1064.929208720725 55.45566881797289 L 1065.1837922752675 55.47102054806961 L 1065.4380235075205 55.48752234856974 L 1065.6918769945723 55.50517256930697 L 1065.945327351286 55.52396944527395 L 1066.1983492328375 55.54391109679874 L 1066.4509173372487 55.56499552973279 L 1066.7030064079202 55.587220635650404 L 1066.9545912361548 55.61058419205949 L 1067.2056466636795 55.63508386262389 L 1067.4561475851606 55.660717197396956 L 1067.7060689507146 55.687481633066575 L 1067.9553857684134 55.715374493211485 L 1068.204073106783 55.744392988568904 L 1068.4521060972968 55.7745342173135 L 1068.6994599368622 55.8057951653475 L 1068.9461098903016 55.83817270660215 L 1069.1920312928253 55.871663603350314 L 1069.4371995524978 55.90626450653023 L 1069.6815901526975 55.941971956080394 L 1069.9251786545678 55.97878238128563 L 1070.167940699462 56.01669210113408 L 1070.4098520113776 56.055697324685354 L 1070.6508883993847 56.095794151449596 L 1070.891025760046 56.136978571777554 L 1071.1302400798252 56.17924646726151 L 1071.3685074374896 56.22259361114713 L 1071.6058040065022 56.267015668756166 L 1071.8421060574037 56.31250819791986 L 1072.0773899601859 56.35906664942321 L 1072.3116321866548 56.40668636745987 L 1072.5448093127827 56.455362590097714 L 1072.7768980210515 56.505090449755045 L 1073.0078751027836 56.55586497368733 L 1073.2377174604635 56.60768108448449 L 1073.4664021100468 56.66053360057863 L 1073.693906183259 56.71441723676219 L 1073.9202069298829 56.76932660471643 L 1074.1452817200318 56.82525621355034 L 1074.3691080464146 56.88220047034963 L 1074.591663526585 56.940153680736074 L 1074.8129259051807 56.999110049436936 L 1075.032873056148 57.05906368086447 L 1075.2514829849554 57.120008579705484 L 1075.4687338307915 57.1819386515209 L 1075.6846038687536 57.244847703355134 L 1075.8990715120171 57.308729444355436 L 1076.1121153139968 57.373577486400926 L 1076.32371397049 57.439385344741446 L 1076.5338463218072 57.506146438646006 L 1076.7424913548887 57.57385409206084 L 1076.9496282054047 57.642501534277045 L 1077.155236159843 57.712081900607586 L 1077.3592946575793 57.78258823307383 L 1077.561783292934 57.854013481101276 L 1077.7626818172125 57.92635050222464 L 1077.9619701407294 57.99959206280211 L 1078.1596283348188 58.07373083873863 L 1078.3556366338255 58.14875941621842 L 1078.5499754370835 58.224670292446234 L 1078.742625310874 58.30145587639771 L 1078.9335669903705 58.379108489578456 L 1079.122781381564 58.45762036679186 L 1079.3102495631729 58.53698365691561 L 1079.4959527885355 58.61719042368684 L 1079.6798724874839 58.698232646495725 L 1079.8619902682017 58.7801022211875 L 1080.0422879190621 58.86279096087293 L 1080.2207474104507 58.94629059674695 L 1080.397350896567 59.03059277891555 L 1080.5720807172095 59.115689077230776 L 1080.7449193995417 59.2015709821337 L 1080.9158496598395 59.2882299055054 L 1081.0848544052192 59.375657181525774 L 1081.251916735347 59.46384406754005 L 1081.4170199441296 59.55278174493313 L 1081.580147521383 59.642461320011385 L 1081.741283154486 59.73287382489204 L 1081.9004107300093 59.82401021839995 L 1082.057514335328 59.91586138697171 L 1082.2125782602125 60.008418145567006 L 1082.3655869983995 60.10167123858711 L 1082.5165252491427 60.195611340800426 L 1082.6653779187427 60.29022905827503 L 1082.812130122057 60.385514929318006 L 1082.956767183987 60.48145942542166 L 1083.0992746409472 60.57805295221634 L 1083.239638242311 60.67528585042985 L 1083.3778439518348 60.77314839685341 L 1083.5138779490633 60.87163080531391 L 1083.6477266307097 60.97072322765259 L 1083.7793766120174 61.07041575470979 L 1083.9088147280982 61.170698417315876 L 1084.0360280352481 61.271561187288164 L 1084.1610038122428 61.3729939784337 L 1084.2837295616084 61.47498664755789 L 1084.4041930108724 61.577528995478836 L 1084.52238211379 61.68061076804718 L 1084.6382850515497 61.78422165717158 L 1084.7518902339543 61.88835130184945 L 1084.8631863005799 61.99298928920311 L 1084.972162121913 62.09812515552101 L 1085.078806800462 62.203748387304145 L 1085.1831096718481 62.30984842231735 L 1085.285060305871 62.416414650645535 L 1085.3846485075521 62.52343641575468 L 1085.4818643181545 62.63090301555746 L 1085.576698016178 62.73880370348344 L 1085.6691401183318 62.847127689553744 L 1085.7591813804827 62.95586414146005 L 1085.8468127985795 63.065002185647764 L 1085.9320256095539 63.174530908403426 L 1086.0148112921952 63.28443935694603 L 1086.0951615680042 63.39471654052231 L 1086.1730684020206 63.50535143150581 L 1086.2485240036256 63.61633296649962 L 1086.321520827322 63.72765004744274 L 1086.3920515734885 63.83929154271982 L 1086.460109189109 63.951246288274376 L 1086.5256868684787 64.06350308872516 L 1086.5887780538844 64.17605071848564 L 1086.6493764362601 64.28887792288667 L 1086.707475955818 64.40197341930181 L 1086.7630708026545 64.51532589827566 L 1086.8161554173314 64.6289240246548 L 1086.8667244914313 64.74275643872124 L 1086.9147729680892 64.85681175732844 L 1086.9602960424972 64.97107857503958 L 1087.0032891623862 65.08554546526814 L 1087.0437480284793 65.20020098142045 L 1087.0816685949244 65.31503365804045 L 1087.117047069696 65.43003201195617 L 1087.149879914976 65.54518454342806 L 1087.1801638475079 65.66047973729893 L 1087.207895838923 65.77590606414547 L 1087.2330731160453 65.89145198143119 L 1087.2556931611684 66.00710593466063 L 1087.2757537123066 66.12285635853486 L 1087.2932527634214 66.23869167810795 L 1087.308188564622 66.35460030994449 L 1087.3205596223413 66.47057066327784 L 1087.3303646994834 66.58659114116935 L 1087.337602815549 66.70265014166789 L 1087.3422732467325 66.81873605897015 L 1087.3443755259943 66.9348372845811 M 1087.344505822978 103.91451096179999 L 1087.3432216353892 104.03061462555635 L 1087.339369201041 104.14670667904309 L 1087.332948905174 104.2627755131516 L 1087.3239613898115 104.37880952109519 L 1087.3124075536982 104.49479709956978 L 1087.2982885522079 104.61072664991414 L 1087.281605797229 104.72658657926989 L 1087.2623609570232 104.8423653017406 L 1087.2405559560582 104.95805123955054 L 1087.2161929748163 105.0736328242023 L 1087.189274449575 105.18909849763378 L 1087.1598030721643 105.3044367133738 L 1087.127781789698 105.41963593769695 L 1087.093213804277 105.53468465077678 L 1087.0561025726713 105.64957134783783 L 1087.0164518059732 105.76428454030618 L 1086.9742654692263 105.87881275695814 L 1086.929547781029 105.9931445450675 L 1086.882303213113 106.10726847155073 L 1086.8325364898956 106.22117312411025 L 1086.7802525880077 106.33484711237577 L 1086.725456735796 106.44827906904317 L 1086.6681544127998 106.56145765101131 L 1086.608351349204 106.67437154051632 L 1086.5460535252648 106.78700944626333 L 1086.481267170713 106.89936010455563 L 1086.4139987641297 107.01141228042103 L 1086.3442550323 107.12315476873529 L 1086.2720429495384 107.23457639534273 L 1086.1973697369933 107.34566601817353 L 1086.1202428619238 107.45641252835797 L 1086.0406700369529 107.56680485133734 L 1085.958659219297 107.67683194797132 L 1085.8742186099694 107.78648281564195 L 1085.7873566529606 107.89574648935381 L 1085.698082034394 108.00461204283062 L 1085.6064036816574 108.1130685896077 L 1085.512330762509 108.22110528412082 L 1085.4158726841629 108.32871132279051 L 1085.3170390923462 108.4358759451026 L 1085.215839870336 108.54258843468413 L 1085.1122851379698 108.6488381203751 L 1085.0063852506348 108.75461437729548 L 1084.8981507982314 108.8599066279077 L 1084.787592604115 108.96470434307447 L 1084.6747217240122 109.0689970431116 L 1084.5595494449174 109.17277429883598 L 1084.4420872839626 109.27602573260853 L 1084.3223469872657 109.37874101937192 L 1084.200340528757 109.48090988768304 L 1084.07608010898 109.58252212074024 L 1083.949578153874 109.68356755740487 L 1083.8208473135282 109.78403609321748 L 1083.6899004609202 109.88391768140819 L 1083.5567506906257 109.98320233390143 L 1083.4214113175105 110.08188012231469 L 1083.2838958753998 110.17994117895135 L 1083.1442181157227 110.27737569778748 L 1083.002392006139 110.37417393545236 L 1082.8584317291413 110.47032621220293 L 1082.7123516806375 110.5658229128916 L 1082.5641664685106 110.66065448792793 L 1082.4138909111584 110.7548114542334 L 1082.2615400360114 110.84828439618985 L 1082.10712907803 110.941063966581 L 1081.950673478182 111.03314088752711 L 1081.7921888818958 111.12450595141281 L 1081.6316911375 111.21515002180787 L 1081.4691962946347 111.30506403438078 L 1081.3047206026492 111.39423899780519 L 1081.1382805089754 111.48266599465909 L 1080.9698926574838 111.57033618231648 L 1080.7995738868196 111.65724079383165 L 1080.6273412287178 111.74337113881587 L 1080.4532119063006 111.82871860430642 L 1080.277203332355 111.91327465562787 L 1080.099333107592 111.99703083724555 L 1079.919619018886 112.07997877361109 L 1079.7380790374955 112.16211016999999 L 1079.5547313172679 112.24341681334106 L 1079.369594192822 112.32389057303769 L 1079.1826861777165 112.40352340178099 L 1078.9940259625967 112.48230733635444 L 1078.8036324133273 112.56023449843025 L 1078.611524569104 112.63729709535714 L 1078.4177216405517 112.71348742093964 L 1078.2222430078014 112.78879785620869 L 1078.0251082185537 112.8632208701835 L 1077.826336986123 112.93674902062472 L 1077.625949187467 113.00937495477855 L 1077.4239648611988 113.08109141011211 L 1077.2204042055823 113.15189121503964 L 1077.0152875765139 113.22176728963963 L 1076.8086354854852 113.29071264636286 L 1076.6004685975333 113.35872039073111 L 1076.3908077291733 113.42578372202661 L 1076.1796738463177 113.49189593397213 L 1075.9670880621784 113.55705041540155 L 1075.7530716351569 113.62124065092104 L 1075.5376459667175 113.68446022156053 L 1075.3208325992475 113.74670280541565 L 1075.102653213903 113.80796217827987 L 1074.8831296284409 113.86823221426694 L 1074.6622837950365 113.92750688642352 L 1074.4401377980894 113.98578026733178 L 1074.216713852014 114.04304652970217 L 1073.9920342990185 114.09929994695618 L 1073.7661216068714 114.15453489379898 L 1073.5389983666535 114.20874584678191 L 1073.3106872904993 114.26192738485484 L 1073.0812112093265 114.31407418990828 L 1072.850593070552 114.36518104730519 L 1072.6188559357972 114.4152428464024 L 1072.3860229785826 114.46425458106174 L 1072.15211748201 114.51221135015058 L 1071.917162836434 114.55910835803196 L 1071.6811825371235 114.6049409150442 L 1071.4442001819116 114.64970443796976 L 1071.2062394688364 114.69339445049368 L 1070.967324193771 114.7360065836511 L 1070.7274782480436 114.77753657626423 L 1070.4867256160492 114.81798027536838 L 1070.2450903728502 114.85733363662739 L 1070.0025966817695 114.8955927247379 L 1069.7592687919744 114.93275371382298 L 1069.515131036051 114.96881288781469 L 1069.2702078275709 115.0037666408257 L 1069.0245236586516 115.03761147750981 L 1068.778103097505 115.07034401341159 L 1068.5309707859817 115.10196097530469 L 1068.283151437107 115.13245920151928 L 1068.0346698326096 115.16183564225817 L 1067.7855508204425 115.19008735990175 L 1067.5358193122993 115.21721152930179 L 1067.2855002811227 115.24320543806398 L 1067.0346187586076 115.26806648681908 L 1066.7831998326967 115.29179218948295 L 1066.5312686450736 115.31438017350509 L 1066.2788503886466 115.33582818010592 L 1066.0259703050313 115.35613406450264 L 1065.772653682025 115.37529579612375 L 1065.5189258510793 115.39331145881205 L 1065.2648121847658 115.41017925101629 L 1065.0103380942392 115.42589748597129 L 1064.7555290266966 115.44046459186667 L 1064.5004104628322 115.45387911200397 L 1064.2450079142902 115.46613970494236 L 1063.9893469211122 115.47724514463276 L 1063.7334530491848 115.48719432054045 L 1063.4773518876818 115.49598623775614 L 1063.2210690465058 115.50362001709544 L 1062.9646301537275 115.51009489518677 L 1062.7080608530225 115.5154102245477 L 1062.4513868011072 115.51956547364975 L 1062.1946336651724 115.52256022697145 L 1061.9378271203184 115.52439418504 L 1061.6809928469852 115.52506716446106 L 1061.424156528386 115.52457909793732 L 1061.1673438479393 115.52293003427498 L 1060.9105804866983 115.52012013837903 L 1060.6538921207857 115.51614969123673 L 1060.3973044188242 115.51101908988952 L 1060.1408430393699 115.50472884739318 L 1059.8845336283473 115.4972795927668 L 1059.6284018164836 115.48867207092958 L 1059.3724732167468 115.47890714262655 L 1059.1167734217834 115.4679857843424 L 1058.8613280013599 115.45590908820387 L 1058.6061624998056 115.4426782618705 L 1058.351302433458 115.42829462841388 L 1058.096773288111 115.4127596261854 L 1057.8426005164674 115.39607480867232 L 1057.5888095355924 115.3782418443425 L 1057.3354257243727 115.35926251647749 L 1057.0824744209783 115.33913872299428 L 1056.8299809203286 115.31787247625543 L 1056.5779704715633 115.29546590286792 L 1056.3264682755173 115.27192124347039 L 1056.0754994822007 115.24724085250918 L 1055.8250891882833 115.2214271980028 L 1055.5752624345864 115.1944828612952 L 1055.3260442035767 115.1664105367976 L 1055.07745941687 115.13721303171906 L 1054.8295329327375 115.10689326578573 L 1054.582289543621 115.07545427094897 L 1054.3357539736537 115.04289919108203 L 1054.089950876187 115.0092312816658 L 1053.8449048313257 114.97445390946316 L 1053.60064034347 114.93857055218234 L 1053.3571818388657 114.90158479812916 L 1053.1145536631595 114.86350034584822 L 1052.8727800789675 114.824321003753 L 1052.6318852634465 114.78405068974506 L 1052.391893305877 114.74269343082224 L 1052.152828205255 114.70025336267598 L 1051.9147138678914 114.65673472927773 L 1051.6775741050212 114.61214188245454 L 1051.4414326304236 114.56647928145395 L 1051.2063130580489 114.51975149249802 L 1050.9722388996581 114.47196318832667 L 1050.7392335624727 114.42311914773052 L 1050.5073203468319 114.37322425507293 L 1050.2765224438638 114.32228349980157 L 1050.0468629331667 114.27030197594954 L 1049.8183647805001 114.21728488162587 L 1049.5910508354889 114.16323751849586 L 1049.3649438293382 114.10816529125074 L 1049.14006637256 114.05207370706736 L 1048.916440952713 113.9949683750574 L 1048.6940899321526 113.93685500570646 L 1048.4730355457953 113.87773941030305 L 1048.2532998988959 113.81762750035746 L 1048.0349049648357 113.75652528701059 L 1047.8178725829266 113.69443888043284 L 1047.6022244562253 113.63137448921314 L 1047.3879821493651 113.56733841973806 L 1047.1751670863982 113.5023370755612 L 1046.9638005486534 113.43637695676277 L 1046.7539036726084 113.36946465929971 L 1046.5454974477757 113.301606874346 L 1046.3386027146046 113.2328103876236 L 1046.1332401623954 113.16308207872383 L 1045.9294303272327 113.0924289204195 L 1045.7271935899298 113.02085797796754 L 1045.5265501739923 112.94837640840255 L 1045.3275201435943 112.8749914598211 L 1045.1301234015727 112.8007104706569 L 1044.934379687438 112.72554086894695 L 1044.7403085753976 112.64949017158878 L 1044.5479294724018 112.57256598358876 L 1044.3572616162 112.49477599730159 L 1044.1683240734192 112.41612799166106 L 1043.9811357376561 112.3366298314022 L 1043.7957153275884 112.2562894662748 L 1043.6120813851023 112.1751149302484 L 1043.4302522734395 112.09311434070896 L 1043.2502461753593 112.01029589764713 L 1043.0720810913217 111.92666788283817 L 1042.8957748376865 111.84223865901389 L 1042.7213450449321 111.7570166690263 L 1042.5488091558925 111.67101043500338 L 1042.378184424013 111.58422855749687 L 1042.2094879116241 111.4966797146222 L 1042.042736488237 111.40837266119071 L 1041.8779468288549 111.31931622783415 L 1041.7151354123064 111.22951932012163 L 1041.5543185195972 111.13899091766909 L 1041.395512232283 111.04774007324134 L 1041.23873243086 110.9557759118468 L 1041.0839947931777 110.86310762982494 L 1040.9313147928708 110.76974449392677 L 1040.7807076978122 110.67569584038806 L 1040.6321885685861 110.58097107399578 L 1040.4857722569814 110.48557966714766 L 1040.3414734045073 110.38953115890487 L 1040.1993064409287 110.2928351540382 L 1040.0592855828238 110.19550132206757 L 1039.9214248321614 110.09753939629505 L 1039.7857379749018 109.99895917283158 L 1039.6522385796177 109.89977050961737 L 1039.5209399961375 109.79998332543607 L 1039.3918553542098 109.69960759892295 L 1039.2649975621914 109.59865336756702 L 1039.140379305756 109.4971307267073 L 1039.018013046625 109.39504982852324 L 1038.8979110213224 109.29242088101961 L 1038.780085239951 109.18925414700563 L 1038.6645474849904 109.08555994306874 L 1038.55130931012 108.98134863854291 L 1038.4403820390628 108.87663065447177 L 1038.3317767644535 108.77141646256644 L 1038.2255043467292 108.66571658415843 L 1038.1215754130428 108.55954158914753 L 1038.0200003562015 108.45290209494473 L 1037.9207893336259 108.3458087654106 L 1037.823952266336 108.23827230978884 L 1037.7294988379574 108.1303034816354 L 1037.6374384937544 108.02191307774314 L 1037.5477804396849 107.9131119370621 L 1037.4605336414793 107.80391093961568 L 1037.3757068237448 107.69432100541265 L 1037.2933084690928 107.58435309335508 L 1037.2133468172897 107.47401820014255 L 1037.135829864434 107.36332735917243 L 1037.0607653621569 107.25229163943658 L 1036.9881608168455 107.14092214441445 L 1036.918023488894 107.0292300109627 L 1036.850360391977 106.91722640820164 L 1036.7851782923474 106.80492253639821 L 1036.7224837081612 106.69232962584596 L 1036.6622829088244 106.57945893574217 L 1036.604581914367 106.46632175306175 L 1036.54938649484 106.35292939142872 L 1036.4967021697396 106.23929318998472 L 1036.446534207454 106.12542451225522 L 1036.3988876247383 106.0113347450131 L 1036.3537671862107 105.89703529714001 L 1036.3111774038773 105.78253759848548 L 1036.271122536681 105.66785309872397 L 1036.2336065900754 105.55299326620987 L 1036.1986333156235 105.43796958683073 L 1036.1662062106238 105.32279356285864 L 1036.1363285177597 105.2074767118 L 1036.1090032247757 105.09203056524383 L 1036.084233064178 104.97646666770858 L 1036.0620205129626 104.8607965754877 L 1036.0423677923654 104.74503185549402 L 1036.0252768676428 104.62918408410306 L 1036.0107494478725 104.51326484599544 L 1035.9987869857846 104.39728573299836 L 1035.9893906776151 104.28125834292646 L 1035.9825614629874 104.16519427842208 L 1035.9783000248171 104.04910514579494 L 1035.9766067892444 103.93300255386156" stroke-miterlimit="10" stroke-width="2.990598758" stroke-dasharray=""/></g><g><g/><text fill="black" stroke="none" font-family="sans-serif" font-size="11pt" font-style="normal" font-weight="normal" text-decoration="normal" x="1028.9583305463216" y="134.401026536" text-anchor="start" dominant-baseline="alphabetic" xml:space="preserve">Database</text></g></g><g><path fill="white" stroke="black" paint-order="fill stroke markers" d=" M 210.045084244694 197.73135317599997 L 227.63684164469402 197.73135317599997 L 227.63684164469402 1268.8582777472 L 210.045084244694 1268.8582777472 L 210.045084244694 197.73135317599997" stroke-miterlimit="10" stroke-width="1.4659797833333332" stroke-dasharray=""/><path fill="white" stroke="black" paint-order="fill stroke markers" d=" M 409.1851378644857 349.02046681599995 L 426.7768952644857 349.02046681599995 L 426.7768952644857 1268.8582777472 L 409.1851378644857 1268.8582777472 L 409.1851378644857 349.02046681599995" stroke-miterlimit="10" stroke-width="1.4659797833333332" stroke-dasharray=""/><path fill="white" stroke="black" paint-order="fill stroke markers" d=" M 608.3251914842774 451.05265973599995 L 625.9169488842774 451.05265973599995 L 625.9169488842774 1103.4957581872 L 608.3251914842774 1103.4957581872 L 608.3251914842774 451.05265973599995" stroke-miterlimit="10" stroke-width="1.4659797833333332" stroke-dasharray=""/><path fill="white" stroke="black" paint-order="fill stroke markers" d=" M 798.669366404069 553.084852656 L 816.261123804069 553.084852656 L 816.261123804069 1268.8582777472 L 798.669366404069 1268.8582777472 L 798.669366404069 553.084852656" stroke-miterlimit="10" stroke-width="1.4659797833333332" stroke-dasharray=""/><path fill="white" stroke="black" paint-order="fill stroke markers" d=" M 807.465245104069 674.467978716 L 825.057002504069 674.467978716 L 825.057002504069 772.9818201559999 L 807.465245104069 772.9818201559999 L 807.465245104069 674.467978716" stroke-miterlimit="10" stroke-width="1.4659797833333332" stroke-dasharray=""/><path fill="white" stroke="black" paint-order="fill stroke markers" d=" M 1162.5034655452312 955.7249960272 L 1180.0952229452312 955.7249960272 L 1180.0952229452312 1004.9819167472 L 1162.5034655452312 1004.9819167472 L 1162.5034655452312 955.7249960272" stroke-miterlimit="10" stroke-width="1.4659797833333332" stroke-dasharray=""/><path fill="white" stroke="black" paint-order="fill stroke markers" d=" M 417.9810165644857 1175.6219635272 L 435.5727739644857 1175.6219635272 L 435.5727739644857 1268.8582777472 L 417.9810165644857 1268.8582777472 L 417.9810165644857 1175.6219635272" stroke-miterlimit="10" stroke-width="1.4659797833333332" stroke-dasharray=""/><path fill="white" stroke="black" paint-order="fill stroke markers" d=" M 218.840962944694 1224.8788842472 L 236.43272034469402 1224.8788842472 L 236.43272034469402 1224.8788842472 L 218.840962944694 1224.8788842472 L 218.840962944694 1224.8788842472" stroke-miterlimit="10" stroke-width="1.4659797833333332" stroke-dasharray=""/><g><g><rect fill="white" stroke="none" x="76.53832873270834" y="174.86206855599997" width="99.794372923125" height="22.86928462"/></g><text fill="black" stroke="none" font-family="sans-serif" font-size="11pt" font-style="normal" font-weight="normal" text-decoration="normal" x="79.17709234270833" y="190.69465021599999" text-anchor="start" dominant-baseline="alphabetic" xml:space="preserve">addAccount()</text></g><g><path fill="none" stroke="black" paint-order="fill stroke markers" d=" M 42.82594614384766 197.73135317599997 L 207.11312467802733 197.73135317599997" stroke-miterlimit="10" stroke-width="1.4659797833333332" stroke-dasharray=""/><g transform="translate(210.045084244694,197.73135317599997) translate(-210.045084244694,-197.73135317599997)"><path fill="black" stroke="none" paint-order="stroke fill markers" d=" M 195.38528641136068 190.4014542593333 L 210.045084244694 197.73135317599997 L 195.38528641136068 205.06125209266665 Z"/></g></g><g><g><rect fill="white" stroke="none" x="63.64285906718099" y="224.11898927599995" width="125.58531225417968" height="22.86928462"/></g><text fill="black" stroke="none" font-family="sans-serif" font-size="11pt" font-style="normal" font-weight="normal" text-decoration="normal" x="66.28162267718099" y="239.95157093599997" text-anchor="start" dominant-baseline="alphabetic" xml:space="preserve">return c : CusInfo</text></g><g><path fill="none" stroke="black" paint-order="fill stroke markers" d=" M 42.82594614384766 246.98827389599995 L 207.11312467802733 246.98827389599995" stroke-miterlimit="10" stroke-width="1.4659797833333332" stroke-dasharray=""/><g transform="translate(210.045084244694,246.98827389599995) translate(-210.045084244694,-246.98827389599995)"><path fill="black" stroke="none" paint-order="stroke fill markers" d=" M 195.38528641136068 239.65837497933327 L 210.045084244694 246.98827389599995 L 195.38528641136068 254.31817281266663 Z"/></g></g><g><g><rect fill="white" stroke="none" x="252.85169391802737" y="273.37590999599996" width="94.89816320632812" height="22.86928462"/></g><g><rect fill="white" stroke="none" x="252.85169391802737" y="290.96766739599997" width="106.37271154617187" height="22.86928462"/></g><g><rect fill="white" stroke="none" x="252.85169391802737" y="308.559424796" width="104.88380468582031" height="22.86928462"/></g><g><rect fill="white" stroke="none" x="252.85169391802737" y="326.151182196" width="131.118591673125" height="22.86928462"/></g><text fill="black" stroke="none" font-family="sans-serif" font-size="11pt" font-style="normal" font-weight="normal" text-decoration="normal" x="255.49045752802738" y="289.208491656" text-anchor="start" dominant-baseline="alphabetic" xml:space="preserve">addAccount(</text><text fill="black" stroke="none" font-family="sans-serif" font-size="11pt" font-style="normal" font-weight="normal" text-decoration="normal" x="255.49045752802738" y="306.800249056" text-anchor="start" dominant-baseline="alphabetic" xml:space="preserve">name : String, </text><text fill="black" stroke="none" font-family="sans-serif" font-size="11pt" font-style="normal" font-weight="normal" text-decoration="normal" x="255.49045752802738" y="324.392006456" text-anchor="start" dominant-baseline="alphabetic" xml:space="preserve">Email : String, </text><text fill="black" stroke="none" font-family="sans-serif" font-size="11pt" font-style="normal" font-weight="normal" text-decoration="normal" x="255.49045752802738" y="341.983763856" text-anchor="start" dominant-baseline="alphabetic" xml:space="preserve">password : String)</text></g><g><path fill="none" stroke="black" paint-order="fill stroke markers" d=" M 227.63684164469402 349.02046681599995 L 406.25317829781903 349.02046681599995" stroke-miterlimit="10" stroke-width="1.4659797833333332" stroke-dasharray=""/><g transform="translate(409.1851378644857,349.02046681599995) translate(-409.1851378644857,-349.02046681599995)"><path fill="black" stroke="none" paint-order="stroke fill markers" d=" M 394.5253400311523 341.6905678993333 L 409.1851378644857 349.02046681599995 L 394.5253400311523 356.3503657326666 Z"/></g></g><g><g><rect fill="white" stroke="none" x="451.9917475378191" y="375.40810291599996" width="94.89816320632812" height="22.86928462"/></g><g><rect fill="white" stroke="none" x="451.9917475378191" y="392.99986031599997" width="106.37271154617187" height="22.86928462"/></g><g><rect fill="white" stroke="none" x="451.9917475378191" y="410.591617716" width="104.88380468582031" height="22.86928462"/></g><g><rect fill="white" stroke="none" x="451.9917475378191" y="428.183375116" width="131.118591673125" height="22.86928462"/></g><text fill="black" stroke="none" font-family="sans-serif" font-size="11pt" font-style="normal" font-weight="normal" text-decoration="normal" x="454.6305111478191" y="391.240684576" text-anchor="start" dominant-baseline="alphabetic" xml:space="preserve">addAccount(</text><text fill="black" stroke="none" font-family="sans-serif" font-size="11pt" font-style="normal" font-weight="normal" text-decoration="normal" x="454.6305111478191" y="408.832441976" text-anchor="start" dominant-baseline="alphabetic" xml:space="preserve">name : String, </text><text fill="black" stroke="none" font-family="sans-serif" font-size="11pt" font-style="normal" font-weight="normal" text-decoration="normal" x="454.6305111478191" y="426.424199376" text-anchor="start" dominant-baseline="alphabetic" xml:space="preserve">Email : String, </text><text fill="black" stroke="none" font-family="sans-serif" font-size="11pt" font-style="normal" font-weight="normal" text-decoration="normal" x="454.6305111478191" y="444.015956776" text-anchor="start" dominant-baseline="alphabetic" xml:space="preserve">password : String)</text></g><g><path fill="none" stroke="black" paint-order="fill stroke markers" d=" M 426.7768952644857 451.05265973599995 L 605.3932319176107 451.05265973599995" stroke-miterlimit="10" stroke-width="1.4659797833333332" stroke-dasharray=""/><g transform="translate(608.3251914842774,451.05265973599995) translate(-608.3251914842774,-451.05265973599995)"><path fill="black" stroke="none" paint-order="stroke fill markers" d=" M 593.6653936509441 443.7227608193333 L 608.3251914842774 451.05265973599995 L 593.6653936509441 458.3825586526666 Z"/></g></g><g><g><rect fill="white" stroke="none" x="646.7338618076108" y="477.44029583599996" width="94.89816320632812" height="22.86928462"/></g><g><rect fill="white" stroke="none" x="646.7338618076108" y="495.03205323599997" width="106.37271154617187" height="22.86928462"/></g><g><rect fill="white" stroke="none" x="646.7338618076108" y="512.6238106359999" width="104.88380468582031" height="22.86928462"/></g><g><rect fill="white" stroke="none" x="646.7338618076108" y="530.2155680359999" width="131.118591673125" height="22.86928462"/></g><text fill="black" stroke="none" font-family="sans-serif" font-size="11pt" font-style="normal" font-weight="normal" text-decoration="normal" x="649.3726254176107" y="493.272877496" text-anchor="start" dominant-baseline="alphabetic" xml:space="preserve">addAccount(</text><text fill="black" stroke="none" font-family="sans-serif" font-size="11pt" font-style="normal" font-weight="normal" text-decoration="normal" x="649.3726254176107" y="510.864634896" text-anchor="start" dominant-baseline="alphabetic" xml:space="preserve">name : String, </text><text fill="black" stroke="none" font-family="sans-serif" font-size="11pt" font-style="normal" font-weight="normal" text-decoration="normal" x="649.3726254176107" y="528.456392296" text-anchor="start" dominant-baseline="alphabetic" xml:space="preserve">Email : String, </text><text fill="black" stroke="none" font-family="sans-serif" font-size="11pt" font-style="normal" font-weight="normal" text-decoration="normal" x="649.3726254176107" y="546.048149696" text-anchor="start" dominant-baseline="alphabetic" xml:space="preserve">password : String)</text></g><g><path fill="none" stroke="black" paint-order="fill stroke markers" d=" M 625.9169488842774 553.084852656 L 795.7374068374023 553.084852656" stroke-miterlimit="10" stroke-width="1.4659797833333332" stroke-dasharray=""/><g transform="translate(798.669366404069,553.084852656) translate(-798.669366404069,-553.084852656)"><path fill="black" stroke="none" paint-order="stroke fill markers" d=" M 784.0095685707357 545.7549537393332 L 798.669366404069 553.084852656 L 784.0095685707357 560.4147515726667 Z"/></g></g><g><g><rect fill="white" stroke="none" x="890.1660090363868" y="579.472488756" width="97.58964575027343" height="22.86928462"/></g><text fill="black" stroke="none" font-family="sans-serif" font-size="11pt" font-style="normal" font-weight="normal" text-decoration="normal" x="892.8047726463867" y="595.3050704159999" text-anchor="start" dominant-baseline="alphabetic" xml:space="preserve">oid := getId()</text></g><g><path fill="none" stroke="black" paint-order="fill stroke markers" d=" M 816.261123804069 602.341773376 L 1058.7285804523112 602.341773376" stroke-miterlimit="10" stroke-width="1.4659797833333332" stroke-dasharray=""/><g transform="translate(1061.6605400189778,602.341773376) translate(-1061.6605400189778,-602.341773376)"><path fill="black" stroke="none" paint-order="stroke fill markers" d=" M 1047.0007421856444 595.0118744593333 L 1061.6605400189778 602.341773376 L 1047.0007421856444 609.6716722926667 Z"/></g></g><g><g><rect fill="white" stroke="none" x="845.8739154274024" y="628.729409476" width="197.75424230789062" height="22.86928462"/></g><text fill="black" stroke="none" font-family="sans-serif" font-size="11pt" font-style="normal" font-weight="normal" text-decoration="normal" x="848.5126790374023" y="644.561991136" text-anchor="start" dominant-baseline="alphabetic" xml:space="preserve">performUpdate(sql : String)</text></g><g><path fill="none" stroke="black" paint-order="fill stroke markers" d=" M 816.261123804069 651.5986940959999 L 895.424032104069 651.5986940959999 L 895.424032104069 674.467978716 L 827.9889620707357 674.467978716" stroke-miterlimit="10" stroke-width="1.4659797833333332" stroke-dasharray=""/><g transform="translate(825.057002504069,674.467978716) translate(-825.057002504069,-674.467978716)"><path fill="black" stroke="none" paint-order="stroke fill markers" d=" M 839.7168003374023 667.1380797993332 L 825.057002504069 674.467978716 L 839.7168003374023 681.7978776326667 Z"/></g></g><g><g><rect fill="white" stroke="none" x="845.8739154274024" y="700.855614816" width="194.96971166824218" height="22.86928462"/></g><text fill="black" stroke="none" font-family="sans-serif" font-size="11pt" font-style="normal" font-weight="normal" text-decoration="normal" x="848.5126790374023" y="716.6881964759999" text-anchor="start" dominant-baseline="alphabetic" xml:space="preserve">executeUpdate(sql : String)</text></g><g><path fill="none" stroke="black" paint-order="fill stroke markers" d=" M 825.057002504069 723.724899436 L 1058.7285804523112 723.724899436" stroke-miterlimit="10" stroke-width="1.4659797833333332" stroke-dasharray=""/><g transform="translate(1061.6605400189778,723.724899436) translate(-1061.6605400189778,-723.724899436)"><path fill="black" stroke="none" paint-order="stroke fill markers" d=" M 1047.0007421856444 716.3950005193333 L 1061.6605400189778 723.724899436 L 1047.0007421856444 731.0547983526667 Z"/></g></g><g><g><rect fill="white" stroke="none" x="845.8739154274024" y="750.112535536" width="5.27752722" height="22.86928462"/></g><text fill="black" stroke="none" font-family="sans-serif" font-size="11pt" font-style="normal" font-weight="normal" text-decoration="normal" x="848.5126790374023" y="765.945117196" text-anchor="start" dominant-baseline="alphabetic" xml:space="preserve"></text></g><g><path fill="none" stroke="black" paint-order="fill stroke markers" d=" M 825.057002504069 772.9818201559999 L 895.424032104069 772.9818201559999 L 895.424032104069 795.8511047759999 L 819.1930833707357 795.8511047759999" stroke-miterlimit="10" stroke-width="1.4659797833333332" stroke-dasharray="7.0367029599999995"/><g transform="translate(816.261123804069,795.8511047759999) translate(-816.261123804069,-795.8511047759999)"><path fill="black" stroke="none" paint-order="stroke fill markers" d=" M 830.9209216374023 788.5212058593332 L 816.261123804069 795.8511047759999 L 830.9209216374023 803.1810036926666 Z"/></g></g><g><path fill="white" stroke="black" paint-order="fill stroke markers" d=" M 1197.4231039842311 901.3488739038 A 26.123759739 26.123759739 0 1 1 1197.4230909223525 901.322750148415 M 1143.6802851272312 929.8651126492 L 1195.9278046052311 929.8651126492" stroke-miterlimit="10" stroke-width="2.990598758" stroke-dasharray=""/></g><g><g/><text fill="black" stroke="none" font-family="sans-serif" font-size="11pt" font-style="normal" font-weight="normal" text-decoration="normal" x="1142.3659107125163" y="948.9521694282" text-anchor="start" dominant-baseline="alphabetic" xml:space="preserve">Account</text></g><g><g><rect fill="white" stroke="none" x="913.7542214217302" y="822.2387408760001" width="68.04060400222656" height="22.86928462"/></g><g><rect fill="white" stroke="none" x="913.7542214217302" y="839.8304982760001" width="84.70486486648437" height="22.86928462"/></g><g><rect fill="white" stroke="none" x="913.7542214217302" y="857.4222556760001" width="106.37271154617187" height="22.86928462"/></g><g><rect fill="white" stroke="none" x="913.7542214217302" y="875.0140130760001" width="120.91818273757812" height="22.86928462"/></g><g><rect fill="white" stroke="none" x="913.7542214217302" y="892.6057704760001" width="131.118591673125" height="22.86928462"/></g><text fill="black" stroke="none" font-family="sans-serif" font-size="11pt" font-style="normal" font-weight="normal" text-decoration="normal" x="916.3929850317302" y="838.071322536" text-anchor="start" dominant-baseline="alphabetic" xml:space="preserve">Account(</text><text fill="black" stroke="none" font-family="sans-serif" font-size="11pt" font-style="normal" font-weight="normal" text-decoration="normal" x="916.3929850317302" y="855.663079936" text-anchor="start" dominant-baseline="alphabetic" xml:space="preserve">id : Integer,</text><text fill="black" stroke="none" font-family="sans-serif" font-size="11pt" font-style="normal" font-weight="normal" text-decoration="normal" x="916.3929850317302" y="873.254837336" text-anchor="start" dominant-baseline="alphabetic" xml:space="preserve">name : String, </text><text fill="black" stroke="none" font-family="sans-serif" font-size="11pt" font-style="normal" font-weight="normal" text-decoration="normal" x="916.3929850317302" y="890.846594736" text-anchor="start" dominant-baseline="alphabetic" xml:space="preserve">Email : Account, </text><text fill="black" stroke="none" font-family="sans-serif" font-size="11pt" font-style="normal" font-weight="normal" text-decoration="normal" x="916.3929850317302" y="908.438352136" text-anchor="start" dominant-baseline="alphabetic" xml:space="preserve">password : String)</text></g><g><path fill="none" stroke="black" paint-order="fill stroke markers" d=" M 816.261123804069 915.475055096 L 1139.4339511458497 915.475055096" stroke-miterlimit="10" stroke-width="1.4659797833333332" stroke-dasharray=""/><g transform="translate(1142.3659107125163,915.475055096) translate(-1142.3659107125163,-915.475055096)"><path fill="black" stroke="none" paint-order="stroke fill markers" d=" M 1127.706112879183 908.1451561793333 L 1142.3659107125163 915.475055096 L 1127.706112879183 922.8049540126667 Z"/></g></g><g><g><rect fill="white" stroke="none" x="986.7435310646501" y="982.1126321272" width="5.27752722" height="22.86928462"/></g><text fill="black" stroke="none" font-family="sans-serif" font-size="11pt" font-style="normal" font-weight="normal" text-decoration="normal" x="989.3822946746501" y="997.9452137871999" text-anchor="start" dominant-baseline="alphabetic" xml:space="preserve"></text></g><g><path fill="none" stroke="black" paint-order="fill stroke markers" d=" M 1162.5034655452312 1004.9819167472 L 819.1930833707357 1004.9819167472" stroke-miterlimit="10" stroke-width="1.4659797833333332" stroke-dasharray="7.0367029599999995"/><g transform="translate(816.261123804069,1004.9819167472) translate(-816.261123804069,-1004.9819167472)"><path fill="black" stroke="none" paint-order="stroke fill markers" d=" M 830.9209216374023 997.6520178305333 L 816.261123804069 1004.9819167472 L 830.9209216374023 1012.3118156638667 Z"/></g></g><g><g><rect fill="white" stroke="none" x="709.6543940341733" y="1031.3695528472" width="5.27752722" height="22.86928462"/></g><text fill="black" stroke="none" font-family="sans-serif" font-size="11pt" font-style="normal" font-weight="normal" text-decoration="normal" x="712.2931576441732" y="1047.2021345072" text-anchor="start" dominant-baseline="alphabetic" xml:space="preserve"></text></g><g><path fill="none" stroke="black" paint-order="fill stroke markers" d=" M 798.669366404069 1054.2388374672 L 628.8489084509441 1054.2388374672" stroke-miterlimit="10" stroke-width="1.4659797833333332" stroke-dasharray="7.0367029599999995"/><g transform="translate(625.9169488842774,1054.2388374672) translate(-625.9169488842774,-1054.2388374672)"><path fill="black" stroke="none" paint-order="stroke fill markers" d=" M 640.5767467176107 1046.9089385505333 L 625.9169488842774 1054.2388374672 L 640.5767467176107 1061.5687363838667 Z"/></g></g><g><g><rect fill="white" stroke="none" x="514.9122797643817" y="1080.6264735672" width="5.27752722" height="22.86928462"/></g><text fill="black" stroke="none" font-family="sans-serif" font-size="11pt" font-style="normal" font-weight="normal" text-decoration="normal" x="517.5510433743816" y="1096.4590552272" text-anchor="start" dominant-baseline="alphabetic" xml:space="preserve"></text></g><g><path fill="none" stroke="black" paint-order="fill stroke markers" d=" M 608.3251914842774 1103.4957581872 L 429.70885483115234 1103.4957581872" stroke-miterlimit="10" stroke-width="1.4659797833333332" stroke-dasharray="7.0367029599999995"/><g transform="translate(426.7768952644857,1103.4957581872) translate(-426.7768952644857,-1103.4957581872)"><path fill="black" stroke="none" paint-order="stroke fill markers" d=" M 441.43669309781905 1096.1658592705332 L 426.7768952644857 1103.4957581872 L 441.43669309781905 1110.8256571038667 Z"/></g></g><g><g><rect fill="white" stroke="none" x="456.38968688781904" y="1129.8833942872" width="126.03630102371093" height="22.86928462"/></g><text fill="black" stroke="none" font-family="sans-serif" font-size="11pt" font-style="normal" font-weight="normal" text-decoration="normal" x="459.02845049781905" y="1145.7159759472" text-anchor="start" dominant-baseline="alphabetic" xml:space="preserve">notifyObservers()</text></g><g><path fill="none" stroke="black" paint-order="fill stroke markers" d=" M 426.7768952644857 1152.7526789072 L 505.9398035644857 1152.7526789072 L 505.9398035644857 1175.6219635272 L 438.50473353115234 1175.6219635272" stroke-miterlimit="10" stroke-width="1.4659797833333332" stroke-dasharray=""/><g transform="translate(435.5727739644857,1175.6219635272) translate(-435.5727739644857,-1175.6219635272)"><path fill="black" stroke="none" paint-order="stroke fill markers" d=" M 450.23257179781905 1168.2920646105333 L 435.5727739644857 1175.6219635272 L 450.23257179781905 1182.9518624438667 Z"/></g></g><g><g><rect fill="white" stroke="none" x="294.8436938338477" y="1202.0095996272" width="64.72634924148437" height="22.86928462"/></g><text fill="black" stroke="none" font-family="sans-serif" font-size="11pt" font-style="normal" font-weight="normal" text-decoration="normal" x="297.4824574438477" y="1217.8421812872" text-anchor="start" dominant-baseline="alphabetic" xml:space="preserve">update()</text></g><g><path fill="none" stroke="black" paint-order="fill stroke markers" d=" M 417.9810165644857 1224.8788842472 L 239.3646799113607 1224.8788842472" stroke-miterlimit="10" stroke-width="1.4659797833333332" stroke-dasharray=""/><g transform="translate(236.43272034469402,1224.8788842472) translate(-236.43272034469402,-1224.8788842472)"><path fill="black" stroke="none" paint-order="stroke fill markers" d=" M 251.09251817802735 1217.5489853305332 L 236.43272034469402 1224.8788842472 L 251.09251817802735 1232.2087831638667 Z"/></g></g></g><g/><g/><g/><g/><g/><g/></g></svg>