<svg version="1.1" xmlns="http://www.w3.org/2000/svg" xmlns:xlink="http://www.w3.org/1999/xlink" width="1092" height="746"><defs/><g><g/><g/><g/><g/><g/><g/><g/><g/><g><rect fill="white" stroke="none" x="0" y="0" width="1092" height="746"/></g><g><text fill="black" stroke="none" font-family="sans-serif" font-size="16.5pt" font-style="normal" font-weight="normal" text-decoration="normal" x="492.42259808089" y="26.3876361" text-anchor="start" dominant-baseline="alphabetic" xml:space="preserve">Login ACE</text></g><g/><g><path fill="none" stroke="black" paint-order="fill stroke markers" d=" M 42.82594614384766 139.67855375599999 L 42.82594614384766 746.594184056" stroke-miterlimit="10" stroke-width="1.4659797833333332" stroke-dasharray="13.532121076923076,5.863919133333333"/><path fill="none" stroke="black" paint-order="fill stroke markers" d=" M 188.61191326207683 139.67855375599999 L 188.61191326207683 746.594184056" stroke-miterlimit="10" stroke-width="1.4659797833333332" stroke-dasharray="13.532121076923076,5.863919133333333"/><path fill="none" stroke="black" paint-order="fill stroke markers" d=" M 514.6826201642904 139.67855375599999 L 514.6826201642904 746.594184056" stroke-miterlimit="10" stroke-width="1.4659797833333332" stroke-dasharray="13.532121076923076,5.863919133333333"/><path fill="none" stroke="black" paint-order="fill stroke markers" d=" M 660.075101094694 139.67855375599999 L 660.075101094694 746.594184056" stroke-miterlimit="10" stroke-width="1.4659797833333332" stroke-dasharray="13.532121076923076,5.863919133333333"/><path fill="none" stroke="black" paint-order="fill stroke markers" d=" M 787.0366606350221 139.67855375599999 L 787.0366606350221 746.594184056" stroke-miterlimit="10" stroke-width="1.4659797833333332" stroke-dasharray="13.532121076923076,5.863919133333333"/><path fill="none" stroke="black" paint-order="fill stroke markers" d=" M 930.7379456229128 139.67855375599999 L 930.7379456229128 746.594184056" stroke-miterlimit="10" stroke-width="1.4659797833333332" stroke-dasharray="13.532121076923076,5.863919133333333"/><path fill="none" stroke="black" paint-order="fill stroke markers" d=" M 1048.42732609928 139.67855375599999 L 1048.42732609928 746.594184056" stroke-miterlimit="10" stroke-width="1.4659797833333332" stroke-dasharray="13.532121076923076,5.863919133333333"/></g><g><g><path fill="white" stroke="black" paint-order="fill stroke markers" d=" M 52.853247861847656 65.265419954 A 10.027301717999999 10.027301717999999 0 1 1 52.85324284819722 65.25539265395321 M 42.82594614384766 75.29272167199998 L 42.82594614384766 96.75466569999998 M 30.15988081584766 83.033094928 L 55.49201147184766 83.033094928 M 42.82594614384766 96.75466569999998 L 30.15988081584766 116.80926913599998 M 42.82594614384766 96.75466569999998 L 55.49201147184766 116.80926913599998" stroke-miterlimit="10" stroke-width="2.990598758" stroke-dasharray=""/></g><g><g/><text fill="black" stroke="none" font-family="sans-serif" font-size="11pt" font-style="normal" font-weight="normal" text-decoration="normal" x="8.795878700000003" y="134.401026536" text-anchor="start" dominant-baseline="alphabetic" xml:space="preserve">Customer</text></g><g><path fill="white" stroke="black" paint-order="fill stroke markers" d=" M 223.53155170107684 89.19021001799997 A 26.123759739 26.123759739 0 1 1 223.53153863919806 89.16408626261492 M 155.1875742020768 61.57115089999997 L 155.1875742020768 116.80926913599997 M 153.69227482307681 89.19021001799997 L 171.28403222307682 89.19021001799997" stroke-miterlimit="10" stroke-width="2.990598758" stroke-dasharray=""/></g><g><g/><text fill="black" stroke="none" font-family="sans-serif" font-size="11pt" font-style="normal" font-weight="normal" text-decoration="normal" x="146.95478588170573" y="134.401026536" text-anchor="start" dominant-baseline="alphabetic" xml:space="preserve">CustomerUI</text></g><g><path fill="white" stroke="black" paint-order="fill stroke markers" d=" M 540.8063799032903 89.19021001799997 A 26.123759739 26.123759739 0 1 1 540.8063668414115 89.16408626261492 M 511.1642686842904 63.06645027899997 L 521.7193231242904 54.27057157899998 M 511.1642686842904 63.06645027899997 L 521.7193231242904 71.86232897899997" stroke-miterlimit="10" stroke-width="2.990598758" stroke-dasharray=""/></g><g><g/><text fill="black" stroke="none" font-family="sans-serif" font-size="11pt" font-style="normal" font-weight="normal" text-decoration="normal" x="460.3340178693685" y="134.401026536" text-anchor="start" dominant-baseline="alphabetic" xml:space="preserve">HospitalSystem</text></g><path fill="none" stroke="none"/><g><path fill="white" stroke="black" paint-order="fill stroke markers" d=" M 611.9007182658893 92.18080877599999 L 708.2494839234987 92.18080877599999 L 708.2494839234987 139.67855375599999 L 611.9007182658893 139.67855375599999 L 611.9007182658893 92.18080877599999 Z" stroke-miterlimit="10" stroke-width="2.814681184" stroke-dasharray=""/></g><g><g/><text fill="black" stroke="none" font-family="sans-serif" font-size="11pt" font-style="normal" font-weight="normal" text-decoration="normal" x="630.9877750448893" y="122.08679635600001" text-anchor="start" dominant-baseline="alphabetic" xml:space="preserve">Hospital</text></g><g><path fill="white" stroke="black" paint-order="fill stroke markers" d=" M 813.1604203740221 86.79773101159998 A 26.123759739 26.123759739 0 1 1 813.1604073121433 86.77160725621492 M 759.4176015170221 115.31396975699997 L 811.6651209950221 115.31396975699997" stroke-miterlimit="10" stroke-width="2.990598758" stroke-dasharray=""/></g><g><g/><text fill="black" stroke="none" font-family="sans-serif" font-size="11pt" font-style="normal" font-weight="normal" text-decoration="normal" x="725.8412413234987" y="134.401026536" text-anchor="start" dominant-baseline="alphabetic" xml:space="preserve">Account (current)</text></g><g><path fill="white" stroke="black" paint-order="fill stroke markers" d=" M 956.8617053619128 86.79773101159998 A 26.123759739 26.123759739 0 1 1 956.861692300034 86.77160725621492 M 903.1188865049128 115.31396975699997 L 955.3664059829127 115.31396975699997" stroke-miterlimit="10" stroke-width="2.990598758" stroke-dasharray=""/></g><g><g/><text fill="black" stroke="none" font-family="sans-serif" font-size="11pt" font-style="normal" font-weight="normal" text-decoration="normal" x="865.8238373465456" y="134.401026536" text-anchor="start" dominant-baseline="alphabetic" xml:space="preserve">Account (selected)</text></g><g><path fill="white" stroke="black" paint-order="fill stroke markers" d=" M 1022.74336029528 105.19870925199999 L 1022.74336029528 68.25601871199999 L 1074.11129190328 68.25601871199999 L 1074.11129190328 105.19870925199999" stroke-miterlimit="10" stroke-width="2.990598758" stroke-dasharray=""/><path fill="white" stroke="black" paint-order="fill stroke markers" d=" M 1074.11129190328 66.97182042179999 L 1074.1100077156914 67.08792408555635 L 1074.1061552813433 67.20401613904309 L 1074.099734985476 67.3200849731516 L 1074.0907474701137 67.43611898109519 L 1074.0791936340004 67.55210655956978 L 1074.06507463251 67.66803610991414 L 1074.0483918775312 67.78389603926989 L 1074.0291470373254 67.8996747617406 L 1074.0073420363603 68.01536069955054 L 1073.9829790551184 68.1309422842023 L 1073.956060529877 68.24640795763378 L 1073.9265891524665 68.3617461733738 L 1073.8945678700002 68.47694539769695 L 1073.859999884579 68.59199411077678 L 1073.8228886529735 68.70688080783783 L 1073.7832378862754 68.82159400030618 L 1073.7410515495285 68.93612221695814 L 1073.6963338613311 69.0504540050675 L 1073.649089293415 69.16457793155072 L 1073.5993225701977 69.27848258411025 L 1073.5470386683098 69.39215657237577 L 1073.492242816098 69.50558852904317 L 1073.434940493102 69.61876711101131 L 1073.3751374295061 69.73168100051632 L 1073.312839605567 69.84431890626333 L 1073.248053251015 69.95666956455563 L 1073.1807848444319 70.06872174042103 L 1073.1110411126022 70.18046422873529 L 1073.0388290298406 70.29188585534273 L 1072.9641558172955 70.40297547817353 L 1072.887028942226 70.51372198835797 L 1072.807456117255 70.62411431133734 L 1072.7254452995992 70.73414140797132 L 1072.6410046902715 70.84379227564195 L 1072.5541427332628 70.95305594935381 L 1072.4648681146962 71.06192150283061 L 1072.3731897619596 71.1703780496077 L 1072.2791168428112 71.27841474412082 L 1072.182658764465 71.38602078279051 L 1072.0838251726484 71.4931854051026 L 1071.982625950638 71.59989789468413 L 1071.879071218272 71.7061475803751 L 1071.773171330937 71.81192383729548 L 1071.6649368785336 71.9172160879077 L 1071.554378684417 72.02201380307447 L 1071.4415078043144 72.12630650311159 L 1071.3263355252195 72.23008375883597 L 1071.2088733642647 72.33333519260853 L 1071.089133067568 72.43605047937191 L 1070.967126609059 72.53821934768304 L 1070.8428661892822 72.63983158074024 L 1070.7163642341761 72.74087701740487 L 1070.5876333938304 72.84134555321748 L 1070.4566865412223 72.94122714140819 L 1070.3235367709278 73.04051179390143 L 1070.1881973978127 73.13918958231469 L 1070.050681955702 73.23725063895135 L 1069.9110041960248 73.33468515778748 L 1069.7691780864411 73.43148339545236 L 1069.6252178094435 73.52763567220293 L 1069.4791377609397 73.6231323728916 L 1069.3309525488128 73.71796394792793 L 1069.1806769914606 73.8121209142334 L 1069.0283261163136 73.90559385618985 L 1068.8739151583322 73.998373426581 L 1068.717459558484 74.09045034752711 L 1068.558974962198 74.18181541141281 L 1068.398477217802 74.27245948180787 L 1068.2359823749368 74.36237349438078 L 1068.0715066829514 74.45154845780519 L 1067.9050665892776 74.53997545465909 L 1067.736678737786 74.62764564231648 L 1067.5663599671218 74.71455025383165 L 1067.39412730902 74.80068059881587 L 1067.2199979866027 74.88602806430642 L 1067.043989412657 74.97058411562787 L 1066.8661191878941 75.05434029724555 L 1066.686405099188 75.13728823361109 L 1066.5048651177976 75.21941962999999 L 1066.32151739757 75.30072627334106 L 1066.1363802731241 75.38120003303769 L 1065.9494722580187 75.46083286178099 L 1065.7608120428988 75.53961679635444 L 1065.5704184936294 75.61754395843025 L 1065.378310649406 75.69460655535714 L 1065.1845077208538 75.77079688093964 L 1064.9890290881035 75.84610731620869 L 1064.7918942988558 75.9205303301835 L 1064.593123066425 75.99405848062472 L 1064.3927352677692 76.06668441477855 L 1064.190750941501 76.13840087011211 L 1063.9871902858845 76.20920067503964 L 1063.782073656816 76.27907674963963 L 1063.5754215657873 76.34802210636286 L 1063.3672546778355 76.4160298507311 L 1063.1575938094754 76.48309318202661 L 1062.9464599266198 76.54920539397213 L 1062.7338741424805 76.61435987540155 L 1062.519857715459 76.67855011092104 L 1062.3044320470196 76.74176968156053 L 1062.0876186795497 76.80401226541565 L 1061.8694392942052 76.86527163827986 L 1061.649915708743 76.92554167426694 L 1061.4290698753387 76.98481634642351 L 1061.2069238783915 77.04308972733178 L 1060.9834999323161 77.10035598970217 L 1060.7588203793207 77.15660940695618 L 1060.5329076871735 77.21184435379898 L 1060.3057844469556 77.26605530678191 L 1060.0774733708015 77.31923684485484 L 1059.8479972896287 77.37138364990828 L 1059.617379150854 77.42249050730518 L 1059.3856420160994 77.4725523064024 L 1059.1528090588847 77.52156404106174 L 1058.9189035623122 77.56952081015058 L 1058.6839489167362 77.61641781803196 L 1058.4479686174257 77.6622503750442 L 1058.2109862622137 77.70701389796976 L 1057.9730255491386 77.75070391049368 L 1057.7341102740731 77.7933160436511 L 1057.4942643283457 77.83484603626422 L 1057.2535116963513 77.87528973536838 L 1057.0118764531524 77.91464309662739 L 1056.7693827620717 77.9529021847379 L 1056.5260548722765 77.99006317382297 L 1056.281917116353 78.02612234781469 L 1056.036993907873 78.0610761008257 L 1055.7913097389537 78.09492093750981 L 1055.5448891778071 78.12765347341158 L 1055.2977568662839 78.15927043530469 L 1055.0499375174093 78.18976866151928 L 1054.8014559129117 78.21914510225817 L 1054.5523369007446 78.24739681990175 L 1054.3026053926014 78.27452098930179 L 1054.0522863614249 78.30051489806398 L 1053.8014048389098 78.32537594681908 L 1053.5499859129989 78.34910164948295 L 1053.2980547253758 78.37168963350508 L 1053.0456364689487 78.39313764010592 L 1052.7927563853334 78.41344352450264 L 1052.5394397623272 78.43260525612375 L 1052.2857119313815 78.45062091881205 L 1052.031598265068 78.46748871101629 L 1051.7771241745413 78.48320694597129 L 1051.5223151069988 78.49777405186667 L 1051.2671965431343 78.51118857200397 L 1051.0117939945924 78.52344916494236 L 1050.7561330014144 78.53455460463276 L 1050.500239129487 78.54450378054045 L 1050.244137967984 78.55329569775614 L 1049.987855126808 78.56092947709544 L 1049.7314162340297 78.56740435518677 L 1049.4748469333247 78.57271968454769 L 1049.2181728814094 78.57687493364975 L 1048.9614197454746 78.57986968697145 L 1048.7046132006205 78.58170364504 L 1048.4477789272873 78.58237662446106 L 1048.1909426086881 78.58188855793732 L 1047.9341299282414 78.58023949427498 L 1047.6773665670005 78.57742959837903 L 1047.4206782010879 78.57345915123673 L 1047.1640904991264 78.56832854988951 L 1046.907629119672 78.56203830739318 L 1046.6513197086495 78.5545890527668 L 1046.3951878967857 78.54598153092958 L 1046.139259297049 78.53621660262655 L 1045.8835595020855 78.5252952443424 L 1045.628114081662 78.51321854820387 L 1045.3729485801077 78.4999877218705 L 1045.11808851376 78.48560408841388 L 1044.8635593684132 78.4700690861854 L 1044.6093865967696 78.45338426867232 L 1044.3555956158946 78.4355513043425 L 1044.1022118046749 78.41657197647748 L 1043.8492605012805 78.39644818299428 L 1043.5967670006307 78.37518193625543 L 1043.3447565518654 78.35277536286792 L 1043.0932543558195 78.32923070347039 L 1042.8422855625029 78.30455031250918 L 1042.5918752685855 78.2787366580028 L 1042.3420485148886 78.2517923212952 L 1042.0928302838788 78.2237199967976 L 1041.844245497172 78.19452249171906 L 1041.5963190130396 78.16420272578573 L 1041.3490756239232 78.13276373094897 L 1041.1025400539559 78.10020865108203 L 1040.8567369564892 78.0665407416658 L 1040.6116909116279 78.03176336946316 L 1040.3674264237723 77.99588001218234 L 1040.1239679191679 77.95889425812916 L 1039.8813397434617 77.92080980584822 L 1039.6395661592696 77.881630463753 L 1039.3986713437487 77.84136014974506 L 1039.158679386179 77.80000289082224 L 1038.9196142855571 77.75756282267598 L 1038.6814999481935 77.71404418927773 L 1038.4443601853234 77.66945134245454 L 1038.2082187107258 77.62378874145395 L 1037.973099138351 77.57706095249802 L 1037.7390249799603 77.52927264832667 L 1037.5060196427748 77.48042860773052 L 1037.274106427134 77.43053371507293 L 1037.043308524166 77.37959295980157 L 1036.8136490134689 77.32761143594954 L 1036.5851508608023 77.27459434162587 L 1036.357836915791 77.22054697849586 L 1036.1317299096404 77.16547475125074 L 1035.9068524528623 77.10938316706736 L 1035.683227033015 77.0522778350574 L 1035.4608760124547 76.99416446570646 L 1035.2398216260974 76.93504887030305 L 1035.020085979198 76.87493696035746 L 1034.8016910451379 76.81383474701059 L 1034.5846586632288 76.75174834043284 L 1034.3690105365274 76.68868394921314 L 1034.1547682296673 76.62464787973806 L 1033.9419531667004 76.5596465355612 L 1033.7305866289555 76.49368641676277 L 1033.5206897529106 76.42677411929971 L 1033.3122835280778 76.358916334346 L 1033.1053887949067 76.2901198476236 L 1032.9000262426975 76.22039153872383 L 1032.6962164075348 76.14973838041949 L 1032.493979670232 76.07816743796754 L 1032.2933362542944 76.00568586840255 L 1032.0943062238964 75.9323009198211 L 1031.896909481875 75.8580199306569 L 1031.7011657677401 75.78285032894695 L 1031.5070946556998 75.70679963158878 L 1031.314715552704 75.62987544358876 L 1031.1240476965022 75.55208545730159 L 1030.9351101537213 75.47343745166106 L 1030.7479218179583 75.3939392914022 L 1030.5625014078905 75.31359892627479 L 1030.3788674654045 75.2324243902484 L 1030.1970383537416 75.15042380070896 L 1030.0170322556614 75.06760535764712 L 1029.8388671716239 74.98397734283817 L 1029.6625609179887 74.89954811901389 L 1029.4881311252343 74.8143261290263 L 1029.3155952361947 74.72831989500338 L 1029.144970504315 74.64153801749687 L 1028.9762739919263 74.5539891746222 L 1028.8095225685393 74.46568212119071 L 1028.644732909157 74.37662568783415 L 1028.4819214926085 74.28682878012162 L 1028.3211045998994 74.19630037766909 L 1028.162298312585 74.10504953324134 L 1028.005518511162 74.0130853718468 L 1027.8507808734798 73.92041708982494 L 1027.698100873173 73.82705395392676 L 1027.5474937781144 73.73300530038806 L 1027.3989746488883 73.63828053399578 L 1027.2525583372835 73.54288912714766 L 1027.1082594848094 73.44684061890487 L 1026.9660925212308 73.3501446140382 L 1026.826071663126 73.25281078206757 L 1026.6882109124635 73.15484885629505 L 1026.552524055204 73.05626863283157 L 1026.4190246599198 72.95707996961737 L 1026.2877260764396 72.85729278543607 L 1026.158641434512 72.75691705892295 L 1026.0317836424936 72.65596282756702 L 1025.907165386058 72.5544401867073 L 1025.784799126927 72.45235928852324 L 1025.6646971016246 72.34973034101961 L 1025.546871320253 72.24656360700563 L 1025.4313335652926 72.14286940306874 L 1025.318095390422 72.03865809854291 L 1025.207168119365 71.93394011447177 L 1025.0985628447556 71.82872592256643 L 1024.9922904270313 71.72302604415843 L 1024.888361493345 71.61685104914753 L 1024.7867864365037 71.51021155494473 L 1024.687575413928 71.4031182254106 L 1024.590738346638 71.29558176978884 L 1024.4962849182596 71.1876129416354 L 1024.4042245740566 71.07922253774314 L 1024.314566519987 70.9704213970621 L 1024.2273197217814 70.86122039961568 L 1024.142492904047 70.75163046541265 L 1024.060094549395 70.64166255335508 L 1023.9801328975917 70.53132766014255 L 1023.9026159447362 70.42063681917243 L 1023.8275514424589 70.30960109943658 L 1023.7549468971475 70.19823160441445 L 1023.6848095691962 70.0865394709627 L 1023.617146472279 69.97453586820164 L 1023.5519643726496 69.86223199639821 L 1023.4892697884634 69.74963908584596 L 1023.4290689891267 69.63676839574217 L 1023.3713679946691 69.52363121306175 L 1023.3161725751421 69.41023885142872 L 1023.2634882500416 69.29660264998472 L 1023.2133202877563 69.18273397225522 L 1023.1656737050405 69.0686442050131 L 1023.1205532665128 68.95434475714 L 1023.0779634841796 68.83984705848547 L 1023.0379086169834 68.72516255872397 L 1023.0003926703777 68.61030272620987 L 1022.9654193959258 68.49527904683073 L 1022.932992290926 68.38010302285863 L 1022.9031145980618 68.2647861718 L 1022.8757893050778 68.14934002524383 L 1022.8510191444802 68.03377612770858 L 1022.8288065932646 67.9181060354877 L 1022.8091538726676 67.80234131549402 L 1022.7920629479449 67.68649354410306 L 1022.7775355281747 67.57057430599544 L 1022.7655730660867 67.45459519299835 L 1022.7561767579174 67.33856780292646 L 1022.7493475432897 67.22250373842208 L 1022.7450861051193 67.10641460579494 L 1022.7433928695465 66.99031201386155 L 1022.7442680058934 66.87420757278437 L 1022.7477114266474 66.75811289291076 L 1022.7537227874689 66.64203958361193 L 1022.762301487227 66.52599925212212 L 1022.7734466680588 66.41000350237775 L 1022.7871572154556 66.29406393385715 L 1022.8034317583741 66.17819214042055 L 1022.8222686693736 66.06239970915072 L 1022.8436660647784 65.94669821919432 L 1022.8676218048671 65.8310992406039 L 1022.8941334940856 65.71561433318102 L 1022.9231984812869 65.60025504532017 L 1022.9548138599968 65.48503291285398 L 1022.9889764687035 65.36995945789971 L 1023.0256828911747 65.25504618770695 L 1023.0649294567988 65.14030459350695 L 1023.1067122409519 65.02574614936354 L 1023.1510270653903 64.91138231102563 L 1023.1978694986686 64.79722451478179 L 1023.2472348565825 64.68328417631649 L 1023.2991182026374 64.56957268956862 L 1023.3535143485418 64.45610142559212 L 1023.4104178547265 64.3428817314188 L 1023.4698230308883 64.22992492892377 L 1023.5317239365592 64.1172423136931 L 1023.5961143816999 64.00484515389444 L 1023.6629879273198 63.89274468915009 L 1023.7323378861201 63.78095212941312 L 1023.8041573231626 63.66947865384635 L 1023.8784390565635 63.558335409704426 L 1023.9551756582113 63.447533511219156 L 1024.0343594545097 63.337084038488044 L 1024.1159825271454 63.226998036366325 L 1024.2000367138787 63.11728651336247 L 1024.2865136093615 63.00796044053737 L 1024.3754045659757 62.899030750407185 L 1024.4667006947002 62.790508335850156 L 1024.560392865998 62.682404049017315 L 1024.65647171073 62.57472870024724 L 1024.754927621092 62.4674930569851 L 1024.855750751575 62.36070784270584 L 1024.9589310199497 62.25438373584191 L 1025.0644581082754 62.148531368715396 L 1025.1723214639312 62.04316132647479 L 1025.2825103006714 61.938284146036516 L 1025.3950135997043 61.83391031503122 L 1025.5098201107935 61.73005027075502 L 1025.6269183533836 61.6267143991258 L 1025.7462966177482 61.52391303364461 L 1025.8679429661602 61.42165645436233 L 1025.991845234086 61.31995488685167 L 1026.117991031402 61.21881850118463 L 1026.246367743634 61.1182574109155 L 1026.3769625332172 61.018281672069506 L 1026.5097623407821 60.91890128213721 L 1026.6447538864581 60.82012617907481 L 1026.7819236712032 60.72196624031029 L 1026.9212579781536 60.62443128175571 L 1027.0627428739942 60.52753105682567 L 1027.2063642103537 60.431275255461905 L 1027.352107625218 60.33567350316434 L 1027.499958544367 60.24073536002853 L 1027.6499021828322 60.14647031978968 L 1027.8019235463744 60.05288780887326 L 1027.9560074329843 59.959997185452366 L 1028.1121384344015 59.86780773851195 L 1028.2703009376557 59.77632868691987 L 1028.4304791266286 59.68556917850505 L 1028.592656983635 59.59553828914271 L 1028.756818291024 59.50624502184675 L 1028.9229466328018 59.41769830586949 L 1029.0910253962727 59.32990699580875 L 1029.2610377737003 59.24287987072236 L 1029.4329667639886 59.15662563325033 L 1029.606795174382 59.0711529087445 L 1029.7825056221839 58.986470244406114 L 1029.9600805364964 58.90258610843103 L 1030.1395021599758 58.81950888916295 L 1030.3207525506093 58.737246894254554 L 1030.503813583509 58.65580834983679 L 1030.6886669527241 58.57520139969624 L 1030.8752941730716 58.49543410446074 L 1031.063676581985 58.41651444079334 L 1031.2537953413805 58.33845030059465 L 1031.4456314395406 58.26124949021362 L 1031.6391656930155 58.18491972966697 L 1031.8343787485408 58.10946865186714 L 1032.0312510849735 58.03490380185903 L 1032.2297630152445 57.96123263606552 L 1032.4298946883262 57.88846252154177 L 1032.6316260912176 57.816600735238616 L 1032.8349370509468 57.74565446327479 L 1033.0398072365872 57.67563080021837 L 1033.246216161291 57.60653674837731 L 1033.4541431843377 57.53837921709922 L 1033.6635675131984 57.47116502208042 L 1033.8744682056144 57.40490088468441 L 1034.0868241716926 57.3395934312697 L 1034.3006141760131 57.27524919252721 L 1034.5158168397536 57.21187460282721 L 1034.7324106428273 57.14947599957584 L 1034.9503739260342 57.088059622581426 L 1035.169684893228 57.02763161343051 L 1035.390321613494 56.96819801487362 L 1035.6122620233446 56.9097647702211 L 1035.8354839289234 56.85233772274873 L 1036.0599650082263 56.79592261511338 L 1036.2856828133322 56.74052508877882 L 1036.5126147726487 56.6861506834515 L 1036.740738193169 56.63280483652666 L 1036.970030262741 56.58049288254453 L 1037.200468052349 56.52922005265691 L 1037.4320285184058 56.47899147410408 L 1037.6646885050582 56.42981216970201 L 1037.8984247465012 56.38168705734017 L 1038.1332138693053 56.334620949489704 L 1038.369032394754 56.28861855272216 L 1038.6058567411915 56.24368446723889 L 1038.84366322638 56.199823186410995 L 1039.0824280698696 56.157039096329996 L 1039.3221273953745 56.11533647536926 L 1039.5627372331624 56.07471949375613 L 1039.8042335224497 56.035192213154914 L 1040.0465921138089 55.99675858626073 L 1040.2897887715826 55.959422456404255 L 1040.5337991763079 55.923187557167346 L 1040.7785989271474 55.88805751200974 L 1041.0241635443303 55.85403583390668 L 1041.2704684715995 55.82112592499761 L 1041.5174890786675 55.78933107624601 L 1041.7652006636793 55.758654467110254 L 1042.0135784556828 55.72909916522569 L 1042.262597617106 55.70066812609789 L 1042.5122332462402 55.67336419280706 L 1042.7624603797303 55.64719009572377 L 1043.0132539950716 55.62214845223594 L 1043.2645890131118 55.598241766487035 L 1043.5164403005583 55.57547242912571 L 1043.7687826724923 55.55384271706673 L 1044.021590894887 55.533354793263264 L 1044.2748396871305 55.51401070649064 L 1044.5285037245549 55.4958123911414 L 1044.7825576409678 55.47876166703191 L 1045.0369760311892 55.46286023922039 L 1045.291733453592 55.44810969783636 L 1045.5468044326465 55.434511517921656 L 1045.8021634614672 55.42206705928295 L 1046.0577850043642 55.41077756635575 L 1046.3136434993958 55.40064416807991 L 1046.5697133609262 55.39166787778682 L 1046.8259689821823 55.38384959309805 L 1047.0823847378158 55.37719009583553 L 1047.3389349864647 55.37169005194345 L 1047.5955940733177 55.36735001142162 L 1047.8523363326804 55.36417040827046 L 1048.1091360905405 55.36215156044765 L 1048.3659676671361 55.36129366983628 L 1048.6228053795242 55.3615968222247 L 1048.8796235441469 55.363060987297914 L 1049.136396479402 55.36568601864066 L 1049.3930985082102 55.369471653751965 L 1049.649703960582 55.37441751407148 L 1049.9061871761864 55.3805231050173 L 1050.1625225069158 55.38778781603543 L 1050.4186843194502 55.39621092066079 L 1050.674646997822 55.40579157658996 L 1050.9303849459768 55.41652882576533 L 1051.1858725903328 55.428421594470926 L 1051.4410843823384 55.44146869343979 L 1051.6959948010272 55.45566881797289 L 1051.9505783555696 55.47102054806961 L 1052.2048095878226 55.48752234856974 L 1052.4586630748745 55.50517256930697 L 1052.7121134315883 55.52396944527395 L 1052.9651353131396 55.54391109679874 L 1053.2177034175509 55.56499552973279 L 1053.4697924882223 55.587220635650404 L 1053.721377316457 55.61058419205949 L 1053.9724327439817 55.63508386262389 L 1054.2229336654627 55.660717197396956 L 1054.4728550310167 55.687481633066575 L 1054.7221718487156 55.715374493211485 L 1054.9708591870851 55.744392988568904 L 1055.218892177599 55.7745342173135 L 1055.4662460171644 55.8057951653475 L 1055.7128959706038 55.83817270660215 L 1055.9588173731274 55.871663603350314 L 1056.2039856328 55.90626450653023 L 1056.4483762329996 55.941971956080394 L 1056.69196473487 55.97878238128563 L 1056.934726779764 56.01669210113408 L 1057.1766380916797 56.055697324685354 L 1057.4176744796869 56.095794151449596 L 1057.6578118403481 56.136978571777554 L 1057.8970261601273 56.17924646726151 L 1058.1352935177918 56.22259361114713 L 1058.3725900868044 56.267015668756166 L 1058.6088921377059 56.31250819791986 L 1058.844176040488 56.35906664942321 L 1059.078418266957 56.40668636745987 L 1059.3115953930849 56.455362590097714 L 1059.5436841013536 56.505090449755045 L 1059.7746611830858 56.55586497368733 L 1060.0045035407657 56.60768108448449 L 1060.233188190349 56.66053360057863 L 1060.4606922635612 56.71441723676219 L 1060.686993010185 56.76932660471643 L 1060.912067800334 56.82525621355034 L 1061.1358941267167 56.88220047034963 L 1061.3584496068872 56.940153680736074 L 1061.5797119854828 56.999110049436936 L 1061.7996591364501 57.05906368086447 L 1062.0182690652575 57.120008579705484 L 1062.2355199110937 57.1819386515209 L 1062.4513899490557 57.244847703355134 L 1062.6658575923193 57.308729444355436 L 1062.878901394299 57.373577486400926 L 1063.0905000507921 57.439385344741446 L 1063.3006324021094 57.506146438646006 L 1063.5092774351908 57.57385409206084 L 1063.7164142857068 57.642501534277045 L 1063.9220222401452 57.712081900607586 L 1064.1260807378815 57.78258823307383 L 1064.3285693732362 57.854013481101276 L 1064.5294678975147 57.92635050222464 L 1064.7287562210315 57.99959206280211 L 1064.926414415121 58.07373083873863 L 1065.1224227141277 58.14875941621842 L 1065.3167615173857 58.224670292446234 L 1065.5094113911762 58.30145587639771 L 1065.7003530706727 58.379108489578456 L 1065.8895674618661 58.45762036679186 L 1066.077035643475 58.53698365691561 L 1066.2627388688377 58.61719042368684 L 1066.446658567786 58.698232646495725 L 1066.6287763485038 58.7801022211875 L 1066.8090739993643 58.86279096087293 L 1066.9875334907529 58.94629059674695 L 1067.1641369768693 59.03059277891555 L 1067.3388667975116 59.115689077230776 L 1067.5117054798438 59.2015709821337 L 1067.6826357401417 59.2882299055054 L 1067.8516404855213 59.375657181525774 L 1068.0187028156492 59.46384406754005 L 1068.1838060244318 59.55278174493313 L 1068.3469336016851 59.642461320011385 L 1068.508069234788 59.73287382489204 L 1068.6671968103115 59.82401021839995 L 1068.8243004156302 59.91586138697171 L 1068.9793643405146 60.008418145567006 L 1069.1323730787017 60.10167123858711 L 1069.2833113294448 60.195611340800426 L 1069.4321639990449 60.29022905827503 L 1069.578916202359 60.385514929318006 L 1069.7235532642892 60.48145942542166 L 1069.8660607212494 60.57805295221634 L 1070.0064243226132 60.67528585042985 L 1070.144630032137 60.77314839685341 L 1070.2806640293654 60.87163080531391 L 1070.4145127110119 60.97072322765259 L 1070.5461626923195 61.07041575470979 L 1070.6756008084003 61.170698417315876 L 1070.8028141155503 61.271561187288164 L 1070.927789892545 61.3729939784337 L 1071.0505156419106 61.47498664755789 L 1071.1709790911746 61.577528995478836 L 1071.289168194092 61.68061076804718 L 1071.4050711318519 61.78422165717158 L 1071.5186763142565 61.88835130184945 L 1071.629972380882 61.99298928920311 L 1071.7389482022152 62.09812515552101 L 1071.8455928807641 62.203748387304145 L 1071.9498957521503 62.30984842231735 L 1072.051846386173 62.416414650645535 L 1072.1514345878543 62.52343641575468 L 1072.2486503984567 62.63090301555746 L 1072.34348409648 62.73880370348344 L 1072.435926198634 62.847127689553744 L 1072.5259674607848 62.95586414146005 L 1072.6135988788817 63.065002185647764 L 1072.698811689856 63.174530908403426 L 1072.7815973724973 63.28443935694603 L 1072.8619476483063 63.39471654052231 L 1072.9398544823227 63.50535143150581 L 1073.0153100839277 63.61633296649962 L 1073.0883069076242 63.72765004744274 L 1073.1588376537907 63.83929154271982 L 1073.2268952694112 63.951246288274376 L 1073.2924729487809 64.06350308872516 L 1073.3555641341866 64.17605071848564 L 1073.4161625165623 64.28887792288667 L 1073.47426203612 64.40197341930181 L 1073.5298568829567 64.51532589827566 L 1073.5829414976336 64.6289240246548 L 1073.6335105717335 64.74275643872124 L 1073.6815590483914 64.85681175732844 L 1073.7270821227994 64.97107857503958 L 1073.7700752426883 65.08554546526814 L 1073.8105341087814 65.20020098142045 L 1073.8484546752265 65.31503365804045 L 1073.883833149998 65.43003201195617 L 1073.9166659952782 65.54518454342806 L 1073.94694992781 65.66047973729893 L 1073.974681919225 65.77590606414547 L 1073.9998591963474 65.89145198143119 L 1074.0224792414706 66.00710593466063 L 1074.0425397926087 66.12285635853486 L 1074.0600388437235 66.23869167810795 L 1074.0749746449242 66.35460030994449 L 1074.0873457026435 66.47057066327784 L 1074.0971507797856 66.58659114116935 L 1074.1043888958511 66.70265014166789 L 1074.1090593270346 66.81873605897015 L 1074.1111616062965 66.9348372845811 M 1074.11129190328 103.91451096179999 L 1074.1100077156914 104.03061462555635 L 1074.1061552813433 104.14670667904309 L 1074.099734985476 104.2627755131516 L 1074.0907474701137 104.37880952109519 L 1074.0791936340004 104.49479709956978 L 1074.06507463251 104.61072664991414 L 1074.0483918775312 104.72658657926989 L 1074.0291470373254 104.8423653017406 L 1074.0073420363603 104.95805123955054 L 1073.9829790551184 105.0736328242023 L 1073.956060529877 105.18909849763378 L 1073.9265891524665 105.3044367133738 L 1073.8945678700002 105.41963593769695 L 1073.859999884579 105.53468465077678 L 1073.8228886529735 105.64957134783783 L 1073.7832378862754 105.76428454030618 L 1073.7410515495285 105.87881275695814 L 1073.6963338613311 105.9931445450675 L 1073.649089293415 106.10726847155073 L 1073.5993225701977 106.22117312411025 L 1073.5470386683098 106.33484711237577 L 1073.492242816098 106.44827906904317 L 1073.434940493102 106.56145765101131 L 1073.3751374295061 106.67437154051632 L 1073.312839605567 106.78700944626333 L 1073.248053251015 106.89936010455563 L 1073.1807848444319 107.01141228042103 L 1073.1110411126022 107.12315476873529 L 1073.0388290298406 107.23457639534273 L 1072.9641558172955 107.34566601817353 L 1072.887028942226 107.45641252835797 L 1072.807456117255 107.56680485133734 L 1072.7254452995992 107.67683194797132 L 1072.6410046902715 107.78648281564195 L 1072.5541427332628 107.89574648935381 L 1072.4648681146962 108.00461204283062 L 1072.3731897619596 108.1130685896077 L 1072.2791168428112 108.22110528412082 L 1072.182658764465 108.32871132279051 L 1072.0838251726484 108.4358759451026 L 1071.982625950638 108.54258843468413 L 1071.879071218272 108.6488381203751 L 1071.773171330937 108.75461437729548 L 1071.6649368785336 108.8599066279077 L 1071.554378684417 108.96470434307447 L 1071.4415078043144 109.0689970431116 L 1071.3263355252195 109.17277429883598 L 1071.2088733642647 109.27602573260853 L 1071.089133067568 109.37874101937192 L 1070.967126609059 109.48090988768304 L 1070.8428661892822 109.58252212074024 L 1070.7163642341761 109.68356755740487 L 1070.5876333938304 109.78403609321748 L 1070.4566865412223 109.88391768140819 L 1070.3235367709278 109.98320233390143 L 1070.1881973978127 110.08188012231469 L 1070.050681955702 110.17994117895135 L 1069.9110041960248 110.27737569778748 L 1069.7691780864411 110.37417393545236 L 1069.6252178094435 110.47032621220293 L 1069.4791377609397 110.5658229128916 L 1069.3309525488128 110.66065448792793 L 1069.1806769914606 110.7548114542334 L 1069.0283261163136 110.84828439618985 L 1068.8739151583322 110.941063966581 L 1068.717459558484 111.03314088752711 L 1068.558974962198 111.12450595141281 L 1068.398477217802 111.21515002180787 L 1068.2359823749368 111.30506403438078 L 1068.0715066829514 111.39423899780519 L 1067.9050665892776 111.48266599465909 L 1067.736678737786 111.57033618231648 L 1067.5663599671218 111.65724079383165 L 1067.39412730902 111.74337113881587 L 1067.2199979866027 111.82871860430642 L 1067.043989412657 111.91327465562787 L 1066.8661191878941 111.99703083724555 L 1066.686405099188 112.07997877361109 L 1066.5048651177976 112.16211016999999 L 1066.32151739757 112.24341681334106 L 1066.1363802731241 112.32389057303769 L 1065.9494722580187 112.40352340178099 L 1065.7608120428988 112.48230733635444 L 1065.5704184936294 112.56023449843025 L 1065.378310649406 112.63729709535714 L 1065.1845077208538 112.71348742093964 L 1064.9890290881035 112.78879785620869 L 1064.7918942988558 112.8632208701835 L 1064.593123066425 112.93674902062472 L 1064.3927352677692 113.00937495477855 L 1064.190750941501 113.08109141011211 L 1063.9871902858845 113.15189121503964 L 1063.782073656816 113.22176728963963 L 1063.5754215657873 113.29071264636286 L 1063.3672546778355 113.35872039073111 L 1063.1575938094754 113.42578372202661 L 1062.9464599266198 113.49189593397213 L 1062.7338741424805 113.55705041540155 L 1062.519857715459 113.62124065092104 L 1062.3044320470196 113.68446022156053 L 1062.0876186795497 113.74670280541565 L 1061.8694392942052 113.80796217827987 L 1061.649915708743 113.86823221426694 L 1061.4290698753387 113.92750688642352 L 1061.2069238783915 113.98578026733178 L 1060.9834999323161 114.04304652970217 L 1060.7588203793207 114.09929994695618 L 1060.5329076871735 114.15453489379898 L 1060.3057844469556 114.20874584678191 L 1060.0774733708015 114.26192738485484 L 1059.8479972896287 114.31407418990828 L 1059.617379150854 114.36518104730519 L 1059.3856420160994 114.4152428464024 L 1059.1528090588847 114.46425458106174 L 1058.9189035623122 114.51221135015058 L 1058.6839489167362 114.55910835803196 L 1058.4479686174257 114.6049409150442 L 1058.2109862622137 114.64970443796976 L 1057.9730255491386 114.69339445049368 L 1057.7341102740731 114.7360065836511 L 1057.4942643283457 114.77753657626423 L 1057.2535116963513 114.81798027536838 L 1057.0118764531524 114.85733363662739 L 1056.7693827620717 114.8955927247379 L 1056.5260548722765 114.93275371382298 L 1056.281917116353 114.96881288781469 L 1056.036993907873 115.0037666408257 L 1055.7913097389537 115.03761147750981 L 1055.5448891778071 115.07034401341159 L 1055.2977568662839 115.10196097530469 L 1055.0499375174093 115.13245920151928 L 1054.8014559129117 115.16183564225817 L 1054.5523369007446 115.19008735990175 L 1054.3026053926014 115.21721152930179 L 1054.0522863614249 115.24320543806398 L 1053.8014048389098 115.26806648681908 L 1053.5499859129989 115.29179218948295 L 1053.2980547253758 115.31438017350509 L 1053.0456364689487 115.33582818010592 L 1052.7927563853334 115.35613406450264 L 1052.5394397623272 115.37529579612375 L 1052.2857119313815 115.39331145881205 L 1052.031598265068 115.41017925101629 L 1051.7771241745413 115.42589748597129 L 1051.5223151069988 115.44046459186667 L 1051.2671965431343 115.45387911200397 L 1051.0117939945924 115.46613970494236 L 1050.7561330014144 115.47724514463276 L 1050.500239129487 115.48719432054045 L 1050.244137967984 115.49598623775614 L 1049.987855126808 115.50362001709544 L 1049.7314162340297 115.51009489518677 L 1049.4748469333247 115.5154102245477 L 1049.2181728814094 115.51956547364975 L 1048.9614197454746 115.52256022697145 L 1048.7046132006205 115.52439418504 L 1048.4477789272873 115.52506716446106 L 1048.1909426086881 115.52457909793732 L 1047.9341299282414 115.52293003427498 L 1047.6773665670005 115.52012013837903 L 1047.4206782010879 115.51614969123673 L 1047.1640904991264 115.51101908988952 L 1046.907629119672 115.50472884739318 L 1046.6513197086495 115.4972795927668 L 1046.3951878967857 115.48867207092958 L 1046.139259297049 115.47890714262655 L 1045.8835595020855 115.4679857843424 L 1045.628114081662 115.45590908820387 L 1045.3729485801077 115.4426782618705 L 1045.11808851376 115.42829462841388 L 1044.8635593684132 115.4127596261854 L 1044.6093865967696 115.39607480867232 L 1044.3555956158946 115.3782418443425 L 1044.1022118046749 115.35926251647749 L 1043.8492605012805 115.33913872299428 L 1043.5967670006307 115.31787247625543 L 1043.3447565518654 115.29546590286792 L 1043.0932543558195 115.27192124347039 L 1042.8422855625029 115.24724085250918 L 1042.5918752685855 115.2214271980028 L 1042.3420485148886 115.1944828612952 L 1042.0928302838788 115.1664105367976 L 1041.844245497172 115.13721303171906 L 1041.5963190130396 115.10689326578573 L 1041.3490756239232 115.07545427094897 L 1041.1025400539559 115.04289919108203 L 1040.8567369564892 115.0092312816658 L 1040.6116909116279 114.97445390946316 L 1040.3674264237723 114.93857055218234 L 1040.1239679191679 114.90158479812916 L 1039.8813397434617 114.86350034584822 L 1039.6395661592696 114.824321003753 L 1039.3986713437487 114.78405068974506 L 1039.158679386179 114.74269343082224 L 1038.9196142855571 114.70025336267598 L 1038.6814999481935 114.65673472927773 L 1038.4443601853234 114.61214188245454 L 1038.2082187107258 114.56647928145395 L 1037.973099138351 114.51975149249802 L 1037.7390249799603 114.47196318832667 L 1037.5060196427748 114.42311914773052 L 1037.274106427134 114.37322425507293 L 1037.043308524166 114.32228349980157 L 1036.8136490134689 114.27030197594954 L 1036.5851508608023 114.21728488162587 L 1036.357836915791 114.16323751849586 L 1036.1317299096404 114.10816529125074 L 1035.9068524528623 114.05207370706736 L 1035.683227033015 113.9949683750574 L 1035.4608760124547 113.93685500570646 L 1035.2398216260974 113.87773941030305 L 1035.020085979198 113.81762750035746 L 1034.8016910451379 113.75652528701059 L 1034.5846586632288 113.69443888043284 L 1034.3690105365274 113.63137448921314 L 1034.1547682296673 113.56733841973806 L 1033.9419531667004 113.5023370755612 L 1033.7305866289555 113.43637695676277 L 1033.5206897529106 113.36946465929971 L 1033.3122835280778 113.301606874346 L 1033.1053887949067 113.2328103876236 L 1032.9000262426975 113.16308207872383 L 1032.6962164075348 113.0924289204195 L 1032.493979670232 113.02085797796754 L 1032.2933362542944 112.94837640840255 L 1032.0943062238964 112.8749914598211 L 1031.896909481875 112.8007104706569 L 1031.7011657677401 112.72554086894695 L 1031.5070946556998 112.64949017158878 L 1031.314715552704 112.57256598358876 L 1031.1240476965022 112.49477599730159 L 1030.9351101537213 112.41612799166106 L 1030.7479218179583 112.3366298314022 L 1030.5625014078905 112.2562894662748 L 1030.3788674654045 112.1751149302484 L 1030.1970383537416 112.09311434070896 L 1030.0170322556614 112.01029589764713 L 1029.8388671716239 111.92666788283817 L 1029.6625609179887 111.84223865901389 L 1029.4881311252343 111.7570166690263 L 1029.3155952361947 111.67101043500338 L 1029.144970504315 111.58422855749687 L 1028.9762739919263 111.4966797146222 L 1028.8095225685393 111.40837266119071 L 1028.644732909157 111.31931622783415 L 1028.4819214926085 111.22951932012163 L 1028.3211045998994 111.13899091766909 L 1028.162298312585 111.04774007324134 L 1028.005518511162 110.9557759118468 L 1027.8507808734798 110.86310762982494 L 1027.698100873173 110.76974449392677 L 1027.5474937781144 110.67569584038806 L 1027.3989746488883 110.58097107399578 L 1027.2525583372835 110.48557966714766 L 1027.1082594848094 110.38953115890487 L 1026.9660925212308 110.2928351540382 L 1026.826071663126 110.19550132206757 L 1026.6882109124635 110.09753939629505 L 1026.552524055204 109.99895917283158 L 1026.4190246599198 109.89977050961737 L 1026.2877260764396 109.79998332543607 L 1026.158641434512 109.69960759892295 L 1026.0317836424936 109.59865336756702 L 1025.907165386058 109.4971307267073 L 1025.784799126927 109.39504982852324 L 1025.6646971016246 109.29242088101961 L 1025.546871320253 109.18925414700563 L 1025.4313335652926 109.08555994306874 L 1025.318095390422 108.98134863854291 L 1025.207168119365 108.87663065447177 L 1025.0985628447556 108.77141646256644 L 1024.9922904270313 108.66571658415843 L 1024.888361493345 108.55954158914753 L 1024.7867864365037 108.45290209494473 L 1024.687575413928 108.3458087654106 L 1024.590738346638 108.23827230978884 L 1024.4962849182596 108.1303034816354 L 1024.4042245740566 108.02191307774314 L 1024.314566519987 107.9131119370621 L 1024.2273197217814 107.80391093961568 L 1024.142492904047 107.69432100541265 L 1024.060094549395 107.58435309335508 L 1023.9801328975917 107.47401820014255 L 1023.9026159447362 107.36332735917243 L 1023.8275514424589 107.25229163943658 L 1023.7549468971475 107.14092214441445 L 1023.6848095691962 107.0292300109627 L 1023.617146472279 106.91722640820164 L 1023.5519643726496 106.80492253639821 L 1023.4892697884634 106.69232962584596 L 1023.4290689891267 106.57945893574217 L 1023.3713679946691 106.46632175306175 L 1023.3161725751421 106.35292939142872 L 1023.2634882500416 106.23929318998472 L 1023.2133202877563 106.12542451225522 L 1023.1656737050405 106.0113347450131 L 1023.1205532665128 105.89703529714001 L 1023.0779634841796 105.78253759848548 L 1023.0379086169834 105.66785309872397 L 1023.0003926703777 105.55299326620987 L 1022.9654193959258 105.43796958683073 L 1022.932992290926 105.32279356285864 L 1022.9031145980618 105.2074767118 L 1022.8757893050778 105.09203056524383 L 1022.8510191444802 104.97646666770858 L 1022.8288065932646 104.8607965754877 L 1022.8091538726676 104.74503185549402 L 1022.7920629479449 104.62918408410306 L 1022.7775355281747 104.51326484599544 L 1022.7655730660867 104.39728573299836 L 1022.7561767579174 104.28125834292646 L 1022.7493475432897 104.16519427842208 L 1022.7450861051193 104.04910514579494 L 1022.7433928695465 103.93300255386156" stroke-miterlimit="10" stroke-width="2.990598758" stroke-dasharray=""/></g><g><g/><text fill="black" stroke="none" font-family="sans-serif" font-size="11pt" font-style="normal" font-weight="normal" text-decoration="normal" x="1015.7251166266237" y="134.401026536" text-anchor="start" dominant-baseline="alphabetic" xml:space="preserve">Database</text></g></g><g><path fill="white" stroke="black" paint-order="fill stroke markers" d=" M 179.81603456207682 197.73135317599997 L 197.40779196207683 197.73135317599997 L 197.40779196207683 729.002426656 L 179.81603456207682 729.002426656 L 179.81603456207682 197.73135317599997" stroke-miterlimit="10" stroke-width="1.4659797833333332" stroke-dasharray=""/><path fill="white" stroke="black" paint-order="fill stroke markers" d=" M 505.88674146429037 391.240684576 L 523.4784988642904 391.240684576 L 523.4784988642904 729.002426656 L 505.88674146429037 729.002426656 L 505.88674146429037 391.240684576" stroke-miterlimit="10" stroke-width="1.4659797833333332" stroke-dasharray=""/><g><g><rect fill="white" stroke="none" x="63.64285906718099" y="174.86206855599997" width="95.3562625715625" height="22.86928462"/></g><text fill="black" stroke="none" font-family="sans-serif" font-size="11pt" font-style="normal" font-weight="normal" text-decoration="normal" x="66.28162267718099" y="190.69465021599999" text-anchor="start" dominant-baseline="alphabetic" xml:space="preserve">FormInteract</text></g><g><path fill="none" stroke="black" paint-order="fill stroke markers" d=" M 42.82594614384766 197.73135317599997 L 176.88407499541015 197.73135317599997" stroke-miterlimit="10" stroke-width="1.4659797833333332" stroke-dasharray=""/><g transform="translate(179.81603456207682,197.73135317599997) translate(-179.81603456207682,-197.73135317599997)"><path fill="black" stroke="none" paint-order="stroke fill markers" d=" M 165.1562367287435 190.4014542593333 L 179.81603456207682 197.73135317599997 L 165.1562367287435 205.06125209266665 Z"/></g></g><g><g><rect fill="white" stroke="none" x="218.22470488541015" y="224.11898927599998" width="203.47366369460937" height="22.86928462"/></g><text fill="black" stroke="none" font-family="sans-serif" font-size="11pt" font-style="normal" font-weight="normal" text-decoration="normal" x="220.86346849541016" y="239.951570936" text-anchor="start" dominant-baseline="alphabetic" xml:space="preserve">username := form.username</text></g><g><path fill="none" stroke="black" paint-order="fill stroke markers" d=" M 197.40779196207683 246.98827389599998 L 267.7748215620768 246.98827389599998 L 267.7748215620768 269.857558516 L 200.3397515287435 269.857558516" stroke-miterlimit="10" stroke-width="1.4659797833333332" stroke-dasharray=""/><g transform="translate(197.40779196207683,269.857558516) translate(-197.40779196207683,-269.857558516)"><path fill="black" stroke="none" paint-order="stroke fill markers" d=" M 212.06758979541016 262.52765959933333 L 197.40779196207683 269.857558516 L 212.06758979541016 277.18745743266663 Z"/></g></g><g><g><rect fill="white" stroke="none" x="218.22470488541015" y="296.245194616" width="199.43643224929687" height="22.86928462"/></g><text fill="black" stroke="none" font-family="sans-serif" font-size="11pt" font-style="normal" font-weight="normal" text-decoration="normal" x="220.86346849541016" y="312.077776276" text-anchor="start" dominant-baseline="alphabetic" xml:space="preserve">password := form.password</text></g><g><path fill="none" stroke="black" paint-order="fill stroke markers" d=" M 197.40779196207683 319.114479236 L 267.7748215620768 319.114479236 L 267.7748215620768 341.983763856 L 200.3397515287435 341.983763856" stroke-miterlimit="10" stroke-width="1.4659797833333332" stroke-dasharray=""/><g transform="translate(197.40779196207683,341.983763856) translate(-197.40779196207683,-341.983763856)"><path fill="black" stroke="none" paint-order="stroke fill markers" d=" M 212.06758979541016 334.65386493933335 L 197.40779196207683 341.983763856 L 212.06758979541016 349.31366277266665 Z"/></g></g><g><g><rect fill="white" stroke="none" x="218.22470488541018" y="368.371399956" width="266.8451236555469" height="22.86928462"/></g><text fill="black" stroke="none" font-family="sans-serif" font-size="11pt" font-style="normal" font-weight="normal" text-decoration="normal" x="220.8634684954102" y="384.203981616" text-anchor="start" dominant-baseline="alphabetic" xml:space="preserve">(username : String, password : String)</text></g><g><path fill="none" stroke="black" paint-order="fill stroke markers" d=" M 197.40779196207683 391.240684576 L 502.9547818976237 391.240684576" stroke-miterlimit="10" stroke-width="1.4659797833333332" stroke-dasharray=""/><g transform="translate(505.88674146429037,391.240684576) translate(-505.88674146429037,-391.240684576)"><path fill="black" stroke="none" paint-order="stroke fill markers" d=" M 491.226943630957 383.9107856593333 L 505.88674146429037 391.240684576 L 491.226943630957 398.57058349266663 Z"/></g></g><g><g><rect fill="white" stroke="none" x="600.7254674458087" y="465.126065656" width="109.06422460769531" height="22.86928462"/></g><text fill="black" stroke="none" font-family="sans-serif" font-size="11pt" font-style="normal" font-weight="normal" text-decoration="normal" x="603.3642310558087" y="480.958647316" text-anchor="start" dominant-baseline="alphabetic" xml:space="preserve">getUsername()</text></g><g><path fill="none" stroke="black" paint-order="fill stroke markers" d=" M 523.4784988642904 487.99535027599995 L 784.1047010683554 487.99535027599995" stroke-miterlimit="10" stroke-width="1.4659797833333332" stroke-dasharray=""/><g transform="translate(787.0366606350221,487.99535027599995) translate(-787.0366606350221,-487.99535027599995)"><path fill="black" stroke="none" paint-order="stroke fill markers" d=" M 772.3768628016888 480.6654513593333 L 787.0366606350221 487.99535027599995 L 772.3768628016888 495.3252491926666 Z"/></g></g><g><g><rect fill="white" stroke="none" x="674.7378836213946" y="514.382986376" width="104.74067724441406" height="22.86928462"/></g><text fill="black" stroke="none" font-family="sans-serif" font-size="11pt" font-style="normal" font-weight="normal" text-decoration="normal" x="677.3766472313946" y="530.2155680359999" text-anchor="start" dominant-baseline="alphabetic" xml:space="preserve">getPassword()</text></g><g><path fill="none" stroke="black" paint-order="fill stroke markers" d=" M 523.4784988642904 537.252270996 L 927.8059860562461 537.252270996" stroke-miterlimit="10" stroke-width="1.4659797833333332" stroke-dasharray=""/><g transform="translate(930.7379456229128,537.252270996) translate(-930.7379456229128,-537.252270996)"><path fill="black" stroke="none" paint-order="stroke fill markers" d=" M 916.0781477895795 529.9223720793333 L 930.7379456229128 537.252270996 L 916.0781477895795 544.5821699126667 Z"/></g></g><g><g><rect fill="white" stroke="none" x="544.2954117876237" y="590.027543196" width="109.62257421707031" height="22.86928462"/></g><text fill="black" stroke="none" font-family="sans-serif" font-size="11pt" font-style="normal" font-weight="normal" text-decoration="normal" x="546.9341753976237" y="605.860124856" text-anchor="start" dominant-baseline="alphabetic" xml:space="preserve">noUserFound()</text></g><g><path fill="none" stroke="black" paint-order="fill stroke markers" d=" M 523.4784988642904 612.8968278159999 L 593.8455284642904 612.8968278159999 L 593.8455284642904 635.766112436 L 526.4104584309571 635.766112436" stroke-miterlimit="10" stroke-width="1.4659797833333332" stroke-dasharray=""/><g transform="translate(523.4784988642904,635.766112436) translate(-523.4784988642904,-635.766112436)"><path fill="black" stroke="none" paint-order="stroke fill markers" d=" M 538.1382966976237 628.4362135193333 L 523.4784988642904 635.766112436 L 538.1382966976237 643.0960113526667 Z"/></g></g><g><g><rect fill="white" stroke="none" x="319.2840920924414" y="662.153748536" width="64.72634924148437" height="22.86928462"/></g><text fill="black" stroke="none" font-family="sans-serif" font-size="11pt" font-style="normal" font-weight="normal" text-decoration="normal" x="321.92285570244144" y="677.9863301959999" text-anchor="start" dominant-baseline="alphabetic" xml:space="preserve">update()</text></g><g><path fill="none" stroke="black" paint-order="fill stroke markers" d=" M 505.88674146429037 685.023033156 L 200.3397515287435 685.023033156" stroke-miterlimit="10" stroke-width="1.4659797833333332" stroke-dasharray=""/><g transform="translate(197.40779196207683,685.023033156) translate(-197.40779196207683,-685.023033156)"><path fill="black" stroke="none" paint-order="stroke fill markers" d=" M 212.06758979541016 677.6931342393333 L 197.40779196207683 685.023033156 L 212.06758979541016 692.3529320726667 Z"/></g></g><g><g/><path fill="none" stroke="black" paint-order="fill stroke markers" d=" M 453.11146926429035 417.628320676 L 992.3090965229128 417.628320676 L 992.3090965229128 563.639907096 L 453.11146926429035 563.639907096 L 453.11146926429035 417.628320676 Z" stroke-miterlimit="10" stroke-width="2.5131082" stroke-dasharray=""/><path fill="white" stroke="black" paint-order="fill stroke markers" d=" M 453.11146926429035 417.628320676 L 453.11146926429035 438.73842955599997 L 514.9967510320638 438.73842955599997 L 525.5518054720638 428.183375116 L 525.5518054720638 417.628320676 L 453.11146926429035 417.628320676" stroke-miterlimit="10" stroke-width="2.5131082" stroke-dasharray=""/><text fill="black" stroke="none" font-family="sans-serif" font-size="8.8pt" font-style="normal" font-weight="bold" text-decoration="normal" x="470.70322666429036" y="431.70172659599996" text-anchor="start" dominant-baseline="alphabetic" xml:space="preserve">loop</text><text fill="black" stroke="none" font-family="sans-serif" font-size="8.8pt" font-style="normal" font-weight="bold" text-decoration="normal" x="543.1435628720639" y="431.70172659599996" text-anchor="start" dominant-baseline="alphabetic" xml:space="preserve">[for each current Account]</text></g></g><g/><g/><g/><g/><g/><g/><g/></g></svg>