<svg version="1.1" xmlns="http://www.w3.org/2000/svg" xmlns:xlink="http://www.w3.org/1999/xlink" width="1108" height="746"><defs/><g><g/><g/><g/><g/><g/><g/><g/><g/><g><rect fill="white" stroke="none" x="0" y="0" width="1108" height="746"/></g><g><text fill="black" stroke="none" font-family="sans-serif" font-size="16.5pt" font-style="normal" font-weight="normal" text-decoration="normal" x="501.4673521092103" y="26.3876361" text-anchor="start" dominant-baseline="alphabetic" xml:space="preserve">Login BCE</text></g><g/><g><path fill="none" stroke="black" paint-order="fill stroke markers" d=" M 42.82594614384766 139.67855375599999 L 42.82594614384766 746.594184056" stroke-miterlimit="10" stroke-width="1.4659797833333332" stroke-dasharray="13.532121076923076,5.863919133333333"/><path fill="none" stroke="black" paint-order="fill stroke markers" d=" M 188.61191326207683 139.67855375599999 L 188.61191326207683 746.594184056" stroke-miterlimit="10" stroke-width="1.4659797833333332" stroke-dasharray="13.532121076923076,5.863919133333333"/><path fill="none" stroke="black" paint-order="fill stroke markers" d=" M 514.6826201642904 139.67855375599999 L 514.6826201642904 746.594184056" stroke-miterlimit="10" stroke-width="1.4659797833333332" stroke-dasharray="13.532121076923076,5.863919133333333"/><path fill="none" stroke="black" paint-order="fill stroke markers" d=" M 676.4888279013346 139.67855375599999 L 676.4888279013346 746.594184056" stroke-miterlimit="10" stroke-width="1.4659797833333332" stroke-dasharray="13.532121076923076,5.863919133333333"/><path fill="none" stroke="black" paint-order="fill stroke markers" d=" M 803.4503874416628 139.67855375599999 L 803.4503874416628 746.594184056" stroke-miterlimit="10" stroke-width="1.4659797833333332" stroke-dasharray="13.532121076923076,5.863919133333333"/><path fill="none" stroke="black" paint-order="fill stroke markers" d=" M 947.1516724295534 139.67855375599999 L 947.1516724295534 746.594184056" stroke-miterlimit="10" stroke-width="1.4659797833333332" stroke-dasharray="13.532121076923076,5.863919133333333"/><path fill="none" stroke="black" paint-order="fill stroke markers" d=" M 1064.8410529059206 139.67855375599999 L 1064.8410529059206 746.594184056" stroke-miterlimit="10" stroke-width="1.4659797833333332" stroke-dasharray="13.532121076923076,5.863919133333333"/></g><g><g><path fill="white" stroke="black" paint-order="fill stroke markers" d=" M 52.853247861847656 65.265419954 A 10.027301717999999 10.027301717999999 0 1 1 52.85324284819722 65.25539265395321 M 42.82594614384766 75.29272167199998 L 42.82594614384766 96.75466569999998 M 30.15988081584766 83.033094928 L 55.49201147184766 83.033094928 M 42.82594614384766 96.75466569999998 L 30.15988081584766 116.80926913599998 M 42.82594614384766 96.75466569999998 L 55.49201147184766 116.80926913599998" stroke-miterlimit="10" stroke-width="2.990598758" stroke-dasharray=""/></g><g><g/><text fill="black" stroke="none" font-family="sans-serif" font-size="11pt" font-style="normal" font-weight="normal" text-decoration="normal" x="8.795878700000003" y="134.401026536" text-anchor="start" dominant-baseline="alphabetic" xml:space="preserve">Customer</text></g><g><path fill="white" stroke="black" paint-order="fill stroke markers" d=" M 223.53155170107684 89.19021001799997 A 26.123759739 26.123759739 0 1 1 223.53153863919806 89.16408626261492 M 155.1875742020768 61.57115089999997 L 155.1875742020768 116.80926913599997 M 153.69227482307681 89.19021001799997 L 171.28403222307682 89.19021001799997" stroke-miterlimit="10" stroke-width="2.990598758" stroke-dasharray=""/></g><g><g/><text fill="black" stroke="none" font-family="sans-serif" font-size="11pt" font-style="normal" font-weight="normal" text-decoration="normal" x="146.95478588170573" y="134.401026536" text-anchor="start" dominant-baseline="alphabetic" xml:space="preserve">CustomerUI</text></g><g><path fill="white" stroke="black" paint-order="fill stroke markers" d=" M 540.8063799032903 89.19021001799997 A 26.123759739 26.123759739 0 1 1 540.8063668414115 89.16408626261492 M 511.1642686842904 63.06645027899997 L 521.7193231242904 54.27057157899998 M 511.1642686842904 63.06645027899997 L 521.7193231242904 71.86232897899997" stroke-miterlimit="10" stroke-width="2.990598758" stroke-dasharray=""/></g><g><g/><text fill="black" stroke="none" font-family="sans-serif" font-size="11pt" font-style="normal" font-weight="normal" text-decoration="normal" x="460.3340178693685" y="134.401026536" text-anchor="start" dominant-baseline="alphabetic" xml:space="preserve">HospitalSystem</text></g><path fill="none" stroke="none"/><g><path fill="white" stroke="black" paint-order="fill stroke markers" d=" M 628.3144450725299 92.18080877599999 L 724.6632107301393 92.18080877599999 L 724.6632107301393 139.67855375599999 L 628.3144450725299 139.67855375599999 L 628.3144450725299 92.18080877599999 Z" stroke-miterlimit="10" stroke-width="2.814681184" stroke-dasharray=""/></g><g><g/><text fill="black" stroke="none" font-family="sans-serif" font-size="11pt" font-style="normal" font-weight="normal" text-decoration="normal" x="647.4015018515299" y="122.08679635600001" text-anchor="start" dominant-baseline="alphabetic" xml:space="preserve">Hospital</text></g><g><path fill="white" stroke="black" paint-order="fill stroke markers" d=" M 829.5741471806627 86.79773101159998 A 26.123759739 26.123759739 0 1 1 829.574134118784 86.77160725621492 M 775.8313283236628 115.31396975699997 L 828.0788478016627 115.31396975699997" stroke-miterlimit="10" stroke-width="2.990598758" stroke-dasharray=""/></g><g><g/><text fill="black" stroke="none" font-family="sans-serif" font-size="11pt" font-style="normal" font-weight="normal" text-decoration="normal" x="742.2549681301393" y="134.401026536" text-anchor="start" dominant-baseline="alphabetic" xml:space="preserve">Account (current)</text></g><g><path fill="white" stroke="black" paint-order="fill stroke markers" d=" M 973.2754321685534 86.79773101159998 A 26.123759739 26.123759739 0 1 1 973.2754191066746 86.77160725621492 M 919.5326133115534 115.31396975699997 L 971.7801327895534 115.31396975699997" stroke-miterlimit="10" stroke-width="2.990598758" stroke-dasharray=""/></g><g><g/><text fill="black" stroke="none" font-family="sans-serif" font-size="11pt" font-style="normal" font-weight="normal" text-decoration="normal" x="882.2375641531862" y="134.401026536" text-anchor="start" dominant-baseline="alphabetic" xml:space="preserve">Account (selected)</text></g><g><path fill="white" stroke="black" paint-order="fill stroke markers" d=" M 1039.1570871019205 105.19870925199999 L 1039.1570871019205 68.25601871199999 L 1090.5250187099207 68.25601871199999 L 1090.5250187099207 105.19870925199999" stroke-miterlimit="10" stroke-width="2.990598758" stroke-dasharray=""/><path fill="white" stroke="black" paint-order="fill stroke markers" d=" M 1090.5250187099207 66.97182042179999 L 1090.523734522332 67.08792408555635 L 1090.519882087984 67.20401613904309 L 1090.5134617921167 67.3200849731516 L 1090.5044742767543 67.43611898109519 L 1090.492920440641 67.55210655956978 L 1090.4788014391506 67.66803610991414 L 1090.4621186841719 67.78389603926989 L 1090.442873843966 67.8996747617406 L 1090.421068843001 68.01536069955054 L 1090.396705861759 68.1309422842023 L 1090.3697873365177 68.24640795763378 L 1090.340315959107 68.3617461733738 L 1090.3082946766408 68.47694539769695 L 1090.2737266912197 68.59199411077678 L 1090.236615459614 68.70688080783783 L 1090.196964692916 68.82159400030618 L 1090.1547783561691 68.93612221695814 L 1090.1100606679718 69.0504540050675 L 1090.0628161000557 69.16457793155072 L 1090.0130493768384 69.27848258411025 L 1089.9607654749504 69.39215657237577 L 1089.9059696227387 69.50558852904317 L 1089.8486672997426 69.61876711101131 L 1089.7888642361468 69.73168100051632 L 1089.7265664122076 69.84431890626333 L 1089.6617800576557 69.95666956455563 L 1089.5945116510725 70.06872174042103 L 1089.5247679192428 70.18046422873529 L 1089.4525558364812 70.29188585534273 L 1089.377882623936 70.40297547817353 L 1089.3007557488665 70.51372198835797 L 1089.2211829238956 70.62411431133734 L 1089.1391721062398 70.73414140797132 L 1089.0547314969122 70.84379227564195 L 1088.9678695399034 70.95305594935381 L 1088.8785949213368 71.06192150283061 L 1088.7869165686002 71.1703780496077 L 1088.6928436494518 71.27841474412082 L 1088.5963855711057 71.38602078279051 L 1088.497551979289 71.4931854051026 L 1088.3963527572787 71.59989789468413 L 1088.2927980249126 71.7061475803751 L 1088.1868981375776 71.81192383729548 L 1088.0786636851742 71.9172160879077 L 1087.9681054910577 72.02201380307447 L 1087.855234610955 72.12630650311159 L 1087.7400623318601 72.23008375883597 L 1087.6226001709053 72.33333519260853 L 1087.5028598742085 72.43605047937191 L 1087.3808534156997 72.53821934768304 L 1087.2565929959228 72.63983158074024 L 1087.1300910408168 72.74087701740487 L 1087.001360200471 72.84134555321748 L 1086.870413347863 72.94122714140819 L 1086.7372635775685 73.04051179390143 L 1086.6019242044533 73.13918958231469 L 1086.4644087623426 73.23725063895135 L 1086.3247310026654 73.33468515778748 L 1086.1829048930817 73.43148339545236 L 1086.038944616084 73.52763567220293 L 1085.8928645675803 73.6231323728916 L 1085.7446793554534 73.71796394792793 L 1085.5944037981012 73.8121209142334 L 1085.4420529229542 73.90559385618985 L 1085.2876419649729 73.998373426581 L 1085.1311863651247 74.09045034752711 L 1084.9727017688385 74.18181541141281 L 1084.8122040244427 74.27245948180787 L 1084.6497091815775 74.36237349438078 L 1084.485233489592 74.45154845780519 L 1084.3187933959182 74.53997545465909 L 1084.1504055444266 74.62764564231648 L 1083.9800867737624 74.71455025383165 L 1083.8078541156606 74.80068059881587 L 1083.6337247932433 74.88602806430642 L 1083.4577162192977 74.97058411562787 L 1083.2798459945348 75.05434029724555 L 1083.1001319058287 75.13728823361109 L 1082.9185919244383 75.21941962999999 L 1082.7352442042106 75.30072627334106 L 1082.5501070797648 75.38120003303769 L 1082.3631990646593 75.46083286178099 L 1082.1745388495394 75.53961679635444 L 1081.98414530027 75.61754395843025 L 1081.7920374560467 75.69460655535714 L 1081.5982345274945 75.77079688093964 L 1081.4027558947441 75.84610731620869 L 1081.2056211054964 75.9205303301835 L 1081.0068498730657 75.99405848062472 L 1080.8064620744099 76.06668441477855 L 1080.6044777481416 76.13840087011211 L 1080.400917092525 76.20920067503964 L 1080.1958004634566 76.27907674963963 L 1079.989148372428 76.34802210636286 L 1079.7809814844761 76.4160298507311 L 1079.571320616116 76.48309318202661 L 1079.3601867332604 76.54920539397213 L 1079.1476009491212 76.61435987540155 L 1078.9335845220996 76.67855011092104 L 1078.7181588536603 76.74176968156053 L 1078.5013454861903 76.80401226541565 L 1078.2831661008458 76.86527163827986 L 1078.0636425153837 76.92554167426694 L 1077.8427966819793 76.98481634642351 L 1077.6206506850322 77.04308972733178 L 1077.3972267389568 77.10035598970217 L 1077.1725471859613 77.15660940695618 L 1076.9466344938141 77.21184435379898 L 1076.7195112535962 77.26605530678191 L 1076.4912001774421 77.31923684485484 L 1076.2617240962693 77.37138364990828 L 1076.0311059574947 77.42249050730518 L 1075.79936882274 77.4725523064024 L 1075.5665358655253 77.52156404106174 L 1075.3326303689528 77.56952081015058 L 1075.0976757233768 77.61641781803196 L 1074.8616954240663 77.6622503750442 L 1074.6247130688544 77.70701389796976 L 1074.3867523557792 77.75070391049368 L 1074.1478370807138 77.7933160436511 L 1073.9079911349863 77.83484603626422 L 1073.667238502992 77.87528973536838 L 1073.425603259793 77.91464309662739 L 1073.1831095687123 77.9529021847379 L 1072.9397816789171 77.99006317382297 L 1072.6956439229937 78.02612234781469 L 1072.4507207145136 78.0610761008257 L 1072.2050365455943 78.09492093750981 L 1071.9586159844478 78.12765347341158 L 1071.7114836729245 78.15927043530469 L 1071.46366432405 78.18976866151928 L 1071.2151827195523 78.21914510225817 L 1070.9660637073853 78.24739681990175 L 1070.716332199242 78.27452098930179 L 1070.4660131680655 78.30051489806398 L 1070.2151316455504 78.32537594681908 L 1069.9637127196395 78.34910164948295 L 1069.7117815320164 78.37168963350508 L 1069.4593632755893 78.39313764010592 L 1069.206483191974 78.41344352450264 L 1068.9531665689678 78.43260525612375 L 1068.699438738022 78.45062091881205 L 1068.4453250717086 78.46748871101629 L 1068.190850981182 78.48320694597129 L 1067.9360419136394 78.49777405186667 L 1067.680923349775 78.51118857200397 L 1067.425520801233 78.52344916494236 L 1067.169859808055 78.53455460463276 L 1066.9139659361276 78.54450378054045 L 1066.6578647746246 78.55329569775614 L 1066.4015819334486 78.56092947709544 L 1066.1451430406703 78.56740435518677 L 1065.8885737399653 78.57271968454769 L 1065.63189968805 78.57687493364975 L 1065.3751465521152 78.57986968697145 L 1065.1183400072612 78.58170364504 L 1064.861505733928 78.58237662446106 L 1064.6046694153288 78.58188855793732 L 1064.347856734882 78.58023949427498 L 1064.0910933736411 78.57742959837903 L 1063.8344050077285 78.57345915123673 L 1063.577817305767 78.56832854988951 L 1063.3213559263127 78.56203830739318 L 1063.06504651529 78.5545890527668 L 1062.8089147034264 78.54598153092958 L 1062.5529861036896 78.53621660262655 L 1062.2972863087261 78.5252952443424 L 1062.0418408883027 78.51321854820387 L 1061.7866753867484 78.4999877218705 L 1061.5318153204007 78.48560408841388 L 1061.2772861750539 78.4700690861854 L 1061.0231134034102 78.45338426867232 L 1060.7693224225352 78.4355513043425 L 1060.5159386113155 78.41657197647748 L 1060.262987307921 78.39644818299428 L 1060.0104938072714 78.37518193625543 L 1059.758483358506 78.35277536286792 L 1059.50698116246 78.32923070347039 L 1059.2560123691435 78.30455031250918 L 1059.005602075226 78.2787366580028 L 1058.7557753215292 78.2517923212952 L 1058.5065570905194 78.2237199967976 L 1058.2579723038127 78.19452249171906 L 1058.0100458196803 78.16420272578573 L 1057.7628024305639 78.13276373094897 L 1057.5162668605965 78.10020865108203 L 1057.2704637631298 78.0665407416658 L 1057.0254177182685 78.03176336946316 L 1056.7811532304129 77.99588001218234 L 1056.5376947258085 77.95889425812916 L 1056.2950665501023 77.92080980584822 L 1056.0532929659103 77.881630463753 L 1055.8123981503893 77.84136014974506 L 1055.5724061928197 77.80000289082224 L 1055.3333410921978 77.75756282267598 L 1055.0952267548341 77.71404418927773 L 1054.858086991964 77.66945134245454 L 1054.6219455173664 77.62378874145395 L 1054.3868259449916 77.57706095249802 L 1054.152751786601 77.52927264832667 L 1053.9197464494155 77.48042860773052 L 1053.6878332337747 77.43053371507293 L 1053.4570353308065 77.37959295980157 L 1053.2273758201095 77.32761143594954 L 1052.998877667443 77.27459434162587 L 1052.7715637224317 77.22054697849586 L 1052.545456716281 77.16547475125074 L 1052.320579259503 77.10938316706736 L 1052.0969538396557 77.0522778350574 L 1051.8746028190953 76.99416446570646 L 1051.653548432738 76.93504887030305 L 1051.4338127858387 76.87493696035746 L 1051.2154178517785 76.81383474701059 L 1050.9983854698694 76.75174834043284 L 1050.782737343168 76.68868394921314 L 1050.568495036308 76.62464787973806 L 1050.355679973341 76.5596465355612 L 1050.1443134355961 76.49368641676277 L 1049.9344165595512 76.42677411929971 L 1049.7260103347185 76.358916334346 L 1049.5191156015474 76.2901198476236 L 1049.3137530493382 76.22039153872383 L 1049.1099432141755 76.14973838041949 L 1048.9077064768726 76.07816743796754 L 1048.707063060935 76.00568586840255 L 1048.508033030537 75.9323009198211 L 1048.3106362885155 75.8580199306569 L 1048.1148925743807 75.78285032894695 L 1047.9208214623404 75.70679963158878 L 1047.7284423593446 75.62987544358876 L 1047.5377745031428 75.55208545730159 L 1047.348836960362 75.47343745166106 L 1047.161648624599 75.3939392914022 L 1046.9762282145311 75.31359892627479 L 1046.792594272045 75.2324243902484 L 1046.6107651603822 75.15042380070896 L 1046.430759062302 75.06760535764712 L 1046.2525939782645 74.98397734283817 L 1046.0762877246293 74.89954811901389 L 1045.901857931875 74.8143261290263 L 1045.7293220428353 74.72831989500338 L 1045.5586973109557 74.64153801749687 L 1045.390000798567 74.5539891746222 L 1045.2232493751799 74.46568212119071 L 1045.0584597157977 74.37662568783415 L 1044.8956482992492 74.28682878012162 L 1044.73483140654 74.19630037766909 L 1044.5760251192257 74.10504953324134 L 1044.4192453178027 74.0130853718468 L 1044.2645076801205 73.92041708982494 L 1044.1118276798136 73.82705395392676 L 1043.961220584755 73.73300530038806 L 1043.812701455529 73.63828053399578 L 1043.6662851439241 73.54288912714766 L 1043.52198629145 73.44684061890487 L 1043.3798193278715 73.3501446140382 L 1043.2397984697666 73.25281078206757 L 1043.1019377191042 73.15484885629505 L 1042.9662508618446 73.05626863283157 L 1042.8327514665605 72.95707996961737 L 1042.7014528830803 72.85729278543607 L 1042.5723682411526 72.75691705892295 L 1042.4455104491342 72.65596282756702 L 1042.3208921926987 72.5544401867073 L 1042.1985259335677 72.45235928852324 L 1042.0784239082652 72.34973034101961 L 1041.9605981268937 72.24656360700563 L 1041.8450603719332 72.14286940306874 L 1041.7318221970627 72.03865809854291 L 1041.6208949260056 71.93394011447177 L 1041.5122896513963 71.82872592256643 L 1041.406017233672 71.72302604415843 L 1041.3020882999856 71.61685104914753 L 1041.2005132431443 71.51021155494473 L 1041.1013022205686 71.4031182254106 L 1041.0044651532787 71.29558176978884 L 1040.9100117249002 71.1876129416354 L 1040.8179513806972 71.07922253774314 L 1040.7282933266276 70.9704213970621 L 1040.641046528422 70.86122039961568 L 1040.5562197106876 70.75163046541265 L 1040.4738213560356 70.64166255335508 L 1040.3938597042325 70.53132766014255 L 1040.3163427513769 70.42063681917243 L 1040.2412782490997 70.30960109943658 L 1040.1686737037883 70.19823160441445 L 1040.0985363758368 70.0865394709627 L 1040.0308732789197 69.97453586820164 L 1039.9656911792902 69.86223199639821 L 1039.902996595104 69.74963908584596 L 1039.8427957957672 69.63676839574217 L 1039.7850948013097 69.52363121306175 L 1039.7298993817828 69.41023885142872 L 1039.6772150566824 69.29660264998472 L 1039.6270470943969 69.18273397225522 L 1039.5794005116811 69.0686442050131 L 1039.5342800731535 68.95434475714 L 1039.49169029082 68.83984705848547 L 1039.4516354236239 68.72516255872397 L 1039.4141194770182 68.61030272620987 L 1039.3791462025663 68.49527904683073 L 1039.3467190975666 68.38010302285863 L 1039.3168414047025 68.2647861718 L 1039.2895161117185 68.14934002524383 L 1039.2647459511209 68.03377612770858 L 1039.2425333999054 67.9181060354877 L 1039.2228806793082 67.80234131549402 L 1039.2057897545856 67.68649354410306 L 1039.1912623348153 67.57057430599544 L 1039.1792998727274 67.45459519299835 L 1039.169903564558 67.33856780292646 L 1039.1630743499302 67.22250373842208 L 1039.15881291176 67.10641460579494 L 1039.1571196761872 66.99031201386155 L 1039.157994812534 66.87420757278437 L 1039.161438233288 66.75811289291076 L 1039.1674495941095 66.64203958361193 L 1039.1760282938676 66.52599925212212 L 1039.1871734746994 66.41000350237775 L 1039.2008840220963 66.29406393385715 L 1039.2171585650146 66.17819214042055 L 1039.235995476014 66.06239970915072 L 1039.2573928714191 65.94669821919432 L 1039.2813486115078 65.8310992406039 L 1039.3078603007261 65.71561433318102 L 1039.3369252879277 65.60025504532017 L 1039.3685406666375 65.48503291285398 L 1039.402703275344 65.36995945789971 L 1039.4394096978153 65.25504618770695 L 1039.4786562634395 65.14030459350695 L 1039.5204390475924 65.02574614936354 L 1039.564753872031 64.91138231102563 L 1039.6115963053094 64.79722451478179 L 1039.6609616632231 64.68328417631649 L 1039.712845009278 64.56957268956862 L 1039.7672411551825 64.45610142559212 L 1039.8241446613672 64.3428817314188 L 1039.883549837529 64.22992492892377 L 1039.9454507431997 64.1172423136931 L 1040.0098411883405 64.00484515389444 L 1040.0767147339604 63.89274468915009 L 1040.1460646927608 63.78095212941312 L 1040.2178841298032 63.66947865384635 L 1040.2921658632042 63.558335409704426 L 1040.368902464852 63.447533511219156 L 1040.4480862611504 63.337084038488044 L 1040.529709333786 63.226998036366325 L 1040.6137635205193 63.11728651336247 L 1040.700240416002 63.00796044053737 L 1040.7891313726163 62.899030750407185 L 1040.8804275013408 62.790508335850156 L 1040.9741196726386 62.682404049017315 L 1041.0701985173707 62.57472870024724 L 1041.1686544277327 62.4674930569851 L 1041.2694775582156 62.36070784270584 L 1041.3726578265903 62.25438373584191 L 1041.478184914916 62.148531368715396 L 1041.5860482705718 62.04316132647479 L 1041.696237107312 61.938284146036516 L 1041.808740406345 61.83391031503122 L 1041.9235469174341 61.73005027075502 L 1042.0406451600243 61.6267143991258 L 1042.1600234243888 61.52391303364461 L 1042.2816697728008 61.42165645436233 L 1042.4055720407266 61.31995488685167 L 1042.5317178380426 61.21881850118463 L 1042.6600945502746 61.1182574109155 L 1042.7906893398579 61.018281672069506 L 1042.9234891474227 60.91890128213721 L 1043.0584806930988 60.82012617907481 L 1043.1956504778439 60.72196624031029 L 1043.3349847847942 60.62443128175571 L 1043.4764696806349 60.52753105682567 L 1043.6200910169944 60.431275255461905 L 1043.7658344318586 60.33567350316434 L 1043.9136853510076 60.24073536002853 L 1044.0636289894728 60.14647031978968 L 1044.215650353015 60.05288780887326 L 1044.369734239625 59.959997185452366 L 1044.525865241042 59.86780773851195 L 1044.6840277442964 59.77632868691987 L 1044.8442059332692 59.68556917850505 L 1045.0063837902755 59.59553828914271 L 1045.1705450976647 59.50624502184675 L 1045.3366734394424 59.41769830586949 L 1045.5047522029133 59.32990699580875 L 1045.674764580341 59.24287987072236 L 1045.8466935706292 59.15662563325033 L 1046.0205219810225 59.0711529087445 L 1046.1962324288245 58.986470244406114 L 1046.373807343137 58.90258610843103 L 1046.5532289666164 58.81950888916295 L 1046.73447935725 58.737246894254554 L 1046.9175403901497 58.65580834983679 L 1047.1023937593648 58.57520139969624 L 1047.2890209797122 58.49543410446074 L 1047.4774033886256 58.41651444079334 L 1047.6675221480211 58.33845030059465 L 1047.8593582461813 58.26124949021362 L 1048.052892499656 58.18491972966697 L 1048.2481055551814 58.10946865186714 L 1048.4449778916141 58.03490380185903 L 1048.6434898218852 57.96123263606552 L 1048.8436214949668 57.88846252154177 L 1049.0453528978583 57.816600735238616 L 1049.2486638575874 57.74565446327479 L 1049.4535340432278 57.67563080021837 L 1049.6599429679316 57.60653674837731 L 1049.8678699909783 57.53837921709922 L 1050.077294319839 57.47116502208042 L 1050.288195012255 57.40490088468441 L 1050.5005509783332 57.3395934312697 L 1050.7143409826538 57.27524919252721 L 1050.9295436463942 57.21187460282721 L 1051.146137449468 57.14947599957584 L 1051.3641007326748 57.088059622581426 L 1051.5834116998685 57.02763161343051 L 1051.8040484201347 56.96819801487362 L 1052.0259888299852 56.9097647702211 L 1052.249210735564 56.85233772274873 L 1052.473691814867 56.79592261511338 L 1052.6994096199728 56.74052508877882 L 1052.9263415792893 56.6861506834515 L 1053.1544649998095 56.63280483652666 L 1053.3837570693815 56.58049288254453 L 1053.6141948589895 56.52922005265691 L 1053.8457553250464 56.47899147410408 L 1054.0784153116988 56.42981216970201 L 1054.3121515531418 56.38168705734017 L 1054.546940675946 56.334620949489704 L 1054.7827592013946 56.28861855272216 L 1055.019583547832 56.24368446723889 L 1055.2573900330206 56.199823186410995 L 1055.4961548765102 56.157039096329996 L 1055.7358542020152 56.11533647536926 L 1055.976464039803 56.07471949375613 L 1056.2179603290904 56.035192213154914 L 1056.4603189204495 55.99675858626073 L 1056.7035155782232 55.959422456404255 L 1056.9475259829485 55.923187557167346 L 1057.192325733788 55.88805751200974 L 1057.437890350971 55.85403583390668 L 1057.6841952782402 55.82112592499761 L 1057.9312158853081 55.78933107624601 L 1058.1789274703199 55.758654467110254 L 1058.4273052623234 55.72909916522569 L 1058.6763244237466 55.70066812609789 L 1058.9259600528808 55.67336419280706 L 1059.176187186371 55.64719009572377 L 1059.4269808017123 55.62214845223594 L 1059.6783158197525 55.598241766487035 L 1059.930167107199 55.57547242912571 L 1060.182509479133 55.55384271706673 L 1060.4353177015275 55.533354793263264 L 1060.688566493771 55.51401070649064 L 1060.9422305311955 55.4958123911414 L 1061.1962844476084 55.47876166703191 L 1061.4507028378298 55.46286023922039 L 1061.7054602602327 55.44810969783636 L 1061.960531239287 55.434511517921656 L 1062.2158902681078 55.42206705928295 L 1062.4715118110048 55.41077756635575 L 1062.7273703060364 55.40064416807991 L 1062.9834401675669 55.39166787778682 L 1063.239695788823 55.38384959309805 L 1063.4961115444564 55.37719009583553 L 1063.7526617931053 55.37169005194345 L 1064.0093208799583 55.36735001142162 L 1064.266063139321 55.36417040827046 L 1064.522862897181 55.36215156044765 L 1064.7796944737768 55.36129366983628 L 1065.0365321861648 55.3615968222247 L 1065.2933503507875 55.363060987297914 L 1065.5501232860427 55.36568601864066 L 1065.8068253148508 55.369471653751965 L 1066.0634307672226 55.37441751407148 L 1066.319913982827 55.3805231050173 L 1066.5762493135564 55.38778781603543 L 1066.8324111260908 55.39621092066079 L 1067.0883738044627 55.40579157658996 L 1067.3441117526174 55.41652882576533 L 1067.5995993969734 55.428421594470926 L 1067.854811188979 55.44146869343979 L 1068.1097216076678 55.45566881797289 L 1068.3643051622103 55.47102054806961 L 1068.6185363944633 55.48752234856974 L 1068.8723898815151 55.50517256930697 L 1069.1258402382289 55.52396944527395 L 1069.3788621197803 55.54391109679874 L 1069.6314302241915 55.56499552973279 L 1069.883519294863 55.587220635650404 L 1070.1351041230976 55.61058419205949 L 1070.3861595506223 55.63508386262389 L 1070.6366604721034 55.660717197396956 L 1070.8865818376573 55.687481633066575 L 1071.1358986553562 55.715374493211485 L 1071.3845859937258 55.744392988568904 L 1071.6326189842396 55.7745342173135 L 1071.879972823805 55.8057951653475 L 1072.1266227772444 55.83817270660215 L 1072.372544179768 55.871663603350314 L 1072.6177124394405 55.90626450653023 L 1072.8621030396403 55.941971956080394 L 1073.1056915415106 55.97878238128563 L 1073.3484535864047 56.01669210113408 L 1073.5903648983203 56.055697324685354 L 1073.8314012863275 56.095794151449596 L 1074.0715386469888 56.136978571777554 L 1074.310752966768 56.17924646726151 L 1074.5490203244324 56.22259361114713 L 1074.786316893445 56.267015668756166 L 1075.0226189443465 56.31250819791986 L 1075.2579028471287 56.35906664942321 L 1075.4921450735976 56.40668636745987 L 1075.7253221997255 56.455362590097714 L 1075.9574109079942 56.505090449755045 L 1076.1883879897264 56.55586497368733 L 1076.4182303474063 56.60768108448449 L 1076.6469149969896 56.66053360057863 L 1076.8744190702018 56.71441723676219 L 1077.1007198168256 56.76932660471643 L 1077.3257946069746 56.82525621355034 L 1077.5496209333573 56.88220047034963 L 1077.7721764135279 56.940153680736074 L 1077.9934387921235 56.999110049436936 L 1078.2133859430908 57.05906368086447 L 1078.4319958718982 57.120008579705484 L 1078.6492467177343 57.1819386515209 L 1078.8651167556964 57.244847703355134 L 1079.07958439896 57.308729444355436 L 1079.2926282009396 57.373577486400926 L 1079.5042268574327 57.439385344741446 L 1079.71435920875 57.506146438646006 L 1079.9230042418314 57.57385409206084 L 1080.1301410923475 57.642501534277045 L 1080.3357490467858 57.712081900607586 L 1080.539807544522 57.78258823307383 L 1080.7422961798768 57.854013481101276 L 1080.9431947041553 57.92635050222464 L 1081.1424830276721 57.99959206280211 L 1081.3401412217615 58.07373083873863 L 1081.5361495207683 58.14875941621842 L 1081.7304883240263 58.224670292446234 L 1081.9231381978168 58.30145587639771 L 1082.1140798773133 58.379108489578456 L 1082.3032942685068 58.45762036679186 L 1082.4907624501157 58.53698365691561 L 1082.6764656754783 58.61719042368684 L 1082.8603853744266 58.698232646495725 L 1083.0425031551445 58.7801022211875 L 1083.222800806005 58.86279096087293 L 1083.4012602973935 58.94629059674695 L 1083.5778637835099 59.03059277891555 L 1083.7525936041523 59.115689077230776 L 1083.9254322864845 59.2015709821337 L 1084.0963625467823 59.2882299055054 L 1084.265367292162 59.375657181525774 L 1084.4324296222899 59.46384406754005 L 1084.5975328310724 59.55278174493313 L 1084.7606604083257 59.642461320011385 L 1084.9217960414287 59.73287382489204 L 1085.080923616952 59.82401021839995 L 1085.2380272222708 59.91586138697171 L 1085.3930911471552 60.008418145567006 L 1085.5460998853423 60.10167123858711 L 1085.6970381360854 60.195611340800426 L 1085.8458908056855 60.29022905827503 L 1085.9926430089997 60.385514929318006 L 1086.1372800709298 60.48145942542166 L 1086.27978752789 60.57805295221634 L 1086.4201511292538 60.67528585042985 L 1086.5583568387776 60.77314839685341 L 1086.694390836006 60.87163080531391 L 1086.8282395176525 60.97072322765259 L 1086.9598894989601 61.07041575470979 L 1087.089327615041 61.170698417315876 L 1087.216540922191 61.271561187288164 L 1087.3415166991856 61.3729939784337 L 1087.4642424485512 61.47498664755789 L 1087.5847058978152 61.577528995478836 L 1087.7028950007327 61.68061076804718 L 1087.8187979384925 61.78422165717158 L 1087.932403120897 61.88835130184945 L 1088.0436991875226 61.99298928920311 L 1088.1526750088558 62.09812515552101 L 1088.2593196874047 62.203748387304145 L 1088.363622558791 62.30984842231735 L 1088.4655731928137 62.416414650645535 L 1088.565161394495 62.52343641575468 L 1088.6623772050973 62.63090301555746 L 1088.7572109031207 62.73880370348344 L 1088.8496530052746 62.847127689553744 L 1088.9396942674255 62.95586414146005 L 1089.0273256855223 63.065002185647764 L 1089.1125384964967 63.174530908403426 L 1089.195324179138 63.28443935694603 L 1089.275674454947 63.39471654052231 L 1089.3535812889634 63.50535143150581 L 1089.4290368905683 63.61633296649962 L 1089.5020337142648 63.72765004744274 L 1089.5725644604313 63.83929154271982 L 1089.6406220760518 63.951246288274376 L 1089.7061997554215 64.06350308872516 L 1089.7692909408272 64.17605071848564 L 1089.829889323203 64.28887792288667 L 1089.8879888427607 64.40197341930181 L 1089.9435836895973 64.51532589827566 L 1089.9966683042742 64.6289240246548 L 1090.0472373783741 64.74275643872124 L 1090.095285855032 64.85681175732844 L 1090.14080892944 64.97107857503958 L 1090.183802049329 65.08554546526814 L 1090.224260915422 65.20020098142045 L 1090.2621814818672 65.31503365804045 L 1090.2975599566387 65.43003201195617 L 1090.3303928019188 65.54518454342806 L 1090.3606767344506 65.66047973729893 L 1090.3884087258657 65.77590606414547 L 1090.413586002988 65.89145198143119 L 1090.4362060481112 66.00710593466063 L 1090.4562665992494 66.12285635853486 L 1090.4737656503642 66.23869167810795 L 1090.4887014515648 66.35460030994449 L 1090.501072509284 66.47057066327784 L 1090.5108775864262 66.58659114116935 L 1090.5181157024917 66.70265014166789 L 1090.5227861336753 66.81873605897015 L 1090.5248884129371 66.9348372845811 M 1090.5250187099207 103.91451096179999 L 1090.523734522332 104.03061462555635 L 1090.519882087984 104.14670667904309 L 1090.5134617921167 104.2627755131516 L 1090.5044742767543 104.37880952109519 L 1090.492920440641 104.49479709956978 L 1090.4788014391506 104.61072664991414 L 1090.4621186841719 104.72658657926989 L 1090.442873843966 104.8423653017406 L 1090.421068843001 104.95805123955054 L 1090.396705861759 105.0736328242023 L 1090.3697873365177 105.18909849763378 L 1090.340315959107 105.3044367133738 L 1090.3082946766408 105.41963593769695 L 1090.2737266912197 105.53468465077678 L 1090.236615459614 105.64957134783783 L 1090.196964692916 105.76428454030618 L 1090.1547783561691 105.87881275695814 L 1090.1100606679718 105.9931445450675 L 1090.0628161000557 106.10726847155073 L 1090.0130493768384 106.22117312411025 L 1089.9607654749504 106.33484711237577 L 1089.9059696227387 106.44827906904317 L 1089.8486672997426 106.56145765101131 L 1089.7888642361468 106.67437154051632 L 1089.7265664122076 106.78700944626333 L 1089.6617800576557 106.89936010455563 L 1089.5945116510725 107.01141228042103 L 1089.5247679192428 107.12315476873529 L 1089.4525558364812 107.23457639534273 L 1089.377882623936 107.34566601817353 L 1089.3007557488665 107.45641252835797 L 1089.2211829238956 107.56680485133734 L 1089.1391721062398 107.67683194797132 L 1089.0547314969122 107.78648281564195 L 1088.9678695399034 107.89574648935381 L 1088.8785949213368 108.00461204283062 L 1088.7869165686002 108.1130685896077 L 1088.6928436494518 108.22110528412082 L 1088.5963855711057 108.32871132279051 L 1088.497551979289 108.4358759451026 L 1088.3963527572787 108.54258843468413 L 1088.2927980249126 108.6488381203751 L 1088.1868981375776 108.75461437729548 L 1088.0786636851742 108.8599066279077 L 1087.9681054910577 108.96470434307447 L 1087.855234610955 109.0689970431116 L 1087.7400623318601 109.17277429883598 L 1087.6226001709053 109.27602573260853 L 1087.5028598742085 109.37874101937192 L 1087.3808534156997 109.48090988768304 L 1087.2565929959228 109.58252212074024 L 1087.1300910408168 109.68356755740487 L 1087.001360200471 109.78403609321748 L 1086.870413347863 109.88391768140819 L 1086.7372635775685 109.98320233390143 L 1086.6019242044533 110.08188012231469 L 1086.4644087623426 110.17994117895135 L 1086.3247310026654 110.27737569778748 L 1086.1829048930817 110.37417393545236 L 1086.038944616084 110.47032621220293 L 1085.8928645675803 110.5658229128916 L 1085.7446793554534 110.66065448792793 L 1085.5944037981012 110.7548114542334 L 1085.4420529229542 110.84828439618985 L 1085.2876419649729 110.941063966581 L 1085.1311863651247 111.03314088752711 L 1084.9727017688385 111.12450595141281 L 1084.8122040244427 111.21515002180787 L 1084.6497091815775 111.30506403438078 L 1084.485233489592 111.39423899780519 L 1084.3187933959182 111.48266599465909 L 1084.1504055444266 111.57033618231648 L 1083.9800867737624 111.65724079383165 L 1083.8078541156606 111.74337113881587 L 1083.6337247932433 111.82871860430642 L 1083.4577162192977 111.91327465562787 L 1083.2798459945348 111.99703083724555 L 1083.1001319058287 112.07997877361109 L 1082.9185919244383 112.16211016999999 L 1082.7352442042106 112.24341681334106 L 1082.5501070797648 112.32389057303769 L 1082.3631990646593 112.40352340178099 L 1082.1745388495394 112.48230733635444 L 1081.98414530027 112.56023449843025 L 1081.7920374560467 112.63729709535714 L 1081.5982345274945 112.71348742093964 L 1081.4027558947441 112.78879785620869 L 1081.2056211054964 112.8632208701835 L 1081.0068498730657 112.93674902062472 L 1080.8064620744099 113.00937495477855 L 1080.6044777481416 113.08109141011211 L 1080.400917092525 113.15189121503964 L 1080.1958004634566 113.22176728963963 L 1079.989148372428 113.29071264636286 L 1079.7809814844761 113.35872039073111 L 1079.571320616116 113.42578372202661 L 1079.3601867332604 113.49189593397213 L 1079.1476009491212 113.55705041540155 L 1078.9335845220996 113.62124065092104 L 1078.7181588536603 113.68446022156053 L 1078.5013454861903 113.74670280541565 L 1078.2831661008458 113.80796217827987 L 1078.0636425153837 113.86823221426694 L 1077.8427966819793 113.92750688642352 L 1077.6206506850322 113.98578026733178 L 1077.3972267389568 114.04304652970217 L 1077.1725471859613 114.09929994695618 L 1076.9466344938141 114.15453489379898 L 1076.7195112535962 114.20874584678191 L 1076.4912001774421 114.26192738485484 L 1076.2617240962693 114.31407418990828 L 1076.0311059574947 114.36518104730519 L 1075.79936882274 114.4152428464024 L 1075.5665358655253 114.46425458106174 L 1075.3326303689528 114.51221135015058 L 1075.0976757233768 114.55910835803196 L 1074.8616954240663 114.6049409150442 L 1074.6247130688544 114.64970443796976 L 1074.3867523557792 114.69339445049368 L 1074.1478370807138 114.7360065836511 L 1073.9079911349863 114.77753657626423 L 1073.667238502992 114.81798027536838 L 1073.425603259793 114.85733363662739 L 1073.1831095687123 114.8955927247379 L 1072.9397816789171 114.93275371382298 L 1072.6956439229937 114.96881288781469 L 1072.4507207145136 115.0037666408257 L 1072.2050365455943 115.03761147750981 L 1071.9586159844478 115.07034401341159 L 1071.7114836729245 115.10196097530469 L 1071.46366432405 115.13245920151928 L 1071.2151827195523 115.16183564225817 L 1070.9660637073853 115.19008735990175 L 1070.716332199242 115.21721152930179 L 1070.4660131680655 115.24320543806398 L 1070.2151316455504 115.26806648681908 L 1069.9637127196395 115.29179218948295 L 1069.7117815320164 115.31438017350509 L 1069.4593632755893 115.33582818010592 L 1069.206483191974 115.35613406450264 L 1068.9531665689678 115.37529579612375 L 1068.699438738022 115.39331145881205 L 1068.4453250717086 115.41017925101629 L 1068.190850981182 115.42589748597129 L 1067.9360419136394 115.44046459186667 L 1067.680923349775 115.45387911200397 L 1067.425520801233 115.46613970494236 L 1067.169859808055 115.47724514463276 L 1066.9139659361276 115.48719432054045 L 1066.6578647746246 115.49598623775614 L 1066.4015819334486 115.50362001709544 L 1066.1451430406703 115.51009489518677 L 1065.8885737399653 115.5154102245477 L 1065.63189968805 115.51956547364975 L 1065.3751465521152 115.52256022697145 L 1065.1183400072612 115.52439418504 L 1064.861505733928 115.52506716446106 L 1064.6046694153288 115.52457909793732 L 1064.347856734882 115.52293003427498 L 1064.0910933736411 115.52012013837903 L 1063.8344050077285 115.51614969123673 L 1063.577817305767 115.51101908988952 L 1063.3213559263127 115.50472884739318 L 1063.06504651529 115.4972795927668 L 1062.8089147034264 115.48867207092958 L 1062.5529861036896 115.47890714262655 L 1062.2972863087261 115.4679857843424 L 1062.0418408883027 115.45590908820387 L 1061.7866753867484 115.4426782618705 L 1061.5318153204007 115.42829462841388 L 1061.2772861750539 115.4127596261854 L 1061.0231134034102 115.39607480867232 L 1060.7693224225352 115.3782418443425 L 1060.5159386113155 115.35926251647749 L 1060.262987307921 115.33913872299428 L 1060.0104938072714 115.31787247625543 L 1059.758483358506 115.29546590286792 L 1059.50698116246 115.27192124347039 L 1059.2560123691435 115.24724085250918 L 1059.005602075226 115.2214271980028 L 1058.7557753215292 115.1944828612952 L 1058.5065570905194 115.1664105367976 L 1058.2579723038127 115.13721303171906 L 1058.0100458196803 115.10689326578573 L 1057.7628024305639 115.07545427094897 L 1057.5162668605965 115.04289919108203 L 1057.2704637631298 115.0092312816658 L 1057.0254177182685 114.97445390946316 L 1056.7811532304129 114.93857055218234 L 1056.5376947258085 114.90158479812916 L 1056.2950665501023 114.86350034584822 L 1056.0532929659103 114.824321003753 L 1055.8123981503893 114.78405068974506 L 1055.5724061928197 114.74269343082224 L 1055.3333410921978 114.70025336267598 L 1055.0952267548341 114.65673472927773 L 1054.858086991964 114.61214188245454 L 1054.6219455173664 114.56647928145395 L 1054.3868259449916 114.51975149249802 L 1054.152751786601 114.47196318832667 L 1053.9197464494155 114.42311914773052 L 1053.6878332337747 114.37322425507293 L 1053.4570353308065 114.32228349980157 L 1053.2273758201095 114.27030197594954 L 1052.998877667443 114.21728488162587 L 1052.7715637224317 114.16323751849586 L 1052.545456716281 114.10816529125074 L 1052.320579259503 114.05207370706736 L 1052.0969538396557 113.9949683750574 L 1051.8746028190953 113.93685500570646 L 1051.653548432738 113.87773941030305 L 1051.4338127858387 113.81762750035746 L 1051.2154178517785 113.75652528701059 L 1050.9983854698694 113.69443888043284 L 1050.782737343168 113.63137448921314 L 1050.568495036308 113.56733841973806 L 1050.355679973341 113.5023370755612 L 1050.1443134355961 113.43637695676277 L 1049.9344165595512 113.36946465929971 L 1049.7260103347185 113.301606874346 L 1049.5191156015474 113.2328103876236 L 1049.3137530493382 113.16308207872383 L 1049.1099432141755 113.0924289204195 L 1048.9077064768726 113.02085797796754 L 1048.707063060935 112.94837640840255 L 1048.508033030537 112.8749914598211 L 1048.3106362885155 112.8007104706569 L 1048.1148925743807 112.72554086894695 L 1047.9208214623404 112.64949017158878 L 1047.7284423593446 112.57256598358876 L 1047.5377745031428 112.49477599730159 L 1047.348836960362 112.41612799166106 L 1047.161648624599 112.3366298314022 L 1046.9762282145311 112.2562894662748 L 1046.792594272045 112.1751149302484 L 1046.6107651603822 112.09311434070896 L 1046.430759062302 112.01029589764713 L 1046.2525939782645 111.92666788283817 L 1046.0762877246293 111.84223865901389 L 1045.901857931875 111.7570166690263 L 1045.7293220428353 111.67101043500338 L 1045.5586973109557 111.58422855749687 L 1045.390000798567 111.4966797146222 L 1045.2232493751799 111.40837266119071 L 1045.0584597157977 111.31931622783415 L 1044.8956482992492 111.22951932012163 L 1044.73483140654 111.13899091766909 L 1044.5760251192257 111.04774007324134 L 1044.4192453178027 110.9557759118468 L 1044.2645076801205 110.86310762982494 L 1044.1118276798136 110.76974449392677 L 1043.961220584755 110.67569584038806 L 1043.812701455529 110.58097107399578 L 1043.6662851439241 110.48557966714766 L 1043.52198629145 110.38953115890487 L 1043.3798193278715 110.2928351540382 L 1043.2397984697666 110.19550132206757 L 1043.1019377191042 110.09753939629505 L 1042.9662508618446 109.99895917283158 L 1042.8327514665605 109.89977050961737 L 1042.7014528830803 109.79998332543607 L 1042.5723682411526 109.69960759892295 L 1042.4455104491342 109.59865336756702 L 1042.3208921926987 109.4971307267073 L 1042.1985259335677 109.39504982852324 L 1042.0784239082652 109.29242088101961 L 1041.9605981268937 109.18925414700563 L 1041.8450603719332 109.08555994306874 L 1041.7318221970627 108.98134863854291 L 1041.6208949260056 108.87663065447177 L 1041.5122896513963 108.77141646256644 L 1041.406017233672 108.66571658415843 L 1041.3020882999856 108.55954158914753 L 1041.2005132431443 108.45290209494473 L 1041.1013022205686 108.3458087654106 L 1041.0044651532787 108.23827230978884 L 1040.9100117249002 108.1303034816354 L 1040.8179513806972 108.02191307774314 L 1040.7282933266276 107.9131119370621 L 1040.641046528422 107.80391093961568 L 1040.5562197106876 107.69432100541265 L 1040.4738213560356 107.58435309335508 L 1040.3938597042325 107.47401820014255 L 1040.3163427513769 107.36332735917243 L 1040.2412782490997 107.25229163943658 L 1040.1686737037883 107.14092214441445 L 1040.0985363758368 107.0292300109627 L 1040.0308732789197 106.91722640820164 L 1039.9656911792902 106.80492253639821 L 1039.902996595104 106.69232962584596 L 1039.8427957957672 106.57945893574217 L 1039.7850948013097 106.46632175306175 L 1039.7298993817828 106.35292939142872 L 1039.6772150566824 106.23929318998472 L 1039.6270470943969 106.12542451225522 L 1039.5794005116811 106.0113347450131 L 1039.5342800731535 105.89703529714001 L 1039.49169029082 105.78253759848548 L 1039.4516354236239 105.66785309872397 L 1039.4141194770182 105.55299326620987 L 1039.3791462025663 105.43796958683073 L 1039.3467190975666 105.32279356285864 L 1039.3168414047025 105.2074767118 L 1039.2895161117185 105.09203056524383 L 1039.2647459511209 104.97646666770858 L 1039.2425333999054 104.8607965754877 L 1039.2228806793082 104.74503185549402 L 1039.2057897545856 104.62918408410306 L 1039.1912623348153 104.51326484599544 L 1039.1792998727274 104.39728573299836 L 1039.169903564558 104.28125834292646 L 1039.1630743499302 104.16519427842208 L 1039.15881291176 104.04910514579494 L 1039.1571196761872 103.93300255386156" stroke-miterlimit="10" stroke-width="2.990598758" stroke-dasharray=""/></g><g><g/><text fill="black" stroke="none" font-family="sans-serif" font-size="11pt" font-style="normal" font-weight="normal" text-decoration="normal" x="1032.1388434332644" y="134.401026536" text-anchor="start" dominant-baseline="alphabetic" xml:space="preserve">Database</text></g></g><g><path fill="white" stroke="black" paint-order="fill stroke markers" d=" M 179.81603456207682 197.73135317599997 L 197.40779196207683 197.73135317599997 L 197.40779196207683 729.002426656 L 179.81603456207682 729.002426656 L 179.81603456207682 197.73135317599997" stroke-miterlimit="10" stroke-width="1.4659797833333332" stroke-dasharray=""/><path fill="white" stroke="black" paint-order="fill stroke markers" d=" M 505.88674146429037 391.240684576 L 523.4784988642904 391.240684576 L 523.4784988642904 729.002426656 L 505.88674146429037 729.002426656 L 505.88674146429037 391.240684576" stroke-miterlimit="10" stroke-width="1.4659797833333332" stroke-dasharray=""/><g><g><rect fill="white" stroke="none" x="63.64285906718099" y="174.86206855599997" width="95.3562625715625" height="22.86928462"/></g><text fill="black" stroke="none" font-family="sans-serif" font-size="11pt" font-style="normal" font-weight="normal" text-decoration="normal" x="66.28162267718099" y="190.69465021599999" text-anchor="start" dominant-baseline="alphabetic" xml:space="preserve">FormInteract</text></g><g><path fill="none" stroke="black" paint-order="fill stroke markers" d=" M 42.82594614384766 197.73135317599997 L 176.88407499541015 197.73135317599997" stroke-miterlimit="10" stroke-width="1.4659797833333332" stroke-dasharray=""/><g transform="translate(179.81603456207682,197.73135317599997) translate(-179.81603456207682,-197.73135317599997)"><path fill="black" stroke="none" paint-order="stroke fill markers" d=" M 165.1562367287435 190.4014542593333 L 179.81603456207682 197.73135317599997 L 165.1562367287435 205.06125209266665 Z"/></g></g><g><g><rect fill="white" stroke="none" x="218.22470488541015" y="224.11898927599998" width="203.47366369460937" height="22.86928462"/></g><text fill="black" stroke="none" font-family="sans-serif" font-size="11pt" font-style="normal" font-weight="normal" text-decoration="normal" x="220.86346849541016" y="239.951570936" text-anchor="start" dominant-baseline="alphabetic" xml:space="preserve">username := form.username</text></g><g><path fill="none" stroke="black" paint-order="fill stroke markers" d=" M 197.40779196207683 246.98827389599998 L 267.7748215620768 246.98827389599998 L 267.7748215620768 269.857558516 L 200.3397515287435 269.857558516" stroke-miterlimit="10" stroke-width="1.4659797833333332" stroke-dasharray=""/><g transform="translate(197.40779196207683,269.857558516) translate(-197.40779196207683,-269.857558516)"><path fill="black" stroke="none" paint-order="stroke fill markers" d=" M 212.06758979541016 262.52765959933333 L 197.40779196207683 269.857558516 L 212.06758979541016 277.18745743266663 Z"/></g></g><g><g><rect fill="white" stroke="none" x="218.22470488541015" y="296.245194616" width="199.43643224929687" height="22.86928462"/></g><text fill="black" stroke="none" font-family="sans-serif" font-size="11pt" font-style="normal" font-weight="normal" text-decoration="normal" x="220.86346849541016" y="312.077776276" text-anchor="start" dominant-baseline="alphabetic" xml:space="preserve">password := form.password</text></g><g><path fill="none" stroke="black" paint-order="fill stroke markers" d=" M 197.40779196207683 319.114479236 L 267.7748215620768 319.114479236 L 267.7748215620768 341.983763856 L 200.3397515287435 341.983763856" stroke-miterlimit="10" stroke-width="1.4659797833333332" stroke-dasharray=""/><g transform="translate(197.40779196207683,341.983763856) translate(-197.40779196207683,-341.983763856)"><path fill="black" stroke="none" paint-order="stroke fill markers" d=" M 212.06758979541016 334.65386493933335 L 197.40779196207683 341.983763856 L 212.06758979541016 349.31366277266665 Z"/></g></g><g><g><rect fill="white" stroke="none" x="218.22470488541018" y="368.371399956" width="266.8451236555469" height="22.86928462"/></g><text fill="black" stroke="none" font-family="sans-serif" font-size="11pt" font-style="normal" font-weight="normal" text-decoration="normal" x="220.8634684954102" y="384.203981616" text-anchor="start" dominant-baseline="alphabetic" xml:space="preserve">(username : String, password : String)</text></g><g><path fill="none" stroke="black" paint-order="fill stroke markers" d=" M 197.40779196207683 391.240684576 L 502.9547818976237 391.240684576" stroke-miterlimit="10" stroke-width="1.4659797833333332" stroke-dasharray=""/><g transform="translate(505.88674146429037,391.240684576) translate(-505.88674146429037,-391.240684576)"><path fill="black" stroke="none" paint-order="stroke fill markers" d=" M 491.226943630957 383.9107856593333 L 505.88674146429037 391.240684576 L 491.226943630957 398.57058349266663 Z"/></g></g><g><g><rect fill="white" stroke="none" x="608.932330849129" y="465.126065656" width="109.06422460769531" height="22.86928462"/></g><text fill="black" stroke="none" font-family="sans-serif" font-size="11pt" font-style="normal" font-weight="normal" text-decoration="normal" x="611.571094459129" y="480.958647316" text-anchor="start" dominant-baseline="alphabetic" xml:space="preserve">getUsername()</text></g><g><path fill="none" stroke="black" paint-order="fill stroke markers" d=" M 523.4784988642904 487.99535027599995 L 800.5184278749961 487.99535027599995" stroke-miterlimit="10" stroke-width="1.4659797833333332" stroke-dasharray=""/><g transform="translate(803.4503874416628,487.99535027599995) translate(-803.4503874416628,-487.99535027599995)"><path fill="black" stroke="none" paint-order="stroke fill markers" d=" M 788.7905896083295 480.6654513593333 L 803.4503874416628 487.99535027599995 L 788.7905896083295 495.3252491926666 Z"/></g></g><g><g><rect fill="white" stroke="none" x="682.944747024715" y="514.382986376" width="104.74067724441406" height="22.86928462"/></g><text fill="black" stroke="none" font-family="sans-serif" font-size="11pt" font-style="normal" font-weight="normal" text-decoration="normal" x="685.5835106347149" y="530.2155680359999" text-anchor="start" dominant-baseline="alphabetic" xml:space="preserve">getPassword()</text></g><g><path fill="none" stroke="black" paint-order="fill stroke markers" d=" M 523.4784988642904 537.252270996 L 944.2197128628867 537.252270996" stroke-miterlimit="10" stroke-width="1.4659797833333332" stroke-dasharray=""/><g transform="translate(947.1516724295534,537.252270996) translate(-947.1516724295534,-537.252270996)"><path fill="black" stroke="none" paint-order="stroke fill markers" d=" M 932.4918745962201 529.9223720793333 L 947.1516724295534 537.252270996 L 932.4918745962201 544.5821699126667 Z"/></g></g><g><g><rect fill="white" stroke="none" x="544.2954117876237" y="590.027543196" width="126.03630102371093" height="22.86928462"/></g><text fill="black" stroke="none" font-family="sans-serif" font-size="11pt" font-style="normal" font-weight="normal" text-decoration="normal" x="546.9341753976237" y="605.860124856" text-anchor="start" dominant-baseline="alphabetic" xml:space="preserve">notifyObservers()</text></g><g><path fill="none" stroke="black" paint-order="fill stroke markers" d=" M 523.4784988642904 612.8968278159999 L 593.8455284642904 612.8968278159999 L 593.8455284642904 635.766112436 L 526.4104584309571 635.766112436" stroke-miterlimit="10" stroke-width="1.4659797833333332" stroke-dasharray=""/><g transform="translate(523.4784988642904,635.766112436) translate(-523.4784988642904,-635.766112436)"><path fill="black" stroke="none" paint-order="stroke fill markers" d=" M 538.1382966976237 628.4362135193333 L 523.4784988642904 635.766112436 L 538.1382966976237 643.0960113526667 Z"/></g></g><g><g><rect fill="white" stroke="none" x="319.2840920924414" y="662.153748536" width="64.72634924148437" height="22.86928462"/></g><text fill="black" stroke="none" font-family="sans-serif" font-size="11pt" font-style="normal" font-weight="normal" text-decoration="normal" x="321.92285570244144" y="677.9863301959999" text-anchor="start" dominant-baseline="alphabetic" xml:space="preserve">update()</text></g><g><path fill="none" stroke="black" paint-order="fill stroke markers" d=" M 505.88674146429037 685.023033156 L 200.3397515287435 685.023033156" stroke-miterlimit="10" stroke-width="1.4659797833333332" stroke-dasharray=""/><g transform="translate(197.40779196207683,685.023033156) translate(-197.40779196207683,-685.023033156)"><path fill="black" stroke="none" paint-order="stroke fill markers" d=" M 212.06758979541016 677.6931342393333 L 197.40779196207683 685.023033156 L 212.06758979541016 692.3529320726667 Z"/></g></g><g><g/><path fill="none" stroke="black" paint-order="fill stroke markers" d=" M 453.11146926429035 417.628320676 L 1008.7228233295534 417.628320676 L 1008.7228233295534 563.639907096 L 453.11146926429035 563.639907096 L 453.11146926429035 417.628320676 Z" stroke-miterlimit="10" stroke-width="2.5131082" stroke-dasharray=""/><path fill="white" stroke="black" paint-order="fill stroke markers" d=" M 453.11146926429035 417.628320676 L 453.11146926429035 438.73842955599997 L 514.9967510320638 438.73842955599997 L 525.5518054720638 428.183375116 L 525.5518054720638 417.628320676 L 453.11146926429035 417.628320676" stroke-miterlimit="10" stroke-width="2.5131082" stroke-dasharray=""/><text fill="black" stroke="none" font-family="sans-serif" font-size="8.8pt" font-style="normal" font-weight="bold" text-decoration="normal" x="470.70322666429036" y="431.70172659599996" text-anchor="start" dominant-baseline="alphabetic" xml:space="preserve">loop</text><text fill="black" stroke="none" font-family="sans-serif" font-size="8.8pt" font-style="normal" font-weight="bold" text-decoration="normal" x="543.1435628720639" y="431.70172659599996" text-anchor="start" dominant-baseline="alphabetic" xml:space="preserve">[for each current Account]</text></g></g><g/><g/><g/><g/><g/><g/><g/></g></svg>